G04 #@! TF.GenerationSoftware,KiCad,Pcbnew,7.0.2*
G04 #@! TF.CreationDate,2023-06-19T20:00:18-05:00*
G04 #@! TF.ProjectId,HankPropane2.0,48616e6b-5072-46f7-9061-6e65322e302e,rev?*
G04 #@! TF.SameCoordinates,Original*
G04 #@! TF.FileFunction,Copper,L1,Top*
G04 #@! TF.FilePolarity,Positive*
%FSLAX46Y46*%
G04 Gerber Fmt 4.6, Leading zero omitted, Abs format (unit mm)*
G04 Created by KiCad (PCBNEW 7.0.2) date 2023-06-19 20:00:18*
%MOMM*%
%LPD*%
G01*
G04 APERTURE LIST*
G04 #@! TA.AperFunction,ComponentPad*
%ADD10O,1.727200X1.727200*%
G04 #@! TD*
G04 #@! TA.AperFunction,ComponentPad*
%ADD11R,1.727200X1.727200*%
G04 #@! TD*
G04 #@! TA.AperFunction,ComponentPad*
%ADD12C,1.727200*%
G04 #@! TD*
G04 APERTURE END LIST*
D10*
X172068800Y-109468600D03*
D11*
X172068800Y-112008600D03*
D10*
X174608800Y-109468600D03*
X174608800Y-112008600D03*
D12*
X177148800Y-109468600D03*
X177148800Y-112008600D03*
G04 #@! TA.AperFunction,Conductor*
G36*
X181893254Y-75413338D02*
G01*
X183942187Y-75539815D01*
X183951296Y-75540711D01*
X185816677Y-75792790D01*
X185835598Y-75796846D01*
X187156722Y-76188291D01*
X187216354Y-76226822D01*
X187222828Y-76234990D01*
X187787397Y-77011270D01*
X187810753Y-77071716D01*
X187959003Y-78430672D01*
X187959665Y-78439824D01*
X188238711Y-86227751D01*
X188238683Y-86232610D01*
X188238936Y-86233309D01*
X188239482Y-86233819D01*
X188243994Y-86235718D01*
X190443906Y-87272458D01*
X190453783Y-87277660D01*
X191787828Y-88057950D01*
X191801770Y-88067411D01*
X192165534Y-88351602D01*
X192602664Y-88693110D01*
X192612612Y-88701756D01*
X192986019Y-89062286D01*
X193334980Y-89399214D01*
X193351777Y-89419190D01*
X193873632Y-90189548D01*
X193881171Y-90202215D01*
X194225301Y-90865896D01*
X194236844Y-90898432D01*
X194563138Y-92479701D01*
X194563821Y-92483268D01*
X194790459Y-93767545D01*
X194792337Y-93786293D01*
X194817028Y-94773951D01*
X194816341Y-94779508D01*
X194817174Y-94789084D01*
X194817602Y-94796589D01*
X194817836Y-94805260D01*
X194819063Y-94810558D01*
X194891961Y-95636717D01*
X194891748Y-95639923D01*
X194893503Y-95654766D01*
X194893714Y-95656788D01*
X194895472Y-95659932D01*
X194904076Y-95676485D01*
X194906123Y-95678891D01*
X195392172Y-96553780D01*
X195405581Y-96590260D01*
X195603231Y-97578511D01*
X195605433Y-97595362D01*
X195654519Y-98380736D01*
X195651309Y-98417900D01*
X195377018Y-99564935D01*
X195375477Y-99570761D01*
X195148246Y-100353443D01*
X195147124Y-100357098D01*
X194869688Y-101214628D01*
X194868138Y-101218901D01*
X194868315Y-101223471D01*
X194893689Y-108582328D01*
X194893594Y-108587667D01*
X194817566Y-110539080D01*
X194817392Y-110542420D01*
X194716295Y-112084144D01*
X194714940Y-112096068D01*
X194565415Y-113018142D01*
X194559454Y-113041033D01*
X194161117Y-114136461D01*
X194151235Y-114157407D01*
X193585225Y-115117162D01*
X193554050Y-115152614D01*
X192900679Y-115660792D01*
X192897198Y-115662822D01*
X192888763Y-115669959D01*
X192885739Y-115672437D01*
X192875897Y-115680252D01*
X192873199Y-115683375D01*
X191778677Y-116628643D01*
X191759452Y-116642327D01*
X190813075Y-117190230D01*
X190795429Y-117198690D01*
X190019918Y-117498888D01*
X190017175Y-117499877D01*
X190016953Y-117500070D01*
X190016841Y-117500325D01*
X190016709Y-117503134D01*
X189869965Y-119630917D01*
X189845324Y-119697500D01*
X189791059Y-119739236D01*
X188979815Y-120063735D01*
X188971756Y-120066645D01*
X187328479Y-120597549D01*
X187321172Y-120599668D01*
X185653941Y-121029107D01*
X185642925Y-121031425D01*
X183950666Y-121309258D01*
X183942790Y-121310298D01*
X181410797Y-121563497D01*
X181402704Y-121564044D01*
X179247761Y-121640101D01*
X177297753Y-121690749D01*
X177286282Y-121690524D01*
X176133226Y-121615327D01*
X176114315Y-121612642D01*
X175821318Y-121548083D01*
X174627589Y-121285057D01*
X174622636Y-121283860D01*
X173181930Y-120904726D01*
X173172854Y-120901969D01*
X171806873Y-120430084D01*
X171760392Y-120401534D01*
X171002899Y-119668477D01*
X170985684Y-119647825D01*
X170600518Y-119070076D01*
X170581926Y-119025503D01*
X170387827Y-118079268D01*
X170387563Y-118072832D01*
X170383667Y-118058859D01*
X170371937Y-118051094D01*
X170365709Y-118048806D01*
X168957112Y-117258016D01*
X168955573Y-117256710D01*
X168935723Y-117246006D01*
X168935722Y-117246005D01*
X168935620Y-117245950D01*
X168935558Y-117245916D01*
X168935555Y-117245915D01*
X168920719Y-117237779D01*
X168919253Y-117237255D01*
X168138909Y-116822697D01*
X168109934Y-116801515D01*
X166989718Y-115706194D01*
X166972508Y-115685299D01*
X166969191Y-115680252D01*
X166399358Y-114813114D01*
X166392868Y-114802048D01*
X166052710Y-114147898D01*
X165740883Y-113548229D01*
X165732067Y-113526572D01*
X165406232Y-112448812D01*
X165404491Y-112442452D01*
X165052318Y-111008601D01*
X165048963Y-110986947D01*
X164973646Y-109857178D01*
X164973430Y-109852770D01*
X164961309Y-109468600D01*
X170691998Y-109468600D01*
X170710776Y-109695214D01*
X170710776Y-109695217D01*
X170710777Y-109695218D01*
X170766596Y-109915645D01*
X170857939Y-110123885D01*
X170982307Y-110314246D01*
X171110085Y-110453051D01*
X171141505Y-110516716D01*
X171133518Y-110587262D01*
X171088659Y-110642291D01*
X171061415Y-110656444D01*
X170959237Y-110694554D01*
X170842295Y-110782095D01*
X170754754Y-110899037D01*
X170703705Y-111035906D01*
X170697559Y-111093063D01*
X170697200Y-111099777D01*
X170697200Y-111754600D01*
X171628175Y-111754600D01*
X171601955Y-111795399D01*
X171560800Y-111935561D01*
X171560800Y-112081639D01*
X171601955Y-112221801D01*
X171628175Y-112262600D01*
X170697200Y-112262600D01*
X170697200Y-112917422D01*
X170697559Y-112924136D01*
X170703705Y-112981293D01*
X170754754Y-113118162D01*
X170842295Y-113235104D01*
X170959237Y-113322645D01*
X171096106Y-113373694D01*
X171153263Y-113379840D01*
X171159977Y-113380200D01*
X171814800Y-113380200D01*
X171814800Y-112451070D01*
X171924208Y-112501035D01*
X172032466Y-112516600D01*
X172105134Y-112516600D01*
X172213392Y-112501035D01*
X172322800Y-112451070D01*
X172322800Y-113380200D01*
X172977623Y-113380200D01*
X172984336Y-113379840D01*
X173041493Y-113373694D01*
X173178362Y-113322645D01*
X173295304Y-113235104D01*
X173382846Y-113118162D01*
X173421376Y-113014856D01*
X173463922Y-112958020D01*
X173530442Y-112933208D01*
X173599816Y-112948299D01*
X173632133Y-112973550D01*
X173676315Y-113021545D01*
X173855760Y-113161212D01*
X173992300Y-113235104D01*
X174055745Y-113269439D01*
X174270815Y-113343272D01*
X174360530Y-113358243D01*
X174495102Y-113380700D01*
X174495105Y-113380700D01*
X174722498Y-113380700D01*
X174834639Y-113361986D01*
X174946785Y-113343272D01*
X175161855Y-113269439D01*
X175361839Y-113161212D01*
X175541283Y-113021546D01*
X175695290Y-112854249D01*
X175773316Y-112734820D01*
X175827320Y-112688731D01*
X175897668Y-112679156D01*
X175962025Y-112709133D01*
X175984283Y-112734820D01*
X176062310Y-112854250D01*
X176216315Y-113021545D01*
X176395760Y-113161212D01*
X176532300Y-113235104D01*
X176595745Y-113269439D01*
X176810815Y-113343272D01*
X176900530Y-113358243D01*
X177035102Y-113380700D01*
X177035105Y-113380700D01*
X177262498Y-113380700D01*
X177374639Y-113361986D01*
X177486785Y-113343272D01*
X177701855Y-113269439D01*
X177901839Y-113161212D01*
X178081283Y-113021546D01*
X178235290Y-112854249D01*
X178359661Y-112663885D01*
X178451003Y-112455647D01*
X178506824Y-112235214D01*
X178525602Y-112008600D01*
X178506824Y-111781986D01*
X178451003Y-111561553D01*
X178359661Y-111353315D01*
X178235290Y-111162951D01*
X178235289Y-111162949D01*
X178081284Y-110995654D01*
X177901838Y-110855987D01*
X177889687Y-110849411D01*
X177839298Y-110799397D01*
X177823947Y-110730079D01*
X177848510Y-110663467D01*
X177889688Y-110627787D01*
X177901839Y-110621212D01*
X178081283Y-110481546D01*
X178235290Y-110314249D01*
X178359661Y-110123885D01*
X178451003Y-109915647D01*
X178506824Y-109695214D01*
X178525602Y-109468600D01*
X178506824Y-109241986D01*
X178451003Y-109021553D01*
X178359661Y-108813315D01*
X178235290Y-108622951D01*
X178235289Y-108622949D01*
X178081284Y-108455654D01*
X177901839Y-108315987D01*
X177701856Y-108207761D01*
X177486782Y-108133927D01*
X177262498Y-108096500D01*
X177262495Y-108096500D01*
X177035105Y-108096500D01*
X177035102Y-108096500D01*
X176810817Y-108133927D01*
X176595743Y-108207761D01*
X176395760Y-108315987D01*
X176216315Y-108455654D01*
X176062310Y-108622949D01*
X175984283Y-108742379D01*
X175930279Y-108788468D01*
X175859931Y-108798043D01*
X175795574Y-108768066D01*
X175773317Y-108742379D01*
X175695289Y-108622949D01*
X175541284Y-108455654D01*
X175361839Y-108315987D01*
X175161856Y-108207761D01*
X174946782Y-108133927D01*
X174722498Y-108096500D01*
X174722495Y-108096500D01*
X174495105Y-108096500D01*
X174495102Y-108096500D01*
X174270817Y-108133927D01*
X174055743Y-108207761D01*
X173855760Y-108315987D01*
X173676315Y-108455654D01*
X173522310Y-108622949D01*
X173444283Y-108742379D01*
X173390279Y-108788468D01*
X173319931Y-108798043D01*
X173255574Y-108768066D01*
X173233317Y-108742379D01*
X173155289Y-108622949D01*
X173001284Y-108455654D01*
X172821839Y-108315987D01*
X172621856Y-108207761D01*
X172406782Y-108133927D01*
X172182498Y-108096500D01*
X172182495Y-108096500D01*
X171955105Y-108096500D01*
X171955102Y-108096500D01*
X171730817Y-108133927D01*
X171515743Y-108207761D01*
X171315760Y-108315987D01*
X171136315Y-108455654D01*
X170982310Y-108622949D01*
X170857939Y-108813314D01*
X170766596Y-109021554D01*
X170710777Y-109241981D01*
X170710776Y-109241986D01*
X170691998Y-109468600D01*
X164961309Y-109468600D01*
X164939851Y-108788468D01*
X164568006Y-97002600D01*
X174726600Y-97002600D01*
X174904400Y-97536000D01*
X175336200Y-97815400D01*
X175717200Y-97861120D01*
X175971198Y-97891600D01*
X175971198Y-97891599D01*
X175971200Y-97891600D01*
X176784000Y-97739200D01*
X177163154Y-97587538D01*
X177166870Y-97586119D01*
X177444400Y-97485200D01*
X177444402Y-97485199D01*
X178155599Y-97028001D01*
X178167649Y-97010930D01*
X178334895Y-96773999D01*
X186639199Y-96773999D01*
X186711771Y-96875600D01*
X186893201Y-97129602D01*
X186969398Y-97205799D01*
X187629801Y-97612201D01*
X188417200Y-97866200D01*
X189204596Y-97891600D01*
X189204596Y-97891599D01*
X189204600Y-97891600D01*
X189865000Y-97713800D01*
X190017400Y-97586800D01*
X190347600Y-97104200D01*
X190344025Y-97072029D01*
X190296800Y-96647001D01*
X190296799Y-96646999D01*
X190224935Y-96570644D01*
X189942130Y-96270163D01*
X189890401Y-96215201D01*
X189890400Y-96215200D01*
X189128400Y-95834200D01*
X189128399Y-95834199D01*
X189128398Y-95834199D01*
X188469959Y-95631602D01*
X188469937Y-95631596D01*
X188468000Y-95631000D01*
X188466031Y-95630531D01*
X188466012Y-95630526D01*
X188156020Y-95556719D01*
X187934600Y-95504000D01*
X187697533Y-95487066D01*
X187579001Y-95478600D01*
X187578998Y-95478600D01*
X187350401Y-95580198D01*
X187117568Y-95834199D01*
X187071000Y-95885000D01*
X187068628Y-95888388D01*
X187068622Y-95888396D01*
X186715400Y-96392999D01*
X186639199Y-96773999D01*
X178334895Y-96773999D01*
X178460400Y-96596200D01*
X178454006Y-96570626D01*
X178358800Y-96189800D01*
X178358799Y-96189799D01*
X177850801Y-95834200D01*
X177653950Y-95789750D01*
X177063400Y-95656400D01*
X177063397Y-95656400D01*
X176326800Y-95681800D01*
X175590200Y-95935800D01*
X175031399Y-96316800D01*
X174791915Y-96773998D01*
X174752000Y-96850200D01*
X174726600Y-97002600D01*
X164568006Y-97002600D01*
X164390675Y-91381993D01*
X164408519Y-91313278D01*
X164414994Y-91303525D01*
X164940957Y-90586302D01*
X164943519Y-90583419D01*
X164945982Y-90579725D01*
X164950186Y-90573796D01*
X164960105Y-90560627D01*
X164961924Y-90556445D01*
X165500232Y-89773451D01*
X165514956Y-89755750D01*
X166306675Y-88964030D01*
X166335427Y-88942517D01*
X167415980Y-88353125D01*
X167420707Y-88351602D01*
X167434035Y-88343470D01*
X167440145Y-88339972D01*
X167444322Y-88337733D01*
X167447438Y-88335454D01*
X168372450Y-87785448D01*
X168381425Y-87780594D01*
X170811515Y-86590861D01*
X170815133Y-86589234D01*
X170815381Y-86588982D01*
X170815384Y-86588982D01*
X170815384Y-86588979D01*
X170815470Y-86588894D01*
X170815510Y-86588778D01*
X170815512Y-86588776D01*
X170815511Y-86588773D01*
X170815621Y-86588458D01*
X170815488Y-86584591D01*
X170790348Y-76905409D01*
X170810173Y-76837240D01*
X170863708Y-76790608D01*
X170881888Y-76783890D01*
X173197900Y-76125654D01*
X173207615Y-76123306D01*
X175102588Y-75744312D01*
X175112820Y-75742700D01*
X177084657Y-75515180D01*
X177093066Y-75514496D01*
X179219414Y-75413243D01*
X179225408Y-75413100D01*
X181885492Y-75413100D01*
X181893254Y-75413338D01*
G37*
G04 #@! TD.AperFunction*
M02*
