G04 #@! TF.GenerationSoftware,KiCad,Pcbnew,7.0.2*
G04 #@! TF.CreationDate,2023-06-19T19:10:06-05:00*
G04 #@! TF.ProjectId,HankPropane2.0,48616e6b-5072-46f7-9061-6e65322e302e,rev?*
G04 #@! TF.SameCoordinates,Original*
G04 #@! TF.FileFunction,Legend,Bot*
G04 #@! TF.FilePolarity,Positive*
%FSLAX46Y46*%
G04 Gerber Fmt 4.6, Leading zero omitted, Abs format (unit mm)*
G04 Created by KiCad (PCBNEW 7.0.2) date 2023-06-19 19:10:06*
%MOMM*%
%LPD*%
G01*
G04 APERTURE LIST*
G04 Aperture macros list*
%AMRoundRect*
0 Rectangle with rounded corners*
0 $1 Rounding radius*
0 $2 $3 $4 $5 $6 $7 $8 $9 X,Y pos of 4 corners*
0 Add a 4 corners polygon primitive as box body*
4,1,4,$2,$3,$4,$5,$6,$7,$8,$9,$2,$3,0*
0 Add four circle primitives for the rounded corners*
1,1,$1+$1,$2,$3*
1,1,$1+$1,$4,$5*
1,1,$1+$1,$6,$7*
1,1,$1+$1,$8,$9*
0 Add four rect primitives between the rounded corners*
20,1,$1+$1,$2,$3,$4,$5,0*
20,1,$1+$1,$4,$5,$6,$7,0*
20,1,$1+$1,$6,$7,$8,$9,0*
20,1,$1+$1,$8,$9,$2,$3,0*%
%AMFreePoly0*
4,1,6,1.000000,0.000000,0.500000,-0.750000,-0.500000,-0.750000,-0.500000,0.750000,0.500000,0.750000,1.000000,0.000000,1.000000,0.000000,$1*%
%AMFreePoly1*
4,1,6,0.500000,-0.750000,-0.650000,-0.750000,-0.150000,0.000000,-0.650000,0.750000,0.500000,0.750000,0.500000,-0.750000,0.500000,-0.750000,$1*%
G04 Aperture macros list end*
%ADD10C,0.150000*%
%ADD11C,0.120000*%
%ADD12C,0.500000*%
%ADD13C,0.010000*%
%ADD14C,1.152495*%
%ADD15C,0.100000*%
%ADD16R,2.032000X1.524000*%
%ADD17R,2.095500X1.397000*%
%ADD18O,1.727200X1.727200*%
%ADD19R,1.727200X1.727200*%
%ADD20C,1.727200*%
%ADD21RoundRect,0.250000X0.350000X0.450000X-0.350000X0.450000X-0.350000X-0.450000X0.350000X-0.450000X0*%
%ADD22FreePoly0,0.000000*%
%ADD23FreePoly1,0.000000*%
%ADD24RoundRect,0.250000X-0.350000X-0.450000X0.350000X-0.450000X0.350000X0.450000X-0.350000X0.450000X0*%
%ADD25FreePoly0,180.000000*%
%ADD26FreePoly1,180.000000*%
G04 APERTURE END LIST*
D10*
X172653199Y-107445364D02*
X172403199Y-108195364D01*
X172403199Y-108195364D02*
X172153199Y-107445364D01*
X171474628Y-108123935D02*
X171510342Y-108159650D01*
X171510342Y-108159650D02*
X171617485Y-108195364D01*
X171617485Y-108195364D02*
X171688913Y-108195364D01*
X171688913Y-108195364D02*
X171796056Y-108159650D01*
X171796056Y-108159650D02*
X171867485Y-108088221D01*
X171867485Y-108088221D02*
X171903199Y-108016792D01*
X171903199Y-108016792D02*
X171938913Y-107873935D01*
X171938913Y-107873935D02*
X171938913Y-107766792D01*
X171938913Y-107766792D02*
X171903199Y-107623935D01*
X171903199Y-107623935D02*
X171867485Y-107552507D01*
X171867485Y-107552507D02*
X171796056Y-107481078D01*
X171796056Y-107481078D02*
X171688913Y-107445364D01*
X171688913Y-107445364D02*
X171617485Y-107445364D01*
X171617485Y-107445364D02*
X171510342Y-107481078D01*
X171510342Y-107481078D02*
X171474628Y-107516792D01*
X170724628Y-108123935D02*
X170760342Y-108159650D01*
X170760342Y-108159650D02*
X170867485Y-108195364D01*
X170867485Y-108195364D02*
X170938913Y-108195364D01*
X170938913Y-108195364D02*
X171046056Y-108159650D01*
X171046056Y-108159650D02*
X171117485Y-108088221D01*
X171117485Y-108088221D02*
X171153199Y-108016792D01*
X171153199Y-108016792D02*
X171188913Y-107873935D01*
X171188913Y-107873935D02*
X171188913Y-107766792D01*
X171188913Y-107766792D02*
X171153199Y-107623935D01*
X171153199Y-107623935D02*
X171117485Y-107552507D01*
X171117485Y-107552507D02*
X171046056Y-107481078D01*
X171046056Y-107481078D02*
X170938913Y-107445364D01*
X170938913Y-107445364D02*
X170867485Y-107445364D01*
X170867485Y-107445364D02*
X170760342Y-107481078D01*
X170760342Y-107481078D02*
X170724628Y-107516792D01*
X179415142Y-113094478D02*
X179486571Y-113058764D01*
X179486571Y-113058764D02*
X179593713Y-113058764D01*
X179593713Y-113058764D02*
X179700856Y-113094478D01*
X179700856Y-113094478D02*
X179772285Y-113165907D01*
X179772285Y-113165907D02*
X179807999Y-113237335D01*
X179807999Y-113237335D02*
X179843713Y-113380192D01*
X179843713Y-113380192D02*
X179843713Y-113487335D01*
X179843713Y-113487335D02*
X179807999Y-113630192D01*
X179807999Y-113630192D02*
X179772285Y-113701621D01*
X179772285Y-113701621D02*
X179700856Y-113773050D01*
X179700856Y-113773050D02*
X179593713Y-113808764D01*
X179593713Y-113808764D02*
X179522285Y-113808764D01*
X179522285Y-113808764D02*
X179415142Y-113773050D01*
X179415142Y-113773050D02*
X179379428Y-113737335D01*
X179379428Y-113737335D02*
X179379428Y-113487335D01*
X179379428Y-113487335D02*
X179522285Y-113487335D01*
X179057999Y-113808764D02*
X179057999Y-113058764D01*
X179057999Y-113058764D02*
X178772285Y-113058764D01*
X178772285Y-113058764D02*
X178700856Y-113094478D01*
X178700856Y-113094478D02*
X178665142Y-113130192D01*
X178665142Y-113130192D02*
X178629428Y-113201621D01*
X178629428Y-113201621D02*
X178629428Y-113308764D01*
X178629428Y-113308764D02*
X178665142Y-113380192D01*
X178665142Y-113380192D02*
X178700856Y-113415907D01*
X178700856Y-113415907D02*
X178772285Y-113451621D01*
X178772285Y-113451621D02*
X179057999Y-113451621D01*
X178307999Y-113808764D02*
X178307999Y-113058764D01*
X177807999Y-113058764D02*
X177665142Y-113058764D01*
X177665142Y-113058764D02*
X177593713Y-113094478D01*
X177593713Y-113094478D02*
X177522285Y-113165907D01*
X177522285Y-113165907D02*
X177486570Y-113308764D01*
X177486570Y-113308764D02*
X177486570Y-113558764D01*
X177486570Y-113558764D02*
X177522285Y-113701621D01*
X177522285Y-113701621D02*
X177593713Y-113773050D01*
X177593713Y-113773050D02*
X177665142Y-113808764D01*
X177665142Y-113808764D02*
X177807999Y-113808764D01*
X177807999Y-113808764D02*
X177879428Y-113773050D01*
X177879428Y-113773050D02*
X177950856Y-113701621D01*
X177950856Y-113701621D02*
X177986570Y-113558764D01*
X177986570Y-113558764D02*
X177986570Y-113308764D01*
X177986570Y-113308764D02*
X177950856Y-113165907D01*
X177950856Y-113165907D02*
X177879428Y-113094478D01*
X177879428Y-113094478D02*
X177807999Y-113058764D01*
X177200856Y-113130192D02*
X177165142Y-113094478D01*
X177165142Y-113094478D02*
X177093714Y-113058764D01*
X177093714Y-113058764D02*
X176915142Y-113058764D01*
X176915142Y-113058764D02*
X176843714Y-113094478D01*
X176843714Y-113094478D02*
X176807999Y-113130192D01*
X176807999Y-113130192D02*
X176772285Y-113201621D01*
X176772285Y-113201621D02*
X176772285Y-113273050D01*
X176772285Y-113273050D02*
X176807999Y-113380192D01*
X176807999Y-113380192D02*
X177236571Y-113808764D01*
X177236571Y-113808764D02*
X176772285Y-113808764D01*
X175086056Y-113798450D02*
X174978914Y-113834164D01*
X174978914Y-113834164D02*
X174800342Y-113834164D01*
X174800342Y-113834164D02*
X174728914Y-113798450D01*
X174728914Y-113798450D02*
X174693199Y-113762735D01*
X174693199Y-113762735D02*
X174657485Y-113691307D01*
X174657485Y-113691307D02*
X174657485Y-113619878D01*
X174657485Y-113619878D02*
X174693199Y-113548450D01*
X174693199Y-113548450D02*
X174728914Y-113512735D01*
X174728914Y-113512735D02*
X174800342Y-113477021D01*
X174800342Y-113477021D02*
X174943199Y-113441307D01*
X174943199Y-113441307D02*
X175014628Y-113405592D01*
X175014628Y-113405592D02*
X175050342Y-113369878D01*
X175050342Y-113369878D02*
X175086056Y-113298450D01*
X175086056Y-113298450D02*
X175086056Y-113227021D01*
X175086056Y-113227021D02*
X175050342Y-113155592D01*
X175050342Y-113155592D02*
X175014628Y-113119878D01*
X175014628Y-113119878D02*
X174943199Y-113084164D01*
X174943199Y-113084164D02*
X174764628Y-113084164D01*
X174764628Y-113084164D02*
X174657485Y-113119878D01*
X173907485Y-113762735D02*
X173943199Y-113798450D01*
X173943199Y-113798450D02*
X174050342Y-113834164D01*
X174050342Y-113834164D02*
X174121770Y-113834164D01*
X174121770Y-113834164D02*
X174228913Y-113798450D01*
X174228913Y-113798450D02*
X174300342Y-113727021D01*
X174300342Y-113727021D02*
X174336056Y-113655592D01*
X174336056Y-113655592D02*
X174371770Y-113512735D01*
X174371770Y-113512735D02*
X174371770Y-113405592D01*
X174371770Y-113405592D02*
X174336056Y-113262735D01*
X174336056Y-113262735D02*
X174300342Y-113191307D01*
X174300342Y-113191307D02*
X174228913Y-113119878D01*
X174228913Y-113119878D02*
X174121770Y-113084164D01*
X174121770Y-113084164D02*
X174050342Y-113084164D01*
X174050342Y-113084164D02*
X173943199Y-113119878D01*
X173943199Y-113119878D02*
X173907485Y-113155592D01*
X173228913Y-113834164D02*
X173586056Y-113834164D01*
X173586056Y-113834164D02*
X173586056Y-113084164D01*
X175357913Y-108134250D02*
X175250771Y-108169964D01*
X175250771Y-108169964D02*
X175072199Y-108169964D01*
X175072199Y-108169964D02*
X175000771Y-108134250D01*
X175000771Y-108134250D02*
X174965056Y-108098535D01*
X174965056Y-108098535D02*
X174929342Y-108027107D01*
X174929342Y-108027107D02*
X174929342Y-107955678D01*
X174929342Y-107955678D02*
X174965056Y-107884250D01*
X174965056Y-107884250D02*
X175000771Y-107848535D01*
X175000771Y-107848535D02*
X175072199Y-107812821D01*
X175072199Y-107812821D02*
X175215056Y-107777107D01*
X175215056Y-107777107D02*
X175286485Y-107741392D01*
X175286485Y-107741392D02*
X175322199Y-107705678D01*
X175322199Y-107705678D02*
X175357913Y-107634250D01*
X175357913Y-107634250D02*
X175357913Y-107562821D01*
X175357913Y-107562821D02*
X175322199Y-107491392D01*
X175322199Y-107491392D02*
X175286485Y-107455678D01*
X175286485Y-107455678D02*
X175215056Y-107419964D01*
X175215056Y-107419964D02*
X175036485Y-107419964D01*
X175036485Y-107419964D02*
X174929342Y-107455678D01*
X174607913Y-108169964D02*
X174607913Y-107419964D01*
X174607913Y-107419964D02*
X174429342Y-107419964D01*
X174429342Y-107419964D02*
X174322199Y-107455678D01*
X174322199Y-107455678D02*
X174250770Y-107527107D01*
X174250770Y-107527107D02*
X174215056Y-107598535D01*
X174215056Y-107598535D02*
X174179342Y-107741392D01*
X174179342Y-107741392D02*
X174179342Y-107848535D01*
X174179342Y-107848535D02*
X174215056Y-107991392D01*
X174215056Y-107991392D02*
X174250770Y-108062821D01*
X174250770Y-108062821D02*
X174322199Y-108134250D01*
X174322199Y-108134250D02*
X174429342Y-108169964D01*
X174429342Y-108169964D02*
X174607913Y-108169964D01*
X173893627Y-107955678D02*
X173536485Y-107955678D01*
X173965056Y-108169964D02*
X173715056Y-107419964D01*
X173715056Y-107419964D02*
X173465056Y-108169964D01*
X172275428Y-113119878D02*
X172346857Y-113084164D01*
X172346857Y-113084164D02*
X172453999Y-113084164D01*
X172453999Y-113084164D02*
X172561142Y-113119878D01*
X172561142Y-113119878D02*
X172632571Y-113191307D01*
X172632571Y-113191307D02*
X172668285Y-113262735D01*
X172668285Y-113262735D02*
X172703999Y-113405592D01*
X172703999Y-113405592D02*
X172703999Y-113512735D01*
X172703999Y-113512735D02*
X172668285Y-113655592D01*
X172668285Y-113655592D02*
X172632571Y-113727021D01*
X172632571Y-113727021D02*
X172561142Y-113798450D01*
X172561142Y-113798450D02*
X172453999Y-113834164D01*
X172453999Y-113834164D02*
X172382571Y-113834164D01*
X172382571Y-113834164D02*
X172275428Y-113798450D01*
X172275428Y-113798450D02*
X172239714Y-113762735D01*
X172239714Y-113762735D02*
X172239714Y-113512735D01*
X172239714Y-113512735D02*
X172382571Y-113512735D01*
X171918285Y-113834164D02*
X171918285Y-113084164D01*
X171918285Y-113084164D02*
X171489714Y-113834164D01*
X171489714Y-113834164D02*
X171489714Y-113084164D01*
X171132571Y-113834164D02*
X171132571Y-113084164D01*
X171132571Y-113084164D02*
X170954000Y-113084164D01*
X170954000Y-113084164D02*
X170846857Y-113119878D01*
X170846857Y-113119878D02*
X170775428Y-113191307D01*
X170775428Y-113191307D02*
X170739714Y-113262735D01*
X170739714Y-113262735D02*
X170704000Y-113405592D01*
X170704000Y-113405592D02*
X170704000Y-113512735D01*
X170704000Y-113512735D02*
X170739714Y-113655592D01*
X170739714Y-113655592D02*
X170775428Y-113727021D01*
X170775428Y-113727021D02*
X170846857Y-113798450D01*
X170846857Y-113798450D02*
X170954000Y-113834164D01*
X170954000Y-113834164D02*
X171132571Y-113834164D01*
X179237342Y-107455678D02*
X179308771Y-107419964D01*
X179308771Y-107419964D02*
X179415913Y-107419964D01*
X179415913Y-107419964D02*
X179523056Y-107455678D01*
X179523056Y-107455678D02*
X179594485Y-107527107D01*
X179594485Y-107527107D02*
X179630199Y-107598535D01*
X179630199Y-107598535D02*
X179665913Y-107741392D01*
X179665913Y-107741392D02*
X179665913Y-107848535D01*
X179665913Y-107848535D02*
X179630199Y-107991392D01*
X179630199Y-107991392D02*
X179594485Y-108062821D01*
X179594485Y-108062821D02*
X179523056Y-108134250D01*
X179523056Y-108134250D02*
X179415913Y-108169964D01*
X179415913Y-108169964D02*
X179344485Y-108169964D01*
X179344485Y-108169964D02*
X179237342Y-108134250D01*
X179237342Y-108134250D02*
X179201628Y-108098535D01*
X179201628Y-108098535D02*
X179201628Y-107848535D01*
X179201628Y-107848535D02*
X179344485Y-107848535D01*
X178880199Y-108169964D02*
X178880199Y-107419964D01*
X178880199Y-107419964D02*
X178594485Y-107419964D01*
X178594485Y-107419964D02*
X178523056Y-107455678D01*
X178523056Y-107455678D02*
X178487342Y-107491392D01*
X178487342Y-107491392D02*
X178451628Y-107562821D01*
X178451628Y-107562821D02*
X178451628Y-107669964D01*
X178451628Y-107669964D02*
X178487342Y-107741392D01*
X178487342Y-107741392D02*
X178523056Y-107777107D01*
X178523056Y-107777107D02*
X178594485Y-107812821D01*
X178594485Y-107812821D02*
X178880199Y-107812821D01*
X178130199Y-108169964D02*
X178130199Y-107419964D01*
X177630199Y-107419964D02*
X177487342Y-107419964D01*
X177487342Y-107419964D02*
X177415913Y-107455678D01*
X177415913Y-107455678D02*
X177344485Y-107527107D01*
X177344485Y-107527107D02*
X177308770Y-107669964D01*
X177308770Y-107669964D02*
X177308770Y-107919964D01*
X177308770Y-107919964D02*
X177344485Y-108062821D01*
X177344485Y-108062821D02*
X177415913Y-108134250D01*
X177415913Y-108134250D02*
X177487342Y-108169964D01*
X177487342Y-108169964D02*
X177630199Y-108169964D01*
X177630199Y-108169964D02*
X177701628Y-108134250D01*
X177701628Y-108134250D02*
X177773056Y-108062821D01*
X177773056Y-108062821D02*
X177808770Y-107919964D01*
X177808770Y-107919964D02*
X177808770Y-107669964D01*
X177808770Y-107669964D02*
X177773056Y-107527107D01*
X177773056Y-107527107D02*
X177701628Y-107455678D01*
X177701628Y-107455678D02*
X177630199Y-107419964D01*
X176594485Y-108169964D02*
X177023056Y-108169964D01*
X176808771Y-108169964D02*
X176808771Y-107419964D01*
X176808771Y-107419964D02*
X176880199Y-107527107D01*
X176880199Y-107527107D02*
X176951628Y-107598535D01*
X176951628Y-107598535D02*
X177023056Y-107634250D01*
X180246089Y-96157699D02*
X180579422Y-95681508D01*
X180817517Y-96157699D02*
X180817517Y-95157699D01*
X180817517Y-95157699D02*
X180436565Y-95157699D01*
X180436565Y-95157699D02*
X180341327Y-95205318D01*
X180341327Y-95205318D02*
X180293708Y-95252937D01*
X180293708Y-95252937D02*
X180246089Y-95348175D01*
X180246089Y-95348175D02*
X180246089Y-95491032D01*
X180246089Y-95491032D02*
X180293708Y-95586270D01*
X180293708Y-95586270D02*
X180341327Y-95633889D01*
X180341327Y-95633889D02*
X180436565Y-95681508D01*
X180436565Y-95681508D02*
X180817517Y-95681508D01*
X179865136Y-95252937D02*
X179817517Y-95205318D01*
X179817517Y-95205318D02*
X179722279Y-95157699D01*
X179722279Y-95157699D02*
X179484184Y-95157699D01*
X179484184Y-95157699D02*
X179388946Y-95205318D01*
X179388946Y-95205318D02*
X179341327Y-95252937D01*
X179341327Y-95252937D02*
X179293708Y-95348175D01*
X179293708Y-95348175D02*
X179293708Y-95443413D01*
X179293708Y-95443413D02*
X179341327Y-95586270D01*
X179341327Y-95586270D02*
X179912755Y-96157699D01*
X179912755Y-96157699D02*
X179293708Y-96157699D01*
X186372404Y-88896906D02*
X186372404Y-89611191D01*
X186372404Y-89611191D02*
X186420023Y-89754048D01*
X186420023Y-89754048D02*
X186515261Y-89849287D01*
X186515261Y-89849287D02*
X186658118Y-89896906D01*
X186658118Y-89896906D02*
X186753356Y-89896906D01*
X185896213Y-89896906D02*
X185896213Y-88896906D01*
X185896213Y-88896906D02*
X185515261Y-88896906D01*
X185515261Y-88896906D02*
X185420023Y-88944525D01*
X185420023Y-88944525D02*
X185372404Y-88992144D01*
X185372404Y-88992144D02*
X185324785Y-89087382D01*
X185324785Y-89087382D02*
X185324785Y-89230239D01*
X185324785Y-89230239D02*
X185372404Y-89325477D01*
X185372404Y-89325477D02*
X185420023Y-89373096D01*
X185420023Y-89373096D02*
X185515261Y-89420715D01*
X185515261Y-89420715D02*
X185896213Y-89420715D01*
X184372404Y-89896906D02*
X184943832Y-89896906D01*
X184658118Y-89896906D02*
X184658118Y-88896906D01*
X184658118Y-88896906D02*
X184753356Y-89039763D01*
X184753356Y-89039763D02*
X184848594Y-89135001D01*
X184848594Y-89135001D02*
X184943832Y-89182620D01*
X185201505Y-96092619D02*
X185534838Y-95616428D01*
X185772933Y-96092619D02*
X185772933Y-95092619D01*
X185772933Y-95092619D02*
X185391981Y-95092619D01*
X185391981Y-95092619D02*
X185296743Y-95140238D01*
X185296743Y-95140238D02*
X185249124Y-95187857D01*
X185249124Y-95187857D02*
X185201505Y-95283095D01*
X185201505Y-95283095D02*
X185201505Y-95425952D01*
X185201505Y-95425952D02*
X185249124Y-95521190D01*
X185249124Y-95521190D02*
X185296743Y-95568809D01*
X185296743Y-95568809D02*
X185391981Y-95616428D01*
X185391981Y-95616428D02*
X185772933Y-95616428D01*
X184249124Y-96092619D02*
X184820552Y-96092619D01*
X184534838Y-96092619D02*
X184534838Y-95092619D01*
X184534838Y-95092619D02*
X184630076Y-95235476D01*
X184630076Y-95235476D02*
X184725314Y-95330714D01*
X184725314Y-95330714D02*
X184820552Y-95378333D01*
X181173333Y-89102619D02*
X181173333Y-89816904D01*
X181173333Y-89816904D02*
X181220952Y-89959761D01*
X181220952Y-89959761D02*
X181316190Y-90055000D01*
X181316190Y-90055000D02*
X181459047Y-90102619D01*
X181459047Y-90102619D02*
X181554285Y-90102619D01*
X180697142Y-90102619D02*
X180697142Y-89102619D01*
X180697142Y-89102619D02*
X180316190Y-89102619D01*
X180316190Y-89102619D02*
X180220952Y-89150238D01*
X180220952Y-89150238D02*
X180173333Y-89197857D01*
X180173333Y-89197857D02*
X180125714Y-89293095D01*
X180125714Y-89293095D02*
X180125714Y-89435952D01*
X180125714Y-89435952D02*
X180173333Y-89531190D01*
X180173333Y-89531190D02*
X180220952Y-89578809D01*
X180220952Y-89578809D02*
X180316190Y-89626428D01*
X180316190Y-89626428D02*
X180697142Y-89626428D01*
X179744761Y-89197857D02*
X179697142Y-89150238D01*
X179697142Y-89150238D02*
X179601904Y-89102619D01*
X179601904Y-89102619D02*
X179363809Y-89102619D01*
X179363809Y-89102619D02*
X179268571Y-89150238D01*
X179268571Y-89150238D02*
X179220952Y-89197857D01*
X179220952Y-89197857D02*
X179173333Y-89293095D01*
X179173333Y-89293095D02*
X179173333Y-89388333D01*
X179173333Y-89388333D02*
X179220952Y-89531190D01*
X179220952Y-89531190D02*
X179792380Y-90102619D01*
X179792380Y-90102619D02*
X179173333Y-90102619D01*
D11*
X189749000Y-94697800D02*
X189749000Y-95647800D01*
X188087000Y-92557600D02*
X188595000Y-92557600D01*
X188341000Y-92303600D02*
X188341000Y-92786200D01*
X188849000Y-91897200D02*
X188849000Y-92608400D01*
X188315600Y-91871800D02*
X188849000Y-90398600D01*
X189382400Y-91871800D02*
X188315600Y-91871800D01*
X188264800Y-90373200D02*
X189433200Y-90373200D01*
X188874400Y-90373200D02*
X189382400Y-91871800D01*
X188874400Y-90373200D02*
X188874400Y-89763600D01*
X188441000Y-89560400D02*
X188441000Y-90043000D01*
X187971236Y-95629143D02*
G75*
G03*
X187949000Y-97747799I877764J-1068657D01*
G01*
X189726765Y-97766458D02*
G75*
G03*
X189749000Y-95647800I-877764J1068658D01*
G01*
D12*
X167868600Y-107086400D02*
X167868600Y-114198400D01*
X167868600Y-114198400D02*
X181203600Y-114198400D01*
X172313600Y-106451400D02*
X172313600Y-106959400D01*
X172313600Y-106832400D02*
X176631600Y-106832400D01*
X176631600Y-106451400D02*
X172313600Y-106451400D01*
X176631600Y-106959400D02*
X176631600Y-106451400D01*
X181076600Y-107086400D02*
X167868600Y-107086400D01*
X181203600Y-114198400D02*
X181203600Y-107086400D01*
X167361604Y-106375200D02*
G75*
G03*
X167361604Y-106375200I-128004J0D01*
G01*
D11*
X177353800Y-94774000D02*
X177353800Y-95724000D01*
X175691800Y-92633800D02*
X176199800Y-92633800D01*
X175945800Y-92379800D02*
X175945800Y-92862400D01*
X176453800Y-91973400D02*
X176453800Y-92684600D01*
X175920400Y-91948000D02*
X176453800Y-90474800D01*
X176987200Y-91948000D02*
X175920400Y-91948000D01*
X175869600Y-90449400D02*
X177038000Y-90449400D01*
X176479200Y-90449400D02*
X176987200Y-91948000D01*
X176479200Y-90449400D02*
X176479200Y-89839800D01*
X176045800Y-89636600D02*
X176045800Y-90119200D01*
X175576036Y-95705343D02*
G75*
G03*
X175553800Y-97823999I877764J-1068657D01*
G01*
X177331565Y-97842658D02*
G75*
G03*
X177353800Y-95724000I-877764J1068658D01*
G01*
D13*
X182665381Y-82257385D02*
X182667309Y-82309176D01*
X182649143Y-82339800D01*
X182596375Y-82353955D01*
X182494501Y-82356337D01*
X182329015Y-82351644D01*
X182084784Y-82343591D01*
X182084784Y-82555560D01*
X182082717Y-82640165D01*
X182073260Y-82742795D01*
X182058733Y-82793580D01*
X182042506Y-82807171D01*
X182008322Y-82814674D01*
X181955674Y-82794425D01*
X181870135Y-82739703D01*
X181737281Y-82643785D01*
X181714860Y-82627342D01*
X181601753Y-82546423D01*
X181517517Y-82489469D01*
X181478982Y-82467939D01*
X181477310Y-82468416D01*
X181464715Y-82509588D01*
X181459554Y-82596892D01*
X181459541Y-82599950D01*
X181445692Y-82702828D01*
X181413591Y-82771809D01*
X181364150Y-82799246D01*
X181312500Y-82770265D01*
X181277226Y-82679892D01*
X181264169Y-82537297D01*
X181264169Y-82342686D01*
X181004907Y-82356466D01*
X180933107Y-82359618D01*
X180812840Y-82357872D01*
X180742897Y-82340791D01*
X180704327Y-82305137D01*
X180684098Y-82254381D01*
X180686002Y-82249457D01*
X181528919Y-82249457D01*
X181640775Y-82341091D01*
X181749884Y-82428180D01*
X181828737Y-82476349D01*
X181870356Y-82465891D01*
X181886618Y-82392553D01*
X181889400Y-82252084D01*
X181888815Y-82137022D01*
X181879178Y-82050850D01*
X181846949Y-82028429D01*
X181778529Y-82063742D01*
X181660313Y-82150775D01*
X181528919Y-82249457D01*
X180686002Y-82249457D01*
X180712897Y-82179916D01*
X180722023Y-82170065D01*
X180774458Y-82142086D01*
X180864364Y-82133878D01*
X181011364Y-82143017D01*
X181259944Y-82166230D01*
X181271826Y-81936084D01*
X181277483Y-81848124D01*
X181291394Y-81757259D01*
X181317198Y-81715800D01*
X181361861Y-81705939D01*
X181406484Y-81715827D01*
X181439726Y-81765445D01*
X181459554Y-81874188D01*
X181479092Y-82042438D01*
X181723628Y-81860355D01*
X181749688Y-81841096D01*
X181892848Y-81744647D01*
X181989491Y-81704706D01*
X182048063Y-81723213D01*
X182077012Y-81802110D01*
X182084784Y-81943336D01*
X182084784Y-82163647D01*
X182651400Y-82135785D01*
X182663765Y-82243246D01*
X182664776Y-82252084D01*
X182665381Y-82257385D01*
G36*
X182665381Y-82257385D02*
G01*
X182667309Y-82309176D01*
X182649143Y-82339800D01*
X182596375Y-82353955D01*
X182494501Y-82356337D01*
X182329015Y-82351644D01*
X182084784Y-82343591D01*
X182084784Y-82555560D01*
X182082717Y-82640165D01*
X182073260Y-82742795D01*
X182058733Y-82793580D01*
X182042506Y-82807171D01*
X182008322Y-82814674D01*
X181955674Y-82794425D01*
X181870135Y-82739703D01*
X181737281Y-82643785D01*
X181714860Y-82627342D01*
X181601753Y-82546423D01*
X181517517Y-82489469D01*
X181478982Y-82467939D01*
X181477310Y-82468416D01*
X181464715Y-82509588D01*
X181459554Y-82596892D01*
X181459541Y-82599950D01*
X181445692Y-82702828D01*
X181413591Y-82771809D01*
X181364150Y-82799246D01*
X181312500Y-82770265D01*
X181277226Y-82679892D01*
X181264169Y-82537297D01*
X181264169Y-82342686D01*
X181004907Y-82356466D01*
X180933107Y-82359618D01*
X180812840Y-82357872D01*
X180742897Y-82340791D01*
X180704327Y-82305137D01*
X180684098Y-82254381D01*
X180686002Y-82249457D01*
X181528919Y-82249457D01*
X181640775Y-82341091D01*
X181749884Y-82428180D01*
X181828737Y-82476349D01*
X181870356Y-82465891D01*
X181886618Y-82392553D01*
X181889400Y-82252084D01*
X181888815Y-82137022D01*
X181879178Y-82050850D01*
X181846949Y-82028429D01*
X181778529Y-82063742D01*
X181660313Y-82150775D01*
X181528919Y-82249457D01*
X180686002Y-82249457D01*
X180712897Y-82179916D01*
X180722023Y-82170065D01*
X180774458Y-82142086D01*
X180864364Y-82133878D01*
X181011364Y-82143017D01*
X181259944Y-82166230D01*
X181271826Y-81936084D01*
X181277483Y-81848124D01*
X181291394Y-81757259D01*
X181317198Y-81715800D01*
X181361861Y-81705939D01*
X181406484Y-81715827D01*
X181439726Y-81765445D01*
X181459554Y-81874188D01*
X181479092Y-82042438D01*
X181723628Y-81860355D01*
X181749688Y-81841096D01*
X181892848Y-81744647D01*
X181989491Y-81704706D01*
X182048063Y-81723213D01*
X182077012Y-81802110D01*
X182084784Y-81943336D01*
X182084784Y-82163647D01*
X182651400Y-82135785D01*
X182663765Y-82243246D01*
X182664776Y-82252084D01*
X182665381Y-82257385D01*
G37*
X180719094Y-78312113D02*
X180647593Y-78414924D01*
X180569448Y-78527290D01*
X180555640Y-78547145D01*
X180463527Y-78675296D01*
X180419829Y-78736092D01*
X180373397Y-78800691D01*
X180317270Y-78876542D01*
X180205108Y-79028120D01*
X180178202Y-79064482D01*
X180146897Y-79105605D01*
X180014535Y-79279485D01*
X179975893Y-79330248D01*
X179859528Y-79478554D01*
X179828706Y-79517837D01*
X179772305Y-79589720D01*
X179735620Y-79634862D01*
X179624474Y-79771631D01*
X179573277Y-79834631D01*
X179540974Y-79872922D01*
X179507803Y-79912243D01*
X179477309Y-79947136D01*
X179369473Y-80070533D01*
X179212178Y-80245046D01*
X179044806Y-80426477D01*
X178876249Y-80605524D01*
X178715393Y-80772880D01*
X178571130Y-80919243D01*
X178452348Y-81035307D01*
X178367936Y-81111768D01*
X178326783Y-81139323D01*
X178318811Y-81136646D01*
X178264049Y-81094623D01*
X178176658Y-81012190D01*
X178071470Y-80903070D01*
X178059815Y-80890601D01*
X177927477Y-80761175D01*
X177789161Y-80643312D01*
X177672994Y-80561147D01*
X177598083Y-80519717D01*
X177513779Y-80485455D01*
X177417852Y-80466064D01*
X177288139Y-80457440D01*
X177102477Y-80455477D01*
X176930443Y-80456997D01*
X176796375Y-80464915D01*
X176695441Y-80483800D01*
X176604165Y-80518210D01*
X176499075Y-80572708D01*
X176402694Y-80632180D01*
X176242904Y-80749689D01*
X176147307Y-80833760D01*
X176104872Y-80871079D01*
X176070263Y-80910189D01*
X175957519Y-81037597D01*
X175760568Y-81344452D01*
X175642974Y-81627785D01*
X175620007Y-81683124D01*
X175540018Y-82038757D01*
X175524780Y-82396493D01*
X175548066Y-82546092D01*
X175578477Y-82741477D01*
X175595576Y-82805636D01*
X175625615Y-82940491D01*
X175623980Y-83032439D01*
X175581192Y-83101102D01*
X175487774Y-83166099D01*
X175334246Y-83247051D01*
X175138429Y-83341058D01*
X175000804Y-83392321D01*
X174920629Y-83400432D01*
X174894631Y-83366280D01*
X174879608Y-83337776D01*
X174820222Y-83261050D01*
X174726184Y-83152084D01*
X174608761Y-83024356D01*
X174525728Y-82935210D01*
X174402257Y-82797945D01*
X174300880Y-82679697D01*
X174237763Y-82599002D01*
X174207889Y-82546092D01*
X174386631Y-82546092D01*
X174387766Y-82555433D01*
X174425708Y-82585169D01*
X174435048Y-82584034D01*
X174464784Y-82546092D01*
X174463649Y-82536752D01*
X174425708Y-82507016D01*
X174416367Y-82508151D01*
X174386631Y-82546092D01*
X174207889Y-82546092D01*
X174170715Y-82480252D01*
X174089873Y-82236032D01*
X174047532Y-81941318D01*
X174046129Y-81627785D01*
X174191246Y-81627785D01*
X174210784Y-81647323D01*
X174230323Y-81627785D01*
X174210784Y-81608246D01*
X174191246Y-81627785D01*
X174046129Y-81627785D01*
X174046042Y-81608246D01*
X174051582Y-81527405D01*
X174064875Y-81398564D01*
X174315389Y-81398564D01*
X174347554Y-81412862D01*
X174368241Y-81410042D01*
X174373605Y-81386810D01*
X174367878Y-81382134D01*
X174321502Y-81386810D01*
X174315389Y-81398564D01*
X174064875Y-81398564D01*
X174071825Y-81331202D01*
X174464784Y-81331202D01*
X174470685Y-81378183D01*
X174479687Y-81386810D01*
X174510462Y-81416307D01*
X174582315Y-81393066D01*
X174679873Y-81311466D01*
X174796768Y-81174512D01*
X174804726Y-81164002D01*
X174895056Y-81035599D01*
X174942923Y-80949212D01*
X174947523Y-80910189D01*
X174908051Y-80923880D01*
X174823700Y-80995634D01*
X174804288Y-81013719D01*
X174727409Y-81075811D01*
X174677569Y-81101546D01*
X174643135Y-81110460D01*
X174562887Y-81167461D01*
X174494019Y-81251206D01*
X174464784Y-81331202D01*
X174071825Y-81331202D01*
X174072105Y-81328489D01*
X174100570Y-81131863D01*
X174133956Y-80952634D01*
X174154844Y-80865785D01*
X174699246Y-80865785D01*
X174700474Y-80889758D01*
X174718599Y-80899906D01*
X174777400Y-80865785D01*
X174784885Y-80860889D01*
X174812882Y-80833760D01*
X174767631Y-80827306D01*
X174731466Y-80832941D01*
X174699246Y-80865785D01*
X174154844Y-80865785D01*
X174169245Y-80805909D01*
X174203417Y-80706795D01*
X174233455Y-80670400D01*
X174256454Y-80648862D01*
X174269400Y-80577958D01*
X174270096Y-80567362D01*
X174293343Y-80478619D01*
X174342913Y-80349804D01*
X174409771Y-80204931D01*
X174455753Y-80115675D01*
X174519097Y-80008939D01*
X174564578Y-79961544D01*
X174598981Y-79964881D01*
X174650759Y-79988400D01*
X174655745Y-79982955D01*
X176968622Y-79982955D01*
X176996799Y-79980877D01*
X177019276Y-79968129D01*
X178477502Y-79968129D01*
X178479189Y-80008509D01*
X178541928Y-80056924D01*
X178599663Y-80091146D01*
X178641577Y-80089305D01*
X178675959Y-80030070D01*
X178681318Y-80017879D01*
X178693327Y-79947136D01*
X178646090Y-79897977D01*
X178641187Y-79894977D01*
X178575427Y-79877790D01*
X178512058Y-79924831D01*
X178477502Y-79968129D01*
X177019276Y-79968129D01*
X177060609Y-79944686D01*
X177105142Y-79905250D01*
X177119101Y-79872922D01*
X177090923Y-79875000D01*
X177027114Y-79911191D01*
X176982581Y-79950628D01*
X176968622Y-79982955D01*
X174655745Y-79982955D01*
X174681922Y-79954371D01*
X174675240Y-79865435D01*
X174674488Y-79862128D01*
X174691249Y-79766483D01*
X174699920Y-79751307D01*
X175137441Y-79751307D01*
X175142118Y-79797682D01*
X175153871Y-79803796D01*
X175168169Y-79771631D01*
X175165349Y-79750944D01*
X175142118Y-79745580D01*
X175137441Y-79751307D01*
X174699920Y-79751307D01*
X174770804Y-79627251D01*
X174811363Y-79575163D01*
X177166906Y-79575163D01*
X177196660Y-79630633D01*
X177245511Y-79678171D01*
X177298746Y-79682592D01*
X177325185Y-79634862D01*
X179427554Y-79634862D01*
X179447092Y-79654400D01*
X179466631Y-79634862D01*
X179447092Y-79615323D01*
X179427554Y-79634862D01*
X177325185Y-79634862D01*
X177338187Y-79611390D01*
X177340433Y-79603945D01*
X177342643Y-79517837D01*
X177297310Y-79483584D01*
X177219082Y-79513256D01*
X177199589Y-79528195D01*
X177166906Y-79575163D01*
X174811363Y-79575163D01*
X174886590Y-79478554D01*
X174933708Y-79478554D01*
X174953246Y-79498092D01*
X174972784Y-79478554D01*
X174953246Y-79459016D01*
X174933708Y-79478554D01*
X174886590Y-79478554D01*
X174912103Y-79445789D01*
X175019581Y-79327487D01*
X176660004Y-79327487D01*
X176692169Y-79341785D01*
X176712856Y-79338965D01*
X176716169Y-79324617D01*
X177520279Y-79324617D01*
X177528586Y-79337854D01*
X177590938Y-79302708D01*
X177618423Y-79279485D01*
X177603014Y-79264229D01*
X177589392Y-79265555D01*
X177532323Y-79302708D01*
X177525162Y-79315733D01*
X177520279Y-79324617D01*
X176716169Y-79324617D01*
X176718220Y-79315733D01*
X176712493Y-79311057D01*
X176666118Y-79315733D01*
X176660004Y-79327487D01*
X175019581Y-79327487D01*
X175114094Y-79223455D01*
X175216726Y-79120736D01*
X178975156Y-79120736D01*
X178991603Y-79162165D01*
X179008768Y-79168327D01*
X179057536Y-79144438D01*
X179070291Y-79105605D01*
X179046187Y-79073366D01*
X178993651Y-79095749D01*
X178975156Y-79120736D01*
X175216726Y-79120736D01*
X175265057Y-79072364D01*
X177715584Y-79072364D01*
X177742053Y-79111221D01*
X177807044Y-79116328D01*
X177883552Y-79083291D01*
X177891213Y-79077578D01*
X177933471Y-79028120D01*
X177910147Y-78981055D01*
X177845870Y-78959816D01*
X177769909Y-78988821D01*
X177718613Y-79056454D01*
X177715584Y-79072364D01*
X175265057Y-79072364D01*
X175375724Y-78961604D01*
X175414478Y-78925773D01*
X179525368Y-78925773D01*
X179543163Y-78969552D01*
X179569002Y-78973383D01*
X179608503Y-78932269D01*
X179621043Y-78876542D01*
X179600142Y-78849338D01*
X179548455Y-78887977D01*
X179525368Y-78925773D01*
X175414478Y-78925773D01*
X175542973Y-78806968D01*
X175632179Y-78736092D01*
X179622938Y-78736092D01*
X179642477Y-78755631D01*
X179662015Y-78736092D01*
X179642477Y-78716554D01*
X179622938Y-78736092D01*
X175632179Y-78736092D01*
X175730545Y-78657939D01*
X176418631Y-78657939D01*
X176419765Y-78673511D01*
X176452023Y-78715337D01*
X176508748Y-78691565D01*
X176518649Y-78675296D01*
X176506429Y-78625179D01*
X176455401Y-78599323D01*
X176438508Y-78605918D01*
X176418631Y-78657939D01*
X175730545Y-78657939D01*
X175853025Y-78560627D01*
X179127132Y-78560627D01*
X179159750Y-78603694D01*
X179219578Y-78630180D01*
X179308555Y-78629895D01*
X179363531Y-78579785D01*
X179375420Y-78527290D01*
X179353767Y-78448966D01*
X179348756Y-78445669D01*
X179915650Y-78445669D01*
X179932829Y-78485215D01*
X179990059Y-78494689D01*
X180060086Y-78466670D01*
X180065472Y-78462659D01*
X180101551Y-78414924D01*
X180073362Y-78353353D01*
X180068329Y-78346653D01*
X180025579Y-78313222D01*
X179981540Y-78338398D01*
X179922324Y-78429152D01*
X179915650Y-78445669D01*
X179348756Y-78445669D01*
X179293401Y-78409247D01*
X179218028Y-78418492D01*
X179151356Y-78487062D01*
X179149935Y-78489733D01*
X179127132Y-78560627D01*
X175853025Y-78560627D01*
X176004034Y-78440648D01*
X176349722Y-78220356D01*
X176934350Y-78220356D01*
X176960468Y-78291060D01*
X177017114Y-78304107D01*
X177100047Y-78244669D01*
X177120944Y-78220959D01*
X177139710Y-78169477D01*
X180287246Y-78169477D01*
X180287694Y-78178320D01*
X180304478Y-78208554D01*
X180310747Y-78206756D01*
X180345861Y-78169477D01*
X180351967Y-78154340D01*
X180328629Y-78130400D01*
X180317287Y-78131902D01*
X180301297Y-78151902D01*
X180287246Y-78169477D01*
X177139710Y-78169477D01*
X177146117Y-78151902D01*
X177106521Y-78112669D01*
X177011829Y-78117235D01*
X176951522Y-78148251D01*
X176934350Y-78220356D01*
X176349722Y-78220356D01*
X176499315Y-78125027D01*
X177013816Y-77869009D01*
X177532538Y-77681496D01*
X177784992Y-77609780D01*
X178005270Y-77553245D01*
X178203245Y-77511906D01*
X178399007Y-77482795D01*
X178612647Y-77462947D01*
X178864258Y-77449396D01*
X179173930Y-77439175D01*
X179210234Y-77438178D01*
X179476279Y-77431709D01*
X179684234Y-77429471D01*
X179851983Y-77432584D01*
X179997409Y-77442171D01*
X180138396Y-77459351D01*
X180292826Y-77485248D01*
X180478582Y-77520981D01*
X180598640Y-77544821D01*
X180789231Y-77583801D01*
X180919909Y-77613638D01*
X181001939Y-77638055D01*
X181046585Y-77660772D01*
X181065112Y-77685513D01*
X181068785Y-77715999D01*
X181068289Y-77722494D01*
X181038357Y-77800784D01*
X180966290Y-77930663D01*
X180857923Y-78103863D01*
X180824272Y-78154340D01*
X180719094Y-78312113D01*
G36*
X180719094Y-78312113D02*
G01*
X180647593Y-78414924D01*
X180569448Y-78527290D01*
X180555640Y-78547145D01*
X180463527Y-78675296D01*
X180419829Y-78736092D01*
X180373397Y-78800691D01*
X180317270Y-78876542D01*
X180205108Y-79028120D01*
X180178202Y-79064482D01*
X180146897Y-79105605D01*
X180014535Y-79279485D01*
X179975893Y-79330248D01*
X179859528Y-79478554D01*
X179828706Y-79517837D01*
X179772305Y-79589720D01*
X179735620Y-79634862D01*
X179624474Y-79771631D01*
X179573277Y-79834631D01*
X179540974Y-79872922D01*
X179507803Y-79912243D01*
X179477309Y-79947136D01*
X179369473Y-80070533D01*
X179212178Y-80245046D01*
X179044806Y-80426477D01*
X178876249Y-80605524D01*
X178715393Y-80772880D01*
X178571130Y-80919243D01*
X178452348Y-81035307D01*
X178367936Y-81111768D01*
X178326783Y-81139323D01*
X178318811Y-81136646D01*
X178264049Y-81094623D01*
X178176658Y-81012190D01*
X178071470Y-80903070D01*
X178059815Y-80890601D01*
X177927477Y-80761175D01*
X177789161Y-80643312D01*
X177672994Y-80561147D01*
X177598083Y-80519717D01*
X177513779Y-80485455D01*
X177417852Y-80466064D01*
X177288139Y-80457440D01*
X177102477Y-80455477D01*
X176930443Y-80456997D01*
X176796375Y-80464915D01*
X176695441Y-80483800D01*
X176604165Y-80518210D01*
X176499075Y-80572708D01*
X176402694Y-80632180D01*
X176242904Y-80749689D01*
X176147307Y-80833760D01*
X176104872Y-80871079D01*
X176070263Y-80910189D01*
X175957519Y-81037597D01*
X175760568Y-81344452D01*
X175642974Y-81627785D01*
X175620007Y-81683124D01*
X175540018Y-82038757D01*
X175524780Y-82396493D01*
X175548066Y-82546092D01*
X175578477Y-82741477D01*
X175595576Y-82805636D01*
X175625615Y-82940491D01*
X175623980Y-83032439D01*
X175581192Y-83101102D01*
X175487774Y-83166099D01*
X175334246Y-83247051D01*
X175138429Y-83341058D01*
X175000804Y-83392321D01*
X174920629Y-83400432D01*
X174894631Y-83366280D01*
X174879608Y-83337776D01*
X174820222Y-83261050D01*
X174726184Y-83152084D01*
X174608761Y-83024356D01*
X174525728Y-82935210D01*
X174402257Y-82797945D01*
X174300880Y-82679697D01*
X174237763Y-82599002D01*
X174207889Y-82546092D01*
X174386631Y-82546092D01*
X174387766Y-82555433D01*
X174425708Y-82585169D01*
X174435048Y-82584034D01*
X174464784Y-82546092D01*
X174463649Y-82536752D01*
X174425708Y-82507016D01*
X174416367Y-82508151D01*
X174386631Y-82546092D01*
X174207889Y-82546092D01*
X174170715Y-82480252D01*
X174089873Y-82236032D01*
X174047532Y-81941318D01*
X174046129Y-81627785D01*
X174191246Y-81627785D01*
X174210784Y-81647323D01*
X174230323Y-81627785D01*
X174210784Y-81608246D01*
X174191246Y-81627785D01*
X174046129Y-81627785D01*
X174046042Y-81608246D01*
X174051582Y-81527405D01*
X174064875Y-81398564D01*
X174315389Y-81398564D01*
X174347554Y-81412862D01*
X174368241Y-81410042D01*
X174373605Y-81386810D01*
X174367878Y-81382134D01*
X174321502Y-81386810D01*
X174315389Y-81398564D01*
X174064875Y-81398564D01*
X174071825Y-81331202D01*
X174464784Y-81331202D01*
X174470685Y-81378183D01*
X174479687Y-81386810D01*
X174510462Y-81416307D01*
X174582315Y-81393066D01*
X174679873Y-81311466D01*
X174796768Y-81174512D01*
X174804726Y-81164002D01*
X174895056Y-81035599D01*
X174942923Y-80949212D01*
X174947523Y-80910189D01*
X174908051Y-80923880D01*
X174823700Y-80995634D01*
X174804288Y-81013719D01*
X174727409Y-81075811D01*
X174677569Y-81101546D01*
X174643135Y-81110460D01*
X174562887Y-81167461D01*
X174494019Y-81251206D01*
X174464784Y-81331202D01*
X174071825Y-81331202D01*
X174072105Y-81328489D01*
X174100570Y-81131863D01*
X174133956Y-80952634D01*
X174154844Y-80865785D01*
X174699246Y-80865785D01*
X174700474Y-80889758D01*
X174718599Y-80899906D01*
X174777400Y-80865785D01*
X174784885Y-80860889D01*
X174812882Y-80833760D01*
X174767631Y-80827306D01*
X174731466Y-80832941D01*
X174699246Y-80865785D01*
X174154844Y-80865785D01*
X174169245Y-80805909D01*
X174203417Y-80706795D01*
X174233455Y-80670400D01*
X174256454Y-80648862D01*
X174269400Y-80577958D01*
X174270096Y-80567362D01*
X174293343Y-80478619D01*
X174342913Y-80349804D01*
X174409771Y-80204931D01*
X174455753Y-80115675D01*
X174519097Y-80008939D01*
X174564578Y-79961544D01*
X174598981Y-79964881D01*
X174650759Y-79988400D01*
X174655745Y-79982955D01*
X176968622Y-79982955D01*
X176996799Y-79980877D01*
X177019276Y-79968129D01*
X178477502Y-79968129D01*
X178479189Y-80008509D01*
X178541928Y-80056924D01*
X178599663Y-80091146D01*
X178641577Y-80089305D01*
X178675959Y-80030070D01*
X178681318Y-80017879D01*
X178693327Y-79947136D01*
X178646090Y-79897977D01*
X178641187Y-79894977D01*
X178575427Y-79877790D01*
X178512058Y-79924831D01*
X178477502Y-79968129D01*
X177019276Y-79968129D01*
X177060609Y-79944686D01*
X177105142Y-79905250D01*
X177119101Y-79872922D01*
X177090923Y-79875000D01*
X177027114Y-79911191D01*
X176982581Y-79950628D01*
X176968622Y-79982955D01*
X174655745Y-79982955D01*
X174681922Y-79954371D01*
X174675240Y-79865435D01*
X174674488Y-79862128D01*
X174691249Y-79766483D01*
X174699920Y-79751307D01*
X175137441Y-79751307D01*
X175142118Y-79797682D01*
X175153871Y-79803796D01*
X175168169Y-79771631D01*
X175165349Y-79750944D01*
X175142118Y-79745580D01*
X175137441Y-79751307D01*
X174699920Y-79751307D01*
X174770804Y-79627251D01*
X174811363Y-79575163D01*
X177166906Y-79575163D01*
X177196660Y-79630633D01*
X177245511Y-79678171D01*
X177298746Y-79682592D01*
X177325185Y-79634862D01*
X179427554Y-79634862D01*
X179447092Y-79654400D01*
X179466631Y-79634862D01*
X179447092Y-79615323D01*
X179427554Y-79634862D01*
X177325185Y-79634862D01*
X177338187Y-79611390D01*
X177340433Y-79603945D01*
X177342643Y-79517837D01*
X177297310Y-79483584D01*
X177219082Y-79513256D01*
X177199589Y-79528195D01*
X177166906Y-79575163D01*
X174811363Y-79575163D01*
X174886590Y-79478554D01*
X174933708Y-79478554D01*
X174953246Y-79498092D01*
X174972784Y-79478554D01*
X174953246Y-79459016D01*
X174933708Y-79478554D01*
X174886590Y-79478554D01*
X174912103Y-79445789D01*
X175019581Y-79327487D01*
X176660004Y-79327487D01*
X176692169Y-79341785D01*
X176712856Y-79338965D01*
X176716169Y-79324617D01*
X177520279Y-79324617D01*
X177528586Y-79337854D01*
X177590938Y-79302708D01*
X177618423Y-79279485D01*
X177603014Y-79264229D01*
X177589392Y-79265555D01*
X177532323Y-79302708D01*
X177525162Y-79315733D01*
X177520279Y-79324617D01*
X176716169Y-79324617D01*
X176718220Y-79315733D01*
X176712493Y-79311057D01*
X176666118Y-79315733D01*
X176660004Y-79327487D01*
X175019581Y-79327487D01*
X175114094Y-79223455D01*
X175216726Y-79120736D01*
X178975156Y-79120736D01*
X178991603Y-79162165D01*
X179008768Y-79168327D01*
X179057536Y-79144438D01*
X179070291Y-79105605D01*
X179046187Y-79073366D01*
X178993651Y-79095749D01*
X178975156Y-79120736D01*
X175216726Y-79120736D01*
X175265057Y-79072364D01*
X177715584Y-79072364D01*
X177742053Y-79111221D01*
X177807044Y-79116328D01*
X177883552Y-79083291D01*
X177891213Y-79077578D01*
X177933471Y-79028120D01*
X177910147Y-78981055D01*
X177845870Y-78959816D01*
X177769909Y-78988821D01*
X177718613Y-79056454D01*
X177715584Y-79072364D01*
X175265057Y-79072364D01*
X175375724Y-78961604D01*
X175414478Y-78925773D01*
X179525368Y-78925773D01*
X179543163Y-78969552D01*
X179569002Y-78973383D01*
X179608503Y-78932269D01*
X179621043Y-78876542D01*
X179600142Y-78849338D01*
X179548455Y-78887977D01*
X179525368Y-78925773D01*
X175414478Y-78925773D01*
X175542973Y-78806968D01*
X175632179Y-78736092D01*
X179622938Y-78736092D01*
X179642477Y-78755631D01*
X179662015Y-78736092D01*
X179642477Y-78716554D01*
X179622938Y-78736092D01*
X175632179Y-78736092D01*
X175730545Y-78657939D01*
X176418631Y-78657939D01*
X176419765Y-78673511D01*
X176452023Y-78715337D01*
X176508748Y-78691565D01*
X176518649Y-78675296D01*
X176506429Y-78625179D01*
X176455401Y-78599323D01*
X176438508Y-78605918D01*
X176418631Y-78657939D01*
X175730545Y-78657939D01*
X175853025Y-78560627D01*
X179127132Y-78560627D01*
X179159750Y-78603694D01*
X179219578Y-78630180D01*
X179308555Y-78629895D01*
X179363531Y-78579785D01*
X179375420Y-78527290D01*
X179353767Y-78448966D01*
X179348756Y-78445669D01*
X179915650Y-78445669D01*
X179932829Y-78485215D01*
X179990059Y-78494689D01*
X180060086Y-78466670D01*
X180065472Y-78462659D01*
X180101551Y-78414924D01*
X180073362Y-78353353D01*
X180068329Y-78346653D01*
X180025579Y-78313222D01*
X179981540Y-78338398D01*
X179922324Y-78429152D01*
X179915650Y-78445669D01*
X179348756Y-78445669D01*
X179293401Y-78409247D01*
X179218028Y-78418492D01*
X179151356Y-78487062D01*
X179149935Y-78489733D01*
X179127132Y-78560627D01*
X175853025Y-78560627D01*
X176004034Y-78440648D01*
X176349722Y-78220356D01*
X176934350Y-78220356D01*
X176960468Y-78291060D01*
X177017114Y-78304107D01*
X177100047Y-78244669D01*
X177120944Y-78220959D01*
X177139710Y-78169477D01*
X180287246Y-78169477D01*
X180287694Y-78178320D01*
X180304478Y-78208554D01*
X180310747Y-78206756D01*
X180345861Y-78169477D01*
X180351967Y-78154340D01*
X180328629Y-78130400D01*
X180317287Y-78131902D01*
X180301297Y-78151902D01*
X180287246Y-78169477D01*
X177139710Y-78169477D01*
X177146117Y-78151902D01*
X177106521Y-78112669D01*
X177011829Y-78117235D01*
X176951522Y-78148251D01*
X176934350Y-78220356D01*
X176349722Y-78220356D01*
X176499315Y-78125027D01*
X177013816Y-77869009D01*
X177532538Y-77681496D01*
X177784992Y-77609780D01*
X178005270Y-77553245D01*
X178203245Y-77511906D01*
X178399007Y-77482795D01*
X178612647Y-77462947D01*
X178864258Y-77449396D01*
X179173930Y-77439175D01*
X179210234Y-77438178D01*
X179476279Y-77431709D01*
X179684234Y-77429471D01*
X179851983Y-77432584D01*
X179997409Y-77442171D01*
X180138396Y-77459351D01*
X180292826Y-77485248D01*
X180478582Y-77520981D01*
X180598640Y-77544821D01*
X180789231Y-77583801D01*
X180919909Y-77613638D01*
X181001939Y-77638055D01*
X181046585Y-77660772D01*
X181065112Y-77685513D01*
X181068785Y-77715999D01*
X181068289Y-77722494D01*
X181038357Y-77800784D01*
X180966290Y-77930663D01*
X180857923Y-78103863D01*
X180824272Y-78154340D01*
X180719094Y-78312113D01*
G37*
X182767205Y-78496584D02*
X182933113Y-78625906D01*
X183236902Y-78896438D01*
X183395886Y-79060017D01*
X183529298Y-79197286D01*
X183795772Y-79511940D01*
X183881960Y-79630894D01*
X184021794Y-79823889D01*
X184128254Y-80006092D01*
X184192835Y-80116622D01*
X184231992Y-80200021D01*
X184238140Y-80214503D01*
X184306940Y-80376566D01*
X184386482Y-80579983D01*
X184456382Y-80774023D01*
X184458870Y-80780930D01*
X184465631Y-80800740D01*
X184520862Y-80967345D01*
X184558720Y-81100499D01*
X184582549Y-81222523D01*
X184593618Y-81334708D01*
X184595692Y-81355736D01*
X184598360Y-81432400D01*
X184601494Y-81522461D01*
X184603297Y-81745016D01*
X184603575Y-81824951D01*
X184602548Y-81991118D01*
X184600346Y-82035548D01*
X184595477Y-82133845D01*
X184578704Y-82254836D01*
X184577802Y-82261343D01*
X184544966Y-82381823D01*
X184492409Y-82503496D01*
X184415572Y-82634573D01*
X184353481Y-82721939D01*
X184309898Y-82783265D01*
X184270537Y-82832657D01*
X184170826Y-82957783D01*
X184021662Y-83133509D01*
X183993797Y-83166337D01*
X183774254Y-83417140D01*
X183507637Y-83718400D01*
X183469474Y-83761710D01*
X183289296Y-83976860D01*
X183258353Y-84013809D01*
X183188700Y-84109169D01*
X183102317Y-84227434D01*
X183093867Y-84239003D01*
X182964120Y-84456909D01*
X182935334Y-84518904D01*
X182857219Y-84687144D01*
X182761268Y-84949323D01*
X182754791Y-84968862D01*
X182754569Y-84969534D01*
X182723126Y-85066554D01*
X182705214Y-85121826D01*
X182698638Y-85144708D01*
X182669198Y-85247160D01*
X182644094Y-85363053D01*
X182627473Y-85487021D01*
X182624050Y-85535477D01*
X182617976Y-85621480D01*
X182616910Y-85636583D01*
X182611233Y-85794324D01*
X182609977Y-85829255D01*
X182604246Y-86082554D01*
X182604142Y-86086955D01*
X182603947Y-86095216D01*
X182599486Y-86284534D01*
X182593041Y-86497108D01*
X182586115Y-86674319D01*
X182579275Y-86801906D01*
X182573089Y-86865609D01*
X182570580Y-86872308D01*
X182520352Y-86926360D01*
X182419083Y-87004987D01*
X182282120Y-87098492D01*
X182124808Y-87197177D01*
X181962495Y-87291344D01*
X181810525Y-87371294D01*
X181684246Y-87427329D01*
X181576784Y-87467850D01*
X181576784Y-86996031D01*
X181576198Y-86906300D01*
X181564045Y-86644565D01*
X181532983Y-86449883D01*
X181478814Y-86314562D01*
X181397339Y-86230909D01*
X181284359Y-86191233D01*
X181135676Y-86187842D01*
X181115417Y-86189422D01*
X181014954Y-86207538D01*
X180952631Y-86254708D01*
X180896206Y-86353196D01*
X180884486Y-86378812D01*
X180857395Y-86458694D01*
X180836916Y-86562347D01*
X180821384Y-86703366D01*
X180809138Y-86895348D01*
X180798513Y-87151887D01*
X180775708Y-87797167D01*
X180638938Y-87832913D01*
X180565605Y-87851274D01*
X180420940Y-87885517D01*
X180267708Y-87920115D01*
X180164703Y-87940194D01*
X180002093Y-87964079D01*
X179870916Y-87974678D01*
X179708587Y-87977785D01*
X179695070Y-87438659D01*
X179688680Y-87237601D01*
X179678430Y-87062055D01*
X179663530Y-86938948D01*
X179642203Y-86854396D01*
X179612675Y-86794511D01*
X179553726Y-86725886D01*
X179431078Y-86660860D01*
X179295885Y-86659848D01*
X179166078Y-86721262D01*
X179059588Y-86843512D01*
X179058256Y-86845803D01*
X179024613Y-86914644D01*
X179002053Y-86994584D01*
X178988426Y-87102374D01*
X178981582Y-87254771D01*
X178979370Y-87468528D01*
X178978169Y-87958246D01*
X178821861Y-87968213D01*
X178769932Y-87967878D01*
X178632460Y-87954277D01*
X178458939Y-87927127D01*
X178274784Y-87890059D01*
X177884015Y-87801939D01*
X177883146Y-87157169D01*
X177882384Y-86981340D01*
X177878832Y-86776553D01*
X177871313Y-86627681D01*
X177858621Y-86521439D01*
X177839549Y-86444547D01*
X177812890Y-86383721D01*
X177786793Y-86349098D01*
X180365400Y-86349098D01*
X180365401Y-86349537D01*
X180387900Y-86375536D01*
X180452035Y-86340315D01*
X180553806Y-86246062D01*
X180592125Y-86204335D01*
X180646301Y-86132917D01*
X180658113Y-86095216D01*
X180653724Y-86093613D01*
X180607703Y-86115612D01*
X180534195Y-86170952D01*
X180454864Y-86240841D01*
X180391377Y-86306487D01*
X180365400Y-86349098D01*
X177786793Y-86349098D01*
X177742103Y-86289809D01*
X177615851Y-86208554D01*
X177473691Y-86183135D01*
X177370157Y-86207950D01*
X177336104Y-86216112D01*
X177223571Y-86310048D01*
X177208566Y-86331393D01*
X177178761Y-86388574D01*
X177158074Y-86463403D01*
X177144229Y-86571008D01*
X177134947Y-86726514D01*
X177127950Y-86945048D01*
X177119887Y-87166496D01*
X177107399Y-87337432D01*
X177090685Y-87437305D01*
X177069335Y-87469779D01*
X177068106Y-87469708D01*
X177014775Y-87449336D01*
X176909302Y-87397891D01*
X176766385Y-87322843D01*
X176600724Y-87231661D01*
X176505694Y-87177583D01*
X176342271Y-87078792D01*
X176232293Y-87000599D01*
X176163995Y-86934054D01*
X176125610Y-86870205D01*
X176124919Y-86868526D01*
X176102171Y-86774539D01*
X176086475Y-86619141D01*
X176077465Y-86396827D01*
X176075557Y-86187573D01*
X176701124Y-86187573D01*
X176709948Y-86206857D01*
X176763449Y-86248033D01*
X176821611Y-86233163D01*
X176841295Y-86207950D01*
X176837362Y-86160074D01*
X176767067Y-86141169D01*
X176720386Y-86150702D01*
X176701124Y-86187573D01*
X176075557Y-86187573D01*
X176074777Y-86102092D01*
X177630015Y-86102092D01*
X177630463Y-86110936D01*
X177647248Y-86141169D01*
X177653516Y-86139371D01*
X177688631Y-86102092D01*
X177694737Y-86086955D01*
X177671398Y-86063016D01*
X177660056Y-86064517D01*
X177630015Y-86102092D01*
X176074777Y-86102092D01*
X176073284Y-85932092D01*
X180446739Y-85932092D01*
X180461485Y-85982262D01*
X180481753Y-86001941D01*
X180553321Y-86022696D01*
X180579092Y-86021279D01*
X180593004Y-86006842D01*
X180544099Y-85964484D01*
X180531695Y-85957188D01*
X180786660Y-85957188D01*
X180828747Y-86006842D01*
X180851011Y-86033109D01*
X180881835Y-86051778D01*
X180919836Y-86054540D01*
X180971709Y-86022048D01*
X181059015Y-85945190D01*
X181145388Y-85858120D01*
X181178708Y-85794324D01*
X181144597Y-85760393D01*
X181042554Y-85750400D01*
X180951394Y-85760464D01*
X180846591Y-85806490D01*
X180812206Y-85848092D01*
X180788433Y-85876856D01*
X180786660Y-85957188D01*
X180531695Y-85957188D01*
X180483185Y-85928655D01*
X180446739Y-85932092D01*
X176073284Y-85932092D01*
X176072706Y-85866287D01*
X176071872Y-85848092D01*
X177590938Y-85848092D01*
X177610477Y-85867631D01*
X177630015Y-85848092D01*
X177610477Y-85828554D01*
X177590938Y-85848092D01*
X176071872Y-85848092D01*
X176056687Y-85516853D01*
X176051847Y-85475884D01*
X176814737Y-85475884D01*
X176823912Y-85530968D01*
X176887554Y-85555016D01*
X176932979Y-85562343D01*
X176965708Y-85594092D01*
X176966843Y-85603433D01*
X177004784Y-85633169D01*
X177022040Y-85632751D01*
X177040031Y-85621480D01*
X177033241Y-85578692D01*
X177018713Y-85535477D01*
X181498631Y-85535477D01*
X181518169Y-85555016D01*
X181537708Y-85535477D01*
X181518169Y-85515939D01*
X181498631Y-85535477D01*
X177018713Y-85535477D01*
X177001159Y-85483258D01*
X176975812Y-85420313D01*
X176938975Y-85384230D01*
X176883928Y-85400648D01*
X176860630Y-85415355D01*
X176814737Y-85475884D01*
X176051847Y-85475884D01*
X176021248Y-85216854D01*
X176005331Y-85144708D01*
X177004784Y-85144708D01*
X177024323Y-85164246D01*
X177043861Y-85144708D01*
X182006631Y-85144708D01*
X182026169Y-85164246D01*
X182045708Y-85144708D01*
X182026169Y-85125169D01*
X182006631Y-85144708D01*
X177043861Y-85144708D01*
X177024323Y-85125169D01*
X177004784Y-85144708D01*
X176005331Y-85144708D01*
X175997218Y-85107937D01*
X180482631Y-85107937D01*
X180483647Y-85111837D01*
X180521708Y-85125169D01*
X180532418Y-85123579D01*
X180560784Y-85083786D01*
X180557716Y-85069652D01*
X180521708Y-85066554D01*
X180510013Y-85074574D01*
X180482631Y-85107937D01*
X175997218Y-85107937D01*
X175978706Y-85024028D01*
X181076487Y-85024028D01*
X181105656Y-85068329D01*
X181168557Y-85079474D01*
X181208944Y-85066554D01*
X181889400Y-85066554D01*
X181906632Y-85083786D01*
X181908938Y-85086092D01*
X181928477Y-85066554D01*
X181908938Y-85047016D01*
X181889400Y-85066554D01*
X181208944Y-85066554D01*
X181235377Y-85058098D01*
X181276302Y-85004840D01*
X181282596Y-84973616D01*
X181271287Y-84948538D01*
X182054056Y-84948538D01*
X182056586Y-84973616D01*
X182058733Y-84994913D01*
X182070487Y-85001026D01*
X182084784Y-84968862D01*
X182081964Y-84948174D01*
X182058733Y-84942810D01*
X182054056Y-84948538D01*
X181271287Y-84948538D01*
X181266360Y-84937613D01*
X181193062Y-84937253D01*
X181120574Y-84960734D01*
X181077683Y-85009085D01*
X181076487Y-85024028D01*
X175978706Y-85024028D01*
X175962122Y-84948862D01*
X175875042Y-84695446D01*
X175805590Y-84546258D01*
X176838352Y-84546258D01*
X176917362Y-84625269D01*
X176930144Y-84636762D01*
X177030340Y-84694492D01*
X177152542Y-84732837D01*
X177247337Y-84746243D01*
X177292423Y-84736933D01*
X177296507Y-84699051D01*
X177291326Y-84669788D01*
X177281313Y-84588762D01*
X177253440Y-84539020D01*
X177183608Y-84478758D01*
X177128683Y-84448792D01*
X178810816Y-84448792D01*
X178846241Y-84589390D01*
X178915918Y-84699051D01*
X178927434Y-84717177D01*
X179055687Y-84845830D01*
X179177350Y-84926534D01*
X179347166Y-84969613D01*
X179513959Y-84943453D01*
X179662867Y-84851135D01*
X179779031Y-84695745D01*
X179824422Y-84585957D01*
X179851264Y-84421835D01*
X180698532Y-84421835D01*
X180704427Y-84484220D01*
X180708316Y-84492564D01*
X180753903Y-84530929D01*
X180808114Y-84536909D01*
X180834323Y-84504723D01*
X180833825Y-84498571D01*
X180809474Y-84457574D01*
X181694015Y-84457574D01*
X181713374Y-84504723D01*
X181718917Y-84518224D01*
X181791883Y-84572880D01*
X181879631Y-84587175D01*
X181950222Y-84563806D01*
X181957992Y-84518904D01*
X181895051Y-84446437D01*
X181872499Y-84429887D01*
X181794845Y-84405548D01*
X181724599Y-84415373D01*
X181694015Y-84457574D01*
X180809474Y-84457574D01*
X180803272Y-84447133D01*
X180749498Y-84407721D01*
X180706420Y-84406406D01*
X180703410Y-84412293D01*
X180698532Y-84421835D01*
X179851264Y-84421835D01*
X179852825Y-84412293D01*
X179845287Y-84335950D01*
X180912718Y-84335950D01*
X180940256Y-84343631D01*
X180975146Y-84330110D01*
X181034692Y-84275246D01*
X181060785Y-84241038D01*
X181063313Y-84227434D01*
X181010169Y-84264189D01*
X180956446Y-84303390D01*
X180915733Y-84332573D01*
X180912718Y-84335950D01*
X179845287Y-84335950D01*
X179833113Y-84212643D01*
X179798410Y-84088845D01*
X182874672Y-84088845D01*
X182879349Y-84135221D01*
X182891102Y-84141334D01*
X182905400Y-84109169D01*
X182902580Y-84088482D01*
X182879349Y-84083118D01*
X182874672Y-84088845D01*
X179798410Y-84088845D01*
X179770598Y-83989632D01*
X180404477Y-83989632D01*
X180408511Y-84011275D01*
X180448007Y-84050882D01*
X180496719Y-84042979D01*
X180507328Y-84030812D01*
X180516985Y-83976860D01*
X180463092Y-83952862D01*
X180436162Y-83956999D01*
X180404477Y-83989632D01*
X179770598Y-83989632D01*
X179764948Y-83969475D01*
X179662680Y-83692102D01*
X179612546Y-83581631D01*
X180209092Y-83581631D01*
X180228631Y-83601169D01*
X180248169Y-83581631D01*
X180228631Y-83562092D01*
X180209092Y-83581631D01*
X179612546Y-83581631D01*
X179560764Y-83467527D01*
X179465039Y-83315291D01*
X179373781Y-83232691D01*
X179285266Y-83217021D01*
X179279968Y-83218129D01*
X179242456Y-83233852D01*
X179206102Y-83269949D01*
X179165280Y-83337015D01*
X179114363Y-83445646D01*
X179047724Y-83606437D01*
X178959735Y-83829983D01*
X178872099Y-84074454D01*
X178819866Y-84281705D01*
X178815453Y-84363169D01*
X178810816Y-84448792D01*
X177128683Y-84448792D01*
X177115701Y-84441709D01*
X177053642Y-84441394D01*
X176963623Y-84481478D01*
X176838352Y-84546258D01*
X175805590Y-84546258D01*
X175755740Y-84439176D01*
X175712923Y-84363169D01*
X176965708Y-84363169D01*
X176985246Y-84382708D01*
X177004784Y-84363169D01*
X176985246Y-84343631D01*
X176965708Y-84363169D01*
X175712923Y-84363169D01*
X175599950Y-84162623D01*
X175479653Y-83962076D01*
X175777874Y-83820451D01*
X176076096Y-83678827D01*
X176279575Y-83795246D01*
X176291100Y-83801786D01*
X176572716Y-83925820D01*
X176850132Y-83975652D01*
X177134972Y-83953430D01*
X177336741Y-83900882D01*
X177647053Y-83759721D01*
X177914046Y-83555506D01*
X178135845Y-83290682D01*
X178310578Y-82967693D01*
X178436373Y-82588984D01*
X178511356Y-82156998D01*
X178515801Y-82116493D01*
X178534980Y-81992227D01*
X178539283Y-81980918D01*
X180158926Y-81980918D01*
X180165252Y-82323038D01*
X180225060Y-82643785D01*
X180268153Y-82773402D01*
X180402592Y-83060536D01*
X180578708Y-83328196D01*
X180784443Y-83561780D01*
X180808415Y-83581631D01*
X181007737Y-83746689D01*
X181236528Y-83868320D01*
X181553869Y-83953293D01*
X181859936Y-83964308D01*
X182148133Y-83899281D01*
X182417804Y-83758360D01*
X182464002Y-83718400D01*
X183257092Y-83718400D01*
X183263705Y-83736377D01*
X183315708Y-83757477D01*
X183342672Y-83753068D01*
X183374323Y-83718400D01*
X183367710Y-83700424D01*
X183315708Y-83679323D01*
X183288743Y-83683732D01*
X183257092Y-83718400D01*
X182464002Y-83718400D01*
X182668295Y-83541694D01*
X182703434Y-83503797D01*
X182875482Y-83283496D01*
X182933297Y-83171195D01*
X183395319Y-83171195D01*
X183400638Y-83207809D01*
X183431416Y-83173787D01*
X183431590Y-83173510D01*
X183484791Y-83150343D01*
X183575755Y-83152850D01*
X183636575Y-83156740D01*
X183679418Y-83133509D01*
X183659593Y-83087943D01*
X183576949Y-83035057D01*
X183525453Y-82996719D01*
X183488916Y-82898288D01*
X183483390Y-82868902D01*
X183464480Y-82896204D01*
X183458657Y-82915017D01*
X183433756Y-82995477D01*
X183423761Y-83034554D01*
X183415416Y-83067187D01*
X183395319Y-83171195D01*
X182933297Y-83171195D01*
X182995667Y-83050046D01*
X183000413Y-83034554D01*
X183296169Y-83034554D01*
X183315708Y-83054092D01*
X183335246Y-83034554D01*
X183315708Y-83015016D01*
X183296169Y-83034554D01*
X183000413Y-83034554D01*
X183029632Y-82939168D01*
X183296169Y-82939168D01*
X183297288Y-82947892D01*
X183335246Y-82975939D01*
X183353921Y-82968483D01*
X183374323Y-82915017D01*
X183368700Y-82887105D01*
X183335246Y-82878246D01*
X183324574Y-82886245D01*
X183296169Y-82939168D01*
X183029632Y-82939168D01*
X183058659Y-82844410D01*
X183732927Y-82844410D01*
X183765092Y-82858708D01*
X183785779Y-82855888D01*
X183791143Y-82832657D01*
X183785416Y-82827980D01*
X183739041Y-82832657D01*
X183732927Y-82844410D01*
X183058659Y-82844410D01*
X183080835Y-82772015D01*
X183091108Y-82721939D01*
X183491554Y-82721939D01*
X183511092Y-82741477D01*
X183530631Y-82721939D01*
X183511092Y-82702400D01*
X183491554Y-82721939D01*
X183091108Y-82721939D01*
X183106240Y-82648181D01*
X183137674Y-82254836D01*
X183117816Y-82073165D01*
X183461788Y-82073165D01*
X183462943Y-82159741D01*
X183469849Y-82194400D01*
X183492684Y-82163001D01*
X183508693Y-82086994D01*
X183512856Y-82000847D01*
X183505473Y-81962483D01*
X184204519Y-81962483D01*
X184214477Y-81999016D01*
X184215748Y-82000847D01*
X184222505Y-82010583D01*
X184258166Y-82038092D01*
X184263511Y-82035548D01*
X184253554Y-81999016D01*
X184245525Y-81987448D01*
X184209864Y-81959939D01*
X184204519Y-81962483D01*
X183505473Y-81962483D01*
X183500967Y-81939069D01*
X183492154Y-81926995D01*
X183472845Y-81944143D01*
X183462845Y-82038239D01*
X183461788Y-82073165D01*
X183117816Y-82073165D01*
X183095668Y-81870552D01*
X182982760Y-81504529D01*
X182916978Y-81381666D01*
X183103739Y-81381666D01*
X183123954Y-81452274D01*
X183143200Y-81492889D01*
X183168296Y-81508612D01*
X183206407Y-81456124D01*
X183214018Y-81443558D01*
X183223730Y-81412862D01*
X183843246Y-81412862D01*
X183849859Y-81430838D01*
X183901861Y-81451939D01*
X183928826Y-81447530D01*
X183942639Y-81432400D01*
X183999554Y-81432400D01*
X184019092Y-81451939D01*
X184038631Y-81432400D01*
X184019092Y-81412862D01*
X183999554Y-81432400D01*
X183942639Y-81432400D01*
X183960477Y-81412862D01*
X183953864Y-81394885D01*
X183901861Y-81373785D01*
X183874897Y-81378193D01*
X183866328Y-81387578D01*
X183843246Y-81412862D01*
X183223730Y-81412862D01*
X183231729Y-81387578D01*
X183191045Y-81356802D01*
X183157200Y-81347552D01*
X183108591Y-81352952D01*
X183103739Y-81381666D01*
X182916978Y-81381666D01*
X182891836Y-81334708D01*
X183393861Y-81334708D01*
X183401860Y-81345380D01*
X183454783Y-81373785D01*
X183463507Y-81372666D01*
X183491554Y-81334708D01*
X183484098Y-81316033D01*
X183430632Y-81295631D01*
X183402720Y-81301254D01*
X183393861Y-81334708D01*
X182891836Y-81334708D01*
X182801489Y-81165965D01*
X182554393Y-80864057D01*
X182547106Y-80856778D01*
X182481387Y-80803470D01*
X183861243Y-80803470D01*
X183861727Y-80864073D01*
X183871133Y-80877368D01*
X183930686Y-80901479D01*
X184009408Y-80850348D01*
X184063303Y-80820343D01*
X184168507Y-80815826D01*
X184178377Y-80817621D01*
X184252042Y-80816819D01*
X184273092Y-80774023D01*
X184267738Y-80741624D01*
X184218154Y-80680874D01*
X184143140Y-80659995D01*
X184076158Y-80692245D01*
X184075550Y-80692538D01*
X184039305Y-80722625D01*
X183976612Y-80733117D01*
X183967678Y-80730560D01*
X183905966Y-80748244D01*
X183861243Y-80803470D01*
X182481387Y-80803470D01*
X182343166Y-80691353D01*
X183394538Y-80691353D01*
X183435137Y-80724452D01*
X183484403Y-80741826D01*
X183523213Y-80739798D01*
X183530631Y-80692245D01*
X183521721Y-80645125D01*
X183476972Y-80612242D01*
X183416830Y-80646728D01*
X183394538Y-80691353D01*
X182343166Y-80691353D01*
X182284669Y-80643903D01*
X182003027Y-80500871D01*
X181711355Y-80426831D01*
X181418828Y-80420932D01*
X181134621Y-80482324D01*
X180867908Y-80610154D01*
X180627864Y-80803571D01*
X180423665Y-81061725D01*
X180295650Y-81320802D01*
X180203316Y-81639487D01*
X180158926Y-81980918D01*
X178539283Y-81980918D01*
X178568020Y-81905393D01*
X178630261Y-81826774D01*
X178737044Y-81727152D01*
X178892207Y-81583587D01*
X179126780Y-81353809D01*
X179381327Y-81093099D01*
X179640241Y-80818103D01*
X179887912Y-80545469D01*
X180108732Y-80291847D01*
X180162405Y-80226256D01*
X183029543Y-80226256D01*
X183061708Y-80240554D01*
X183082395Y-80237734D01*
X183087759Y-80214503D01*
X183082031Y-80209826D01*
X183035656Y-80214503D01*
X183029543Y-80226256D01*
X180162405Y-80226256D01*
X180287092Y-80073883D01*
X180303077Y-80053694D01*
X180386752Y-79957874D01*
X180449424Y-79902200D01*
X180478567Y-79898169D01*
X180533037Y-79971607D01*
X180629169Y-80005494D01*
X180656119Y-79985769D01*
X180881749Y-79985769D01*
X180886426Y-80032144D01*
X180898179Y-80038257D01*
X180912477Y-80006092D01*
X180909657Y-79985405D01*
X180886426Y-79980041D01*
X180881749Y-79985769D01*
X180656119Y-79985769D01*
X180666656Y-79978057D01*
X180676677Y-79909935D01*
X180658884Y-79833062D01*
X180615249Y-79779466D01*
X180603990Y-79770709D01*
X180596549Y-79740194D01*
X180616370Y-79686002D01*
X180668752Y-79598722D01*
X180709322Y-79540376D01*
X183022631Y-79540376D01*
X183022698Y-79541737D01*
X183052452Y-79547903D01*
X183120021Y-79514235D01*
X183189494Y-79482533D01*
X183266834Y-79473882D01*
X183316226Y-79493909D01*
X183314232Y-79539557D01*
X183298571Y-79555312D01*
X183236458Y-79561695D01*
X183208437Y-79557882D01*
X183145304Y-79589226D01*
X183134319Y-79610549D01*
X183163367Y-79630822D01*
X183259678Y-79636638D01*
X183292266Y-79636507D01*
X183378720Y-79634518D01*
X183413400Y-79630894D01*
X183411122Y-79622836D01*
X183390805Y-79562283D01*
X183356275Y-79463240D01*
X183343398Y-79423148D01*
X183319556Y-79311040D01*
X183320149Y-79233635D01*
X183328099Y-79207325D01*
X183329227Y-79187723D01*
X183297178Y-79234323D01*
X183246124Y-79277837D01*
X183152901Y-79302708D01*
X183126339Y-79303423D01*
X183072588Y-79322667D01*
X183073020Y-79380823D01*
X183078256Y-79430280D01*
X183058039Y-79480821D01*
X183050868Y-79486035D01*
X183022631Y-79540376D01*
X180709322Y-79540376D01*
X180758992Y-79468944D01*
X180892391Y-79287258D01*
X181035166Y-79090091D01*
X181107861Y-79090091D01*
X181108242Y-79095554D01*
X181130862Y-79104159D01*
X181170208Y-79062209D01*
X181179716Y-79040371D01*
X181152976Y-79044976D01*
X181135617Y-79057039D01*
X181107861Y-79090091D01*
X181035166Y-79090091D01*
X181042130Y-79080474D01*
X181200244Y-78853323D01*
X181264169Y-78853323D01*
X181283708Y-78872862D01*
X181303246Y-78853323D01*
X181283708Y-78833785D01*
X181264169Y-78853323D01*
X181200244Y-78853323D01*
X181209246Y-78840391D01*
X181280378Y-78734562D01*
X182702172Y-78734562D01*
X182707573Y-78768819D01*
X182726579Y-78795358D01*
X182742406Y-78853323D01*
X182749092Y-78877815D01*
X182749730Y-78884996D01*
X182789572Y-78947899D01*
X182872327Y-79006769D01*
X182909894Y-79024895D01*
X182950063Y-79040371D01*
X183007247Y-79062403D01*
X183048791Y-79060017D01*
X183029051Y-79017367D01*
X183009367Y-78977643D01*
X183006599Y-78890367D01*
X183012334Y-78859378D01*
X182991679Y-78761908D01*
X182914660Y-78705075D01*
X182795330Y-78701445D01*
X182768075Y-78707415D01*
X182702172Y-78734562D01*
X181280378Y-78734562D01*
X181369291Y-78602280D01*
X181446525Y-78482092D01*
X182377861Y-78482092D01*
X182385882Y-78493787D01*
X182419245Y-78521169D01*
X182423144Y-78520153D01*
X182436477Y-78482092D01*
X182434887Y-78471382D01*
X182395094Y-78443016D01*
X182380960Y-78446084D01*
X182377861Y-78482092D01*
X181446525Y-78482092D01*
X181501836Y-78396019D01*
X181520905Y-78365329D01*
X181620530Y-78205866D01*
X181703799Y-78073996D01*
X181762477Y-77982688D01*
X181788327Y-77944909D01*
X181800737Y-77942929D01*
X181869698Y-77965820D01*
X181984425Y-78020257D01*
X182131281Y-78098551D01*
X182296625Y-78193018D01*
X182466820Y-78295970D01*
X182628226Y-78399721D01*
X182746412Y-78482092D01*
X182767205Y-78496584D01*
G36*
X182767205Y-78496584D02*
G01*
X182933113Y-78625906D01*
X183236902Y-78896438D01*
X183395886Y-79060017D01*
X183529298Y-79197286D01*
X183795772Y-79511940D01*
X183881960Y-79630894D01*
X184021794Y-79823889D01*
X184128254Y-80006092D01*
X184192835Y-80116622D01*
X184231992Y-80200021D01*
X184238140Y-80214503D01*
X184306940Y-80376566D01*
X184386482Y-80579983D01*
X184456382Y-80774023D01*
X184458870Y-80780930D01*
X184465631Y-80800740D01*
X184520862Y-80967345D01*
X184558720Y-81100499D01*
X184582549Y-81222523D01*
X184593618Y-81334708D01*
X184595692Y-81355736D01*
X184598360Y-81432400D01*
X184601494Y-81522461D01*
X184603297Y-81745016D01*
X184603575Y-81824951D01*
X184602548Y-81991118D01*
X184600346Y-82035548D01*
X184595477Y-82133845D01*
X184578704Y-82254836D01*
X184577802Y-82261343D01*
X184544966Y-82381823D01*
X184492409Y-82503496D01*
X184415572Y-82634573D01*
X184353481Y-82721939D01*
X184309898Y-82783265D01*
X184270537Y-82832657D01*
X184170826Y-82957783D01*
X184021662Y-83133509D01*
X183993797Y-83166337D01*
X183774254Y-83417140D01*
X183507637Y-83718400D01*
X183469474Y-83761710D01*
X183289296Y-83976860D01*
X183258353Y-84013809D01*
X183188700Y-84109169D01*
X183102317Y-84227434D01*
X183093867Y-84239003D01*
X182964120Y-84456909D01*
X182935334Y-84518904D01*
X182857219Y-84687144D01*
X182761268Y-84949323D01*
X182754791Y-84968862D01*
X182754569Y-84969534D01*
X182723126Y-85066554D01*
X182705214Y-85121826D01*
X182698638Y-85144708D01*
X182669198Y-85247160D01*
X182644094Y-85363053D01*
X182627473Y-85487021D01*
X182624050Y-85535477D01*
X182617976Y-85621480D01*
X182616910Y-85636583D01*
X182611233Y-85794324D01*
X182609977Y-85829255D01*
X182604246Y-86082554D01*
X182604142Y-86086955D01*
X182603947Y-86095216D01*
X182599486Y-86284534D01*
X182593041Y-86497108D01*
X182586115Y-86674319D01*
X182579275Y-86801906D01*
X182573089Y-86865609D01*
X182570580Y-86872308D01*
X182520352Y-86926360D01*
X182419083Y-87004987D01*
X182282120Y-87098492D01*
X182124808Y-87197177D01*
X181962495Y-87291344D01*
X181810525Y-87371294D01*
X181684246Y-87427329D01*
X181576784Y-87467850D01*
X181576784Y-86996031D01*
X181576198Y-86906300D01*
X181564045Y-86644565D01*
X181532983Y-86449883D01*
X181478814Y-86314562D01*
X181397339Y-86230909D01*
X181284359Y-86191233D01*
X181135676Y-86187842D01*
X181115417Y-86189422D01*
X181014954Y-86207538D01*
X180952631Y-86254708D01*
X180896206Y-86353196D01*
X180884486Y-86378812D01*
X180857395Y-86458694D01*
X180836916Y-86562347D01*
X180821384Y-86703366D01*
X180809138Y-86895348D01*
X180798513Y-87151887D01*
X180775708Y-87797167D01*
X180638938Y-87832913D01*
X180565605Y-87851274D01*
X180420940Y-87885517D01*
X180267708Y-87920115D01*
X180164703Y-87940194D01*
X180002093Y-87964079D01*
X179870916Y-87974678D01*
X179708587Y-87977785D01*
X179695070Y-87438659D01*
X179688680Y-87237601D01*
X179678430Y-87062055D01*
X179663530Y-86938948D01*
X179642203Y-86854396D01*
X179612675Y-86794511D01*
X179553726Y-86725886D01*
X179431078Y-86660860D01*
X179295885Y-86659848D01*
X179166078Y-86721262D01*
X179059588Y-86843512D01*
X179058256Y-86845803D01*
X179024613Y-86914644D01*
X179002053Y-86994584D01*
X178988426Y-87102374D01*
X178981582Y-87254771D01*
X178979370Y-87468528D01*
X178978169Y-87958246D01*
X178821861Y-87968213D01*
X178769932Y-87967878D01*
X178632460Y-87954277D01*
X178458939Y-87927127D01*
X178274784Y-87890059D01*
X177884015Y-87801939D01*
X177883146Y-87157169D01*
X177882384Y-86981340D01*
X177878832Y-86776553D01*
X177871313Y-86627681D01*
X177858621Y-86521439D01*
X177839549Y-86444547D01*
X177812890Y-86383721D01*
X177786793Y-86349098D01*
X180365400Y-86349098D01*
X180365401Y-86349537D01*
X180387900Y-86375536D01*
X180452035Y-86340315D01*
X180553806Y-86246062D01*
X180592125Y-86204335D01*
X180646301Y-86132917D01*
X180658113Y-86095216D01*
X180653724Y-86093613D01*
X180607703Y-86115612D01*
X180534195Y-86170952D01*
X180454864Y-86240841D01*
X180391377Y-86306487D01*
X180365400Y-86349098D01*
X177786793Y-86349098D01*
X177742103Y-86289809D01*
X177615851Y-86208554D01*
X177473691Y-86183135D01*
X177370157Y-86207950D01*
X177336104Y-86216112D01*
X177223571Y-86310048D01*
X177208566Y-86331393D01*
X177178761Y-86388574D01*
X177158074Y-86463403D01*
X177144229Y-86571008D01*
X177134947Y-86726514D01*
X177127950Y-86945048D01*
X177119887Y-87166496D01*
X177107399Y-87337432D01*
X177090685Y-87437305D01*
X177069335Y-87469779D01*
X177068106Y-87469708D01*
X177014775Y-87449336D01*
X176909302Y-87397891D01*
X176766385Y-87322843D01*
X176600724Y-87231661D01*
X176505694Y-87177583D01*
X176342271Y-87078792D01*
X176232293Y-87000599D01*
X176163995Y-86934054D01*
X176125610Y-86870205D01*
X176124919Y-86868526D01*
X176102171Y-86774539D01*
X176086475Y-86619141D01*
X176077465Y-86396827D01*
X176075557Y-86187573D01*
X176701124Y-86187573D01*
X176709948Y-86206857D01*
X176763449Y-86248033D01*
X176821611Y-86233163D01*
X176841295Y-86207950D01*
X176837362Y-86160074D01*
X176767067Y-86141169D01*
X176720386Y-86150702D01*
X176701124Y-86187573D01*
X176075557Y-86187573D01*
X176074777Y-86102092D01*
X177630015Y-86102092D01*
X177630463Y-86110936D01*
X177647248Y-86141169D01*
X177653516Y-86139371D01*
X177688631Y-86102092D01*
X177694737Y-86086955D01*
X177671398Y-86063016D01*
X177660056Y-86064517D01*
X177630015Y-86102092D01*
X176074777Y-86102092D01*
X176073284Y-85932092D01*
X180446739Y-85932092D01*
X180461485Y-85982262D01*
X180481753Y-86001941D01*
X180553321Y-86022696D01*
X180579092Y-86021279D01*
X180593004Y-86006842D01*
X180544099Y-85964484D01*
X180531695Y-85957188D01*
X180786660Y-85957188D01*
X180828747Y-86006842D01*
X180851011Y-86033109D01*
X180881835Y-86051778D01*
X180919836Y-86054540D01*
X180971709Y-86022048D01*
X181059015Y-85945190D01*
X181145388Y-85858120D01*
X181178708Y-85794324D01*
X181144597Y-85760393D01*
X181042554Y-85750400D01*
X180951394Y-85760464D01*
X180846591Y-85806490D01*
X180812206Y-85848092D01*
X180788433Y-85876856D01*
X180786660Y-85957188D01*
X180531695Y-85957188D01*
X180483185Y-85928655D01*
X180446739Y-85932092D01*
X176073284Y-85932092D01*
X176072706Y-85866287D01*
X176071872Y-85848092D01*
X177590938Y-85848092D01*
X177610477Y-85867631D01*
X177630015Y-85848092D01*
X177610477Y-85828554D01*
X177590938Y-85848092D01*
X176071872Y-85848092D01*
X176056687Y-85516853D01*
X176051847Y-85475884D01*
X176814737Y-85475884D01*
X176823912Y-85530968D01*
X176887554Y-85555016D01*
X176932979Y-85562343D01*
X176965708Y-85594092D01*
X176966843Y-85603433D01*
X177004784Y-85633169D01*
X177022040Y-85632751D01*
X177040031Y-85621480D01*
X177033241Y-85578692D01*
X177018713Y-85535477D01*
X181498631Y-85535477D01*
X181518169Y-85555016D01*
X181537708Y-85535477D01*
X181518169Y-85515939D01*
X181498631Y-85535477D01*
X177018713Y-85535477D01*
X177001159Y-85483258D01*
X176975812Y-85420313D01*
X176938975Y-85384230D01*
X176883928Y-85400648D01*
X176860630Y-85415355D01*
X176814737Y-85475884D01*
X176051847Y-85475884D01*
X176021248Y-85216854D01*
X176005331Y-85144708D01*
X177004784Y-85144708D01*
X177024323Y-85164246D01*
X177043861Y-85144708D01*
X182006631Y-85144708D01*
X182026169Y-85164246D01*
X182045708Y-85144708D01*
X182026169Y-85125169D01*
X182006631Y-85144708D01*
X177043861Y-85144708D01*
X177024323Y-85125169D01*
X177004784Y-85144708D01*
X176005331Y-85144708D01*
X175997218Y-85107937D01*
X180482631Y-85107937D01*
X180483647Y-85111837D01*
X180521708Y-85125169D01*
X180532418Y-85123579D01*
X180560784Y-85083786D01*
X180557716Y-85069652D01*
X180521708Y-85066554D01*
X180510013Y-85074574D01*
X180482631Y-85107937D01*
X175997218Y-85107937D01*
X175978706Y-85024028D01*
X181076487Y-85024028D01*
X181105656Y-85068329D01*
X181168557Y-85079474D01*
X181208944Y-85066554D01*
X181889400Y-85066554D01*
X181906632Y-85083786D01*
X181908938Y-85086092D01*
X181928477Y-85066554D01*
X181908938Y-85047016D01*
X181889400Y-85066554D01*
X181208944Y-85066554D01*
X181235377Y-85058098D01*
X181276302Y-85004840D01*
X181282596Y-84973616D01*
X181271287Y-84948538D01*
X182054056Y-84948538D01*
X182056586Y-84973616D01*
X182058733Y-84994913D01*
X182070487Y-85001026D01*
X182084784Y-84968862D01*
X182081964Y-84948174D01*
X182058733Y-84942810D01*
X182054056Y-84948538D01*
X181271287Y-84948538D01*
X181266360Y-84937613D01*
X181193062Y-84937253D01*
X181120574Y-84960734D01*
X181077683Y-85009085D01*
X181076487Y-85024028D01*
X175978706Y-85024028D01*
X175962122Y-84948862D01*
X175875042Y-84695446D01*
X175805590Y-84546258D01*
X176838352Y-84546258D01*
X176917362Y-84625269D01*
X176930144Y-84636762D01*
X177030340Y-84694492D01*
X177152542Y-84732837D01*
X177247337Y-84746243D01*
X177292423Y-84736933D01*
X177296507Y-84699051D01*
X177291326Y-84669788D01*
X177281313Y-84588762D01*
X177253440Y-84539020D01*
X177183608Y-84478758D01*
X177128683Y-84448792D01*
X178810816Y-84448792D01*
X178846241Y-84589390D01*
X178915918Y-84699051D01*
X178927434Y-84717177D01*
X179055687Y-84845830D01*
X179177350Y-84926534D01*
X179347166Y-84969613D01*
X179513959Y-84943453D01*
X179662867Y-84851135D01*
X179779031Y-84695745D01*
X179824422Y-84585957D01*
X179851264Y-84421835D01*
X180698532Y-84421835D01*
X180704427Y-84484220D01*
X180708316Y-84492564D01*
X180753903Y-84530929D01*
X180808114Y-84536909D01*
X180834323Y-84504723D01*
X180833825Y-84498571D01*
X180809474Y-84457574D01*
X181694015Y-84457574D01*
X181713374Y-84504723D01*
X181718917Y-84518224D01*
X181791883Y-84572880D01*
X181879631Y-84587175D01*
X181950222Y-84563806D01*
X181957992Y-84518904D01*
X181895051Y-84446437D01*
X181872499Y-84429887D01*
X181794845Y-84405548D01*
X181724599Y-84415373D01*
X181694015Y-84457574D01*
X180809474Y-84457574D01*
X180803272Y-84447133D01*
X180749498Y-84407721D01*
X180706420Y-84406406D01*
X180703410Y-84412293D01*
X180698532Y-84421835D01*
X179851264Y-84421835D01*
X179852825Y-84412293D01*
X179845287Y-84335950D01*
X180912718Y-84335950D01*
X180940256Y-84343631D01*
X180975146Y-84330110D01*
X181034692Y-84275246D01*
X181060785Y-84241038D01*
X181063313Y-84227434D01*
X181010169Y-84264189D01*
X180956446Y-84303390D01*
X180915733Y-84332573D01*
X180912718Y-84335950D01*
X179845287Y-84335950D01*
X179833113Y-84212643D01*
X179798410Y-84088845D01*
X182874672Y-84088845D01*
X182879349Y-84135221D01*
X182891102Y-84141334D01*
X182905400Y-84109169D01*
X182902580Y-84088482D01*
X182879349Y-84083118D01*
X182874672Y-84088845D01*
X179798410Y-84088845D01*
X179770598Y-83989632D01*
X180404477Y-83989632D01*
X180408511Y-84011275D01*
X180448007Y-84050882D01*
X180496719Y-84042979D01*
X180507328Y-84030812D01*
X180516985Y-83976860D01*
X180463092Y-83952862D01*
X180436162Y-83956999D01*
X180404477Y-83989632D01*
X179770598Y-83989632D01*
X179764948Y-83969475D01*
X179662680Y-83692102D01*
X179612546Y-83581631D01*
X180209092Y-83581631D01*
X180228631Y-83601169D01*
X180248169Y-83581631D01*
X180228631Y-83562092D01*
X180209092Y-83581631D01*
X179612546Y-83581631D01*
X179560764Y-83467527D01*
X179465039Y-83315291D01*
X179373781Y-83232691D01*
X179285266Y-83217021D01*
X179279968Y-83218129D01*
X179242456Y-83233852D01*
X179206102Y-83269949D01*
X179165280Y-83337015D01*
X179114363Y-83445646D01*
X179047724Y-83606437D01*
X178959735Y-83829983D01*
X178872099Y-84074454D01*
X178819866Y-84281705D01*
X178815453Y-84363169D01*
X178810816Y-84448792D01*
X177128683Y-84448792D01*
X177115701Y-84441709D01*
X177053642Y-84441394D01*
X176963623Y-84481478D01*
X176838352Y-84546258D01*
X175805590Y-84546258D01*
X175755740Y-84439176D01*
X175712923Y-84363169D01*
X176965708Y-84363169D01*
X176985246Y-84382708D01*
X177004784Y-84363169D01*
X176985246Y-84343631D01*
X176965708Y-84363169D01*
X175712923Y-84363169D01*
X175599950Y-84162623D01*
X175479653Y-83962076D01*
X175777874Y-83820451D01*
X176076096Y-83678827D01*
X176279575Y-83795246D01*
X176291100Y-83801786D01*
X176572716Y-83925820D01*
X176850132Y-83975652D01*
X177134972Y-83953430D01*
X177336741Y-83900882D01*
X177647053Y-83759721D01*
X177914046Y-83555506D01*
X178135845Y-83290682D01*
X178310578Y-82967693D01*
X178436373Y-82588984D01*
X178511356Y-82156998D01*
X178515801Y-82116493D01*
X178534980Y-81992227D01*
X178539283Y-81980918D01*
X180158926Y-81980918D01*
X180165252Y-82323038D01*
X180225060Y-82643785D01*
X180268153Y-82773402D01*
X180402592Y-83060536D01*
X180578708Y-83328196D01*
X180784443Y-83561780D01*
X180808415Y-83581631D01*
X181007737Y-83746689D01*
X181236528Y-83868320D01*
X181553869Y-83953293D01*
X181859936Y-83964308D01*
X182148133Y-83899281D01*
X182417804Y-83758360D01*
X182464002Y-83718400D01*
X183257092Y-83718400D01*
X183263705Y-83736377D01*
X183315708Y-83757477D01*
X183342672Y-83753068D01*
X183374323Y-83718400D01*
X183367710Y-83700424D01*
X183315708Y-83679323D01*
X183288743Y-83683732D01*
X183257092Y-83718400D01*
X182464002Y-83718400D01*
X182668295Y-83541694D01*
X182703434Y-83503797D01*
X182875482Y-83283496D01*
X182933297Y-83171195D01*
X183395319Y-83171195D01*
X183400638Y-83207809D01*
X183431416Y-83173787D01*
X183431590Y-83173510D01*
X183484791Y-83150343D01*
X183575755Y-83152850D01*
X183636575Y-83156740D01*
X183679418Y-83133509D01*
X183659593Y-83087943D01*
X183576949Y-83035057D01*
X183525453Y-82996719D01*
X183488916Y-82898288D01*
X183483390Y-82868902D01*
X183464480Y-82896204D01*
X183458657Y-82915017D01*
X183433756Y-82995477D01*
X183423761Y-83034554D01*
X183415416Y-83067187D01*
X183395319Y-83171195D01*
X182933297Y-83171195D01*
X182995667Y-83050046D01*
X183000413Y-83034554D01*
X183296169Y-83034554D01*
X183315708Y-83054092D01*
X183335246Y-83034554D01*
X183315708Y-83015016D01*
X183296169Y-83034554D01*
X183000413Y-83034554D01*
X183029632Y-82939168D01*
X183296169Y-82939168D01*
X183297288Y-82947892D01*
X183335246Y-82975939D01*
X183353921Y-82968483D01*
X183374323Y-82915017D01*
X183368700Y-82887105D01*
X183335246Y-82878246D01*
X183324574Y-82886245D01*
X183296169Y-82939168D01*
X183029632Y-82939168D01*
X183058659Y-82844410D01*
X183732927Y-82844410D01*
X183765092Y-82858708D01*
X183785779Y-82855888D01*
X183791143Y-82832657D01*
X183785416Y-82827980D01*
X183739041Y-82832657D01*
X183732927Y-82844410D01*
X183058659Y-82844410D01*
X183080835Y-82772015D01*
X183091108Y-82721939D01*
X183491554Y-82721939D01*
X183511092Y-82741477D01*
X183530631Y-82721939D01*
X183511092Y-82702400D01*
X183491554Y-82721939D01*
X183091108Y-82721939D01*
X183106240Y-82648181D01*
X183137674Y-82254836D01*
X183117816Y-82073165D01*
X183461788Y-82073165D01*
X183462943Y-82159741D01*
X183469849Y-82194400D01*
X183492684Y-82163001D01*
X183508693Y-82086994D01*
X183512856Y-82000847D01*
X183505473Y-81962483D01*
X184204519Y-81962483D01*
X184214477Y-81999016D01*
X184215748Y-82000847D01*
X184222505Y-82010583D01*
X184258166Y-82038092D01*
X184263511Y-82035548D01*
X184253554Y-81999016D01*
X184245525Y-81987448D01*
X184209864Y-81959939D01*
X184204519Y-81962483D01*
X183505473Y-81962483D01*
X183500967Y-81939069D01*
X183492154Y-81926995D01*
X183472845Y-81944143D01*
X183462845Y-82038239D01*
X183461788Y-82073165D01*
X183117816Y-82073165D01*
X183095668Y-81870552D01*
X182982760Y-81504529D01*
X182916978Y-81381666D01*
X183103739Y-81381666D01*
X183123954Y-81452274D01*
X183143200Y-81492889D01*
X183168296Y-81508612D01*
X183206407Y-81456124D01*
X183214018Y-81443558D01*
X183223730Y-81412862D01*
X183843246Y-81412862D01*
X183849859Y-81430838D01*
X183901861Y-81451939D01*
X183928826Y-81447530D01*
X183942639Y-81432400D01*
X183999554Y-81432400D01*
X184019092Y-81451939D01*
X184038631Y-81432400D01*
X184019092Y-81412862D01*
X183999554Y-81432400D01*
X183942639Y-81432400D01*
X183960477Y-81412862D01*
X183953864Y-81394885D01*
X183901861Y-81373785D01*
X183874897Y-81378193D01*
X183866328Y-81387578D01*
X183843246Y-81412862D01*
X183223730Y-81412862D01*
X183231729Y-81387578D01*
X183191045Y-81356802D01*
X183157200Y-81347552D01*
X183108591Y-81352952D01*
X183103739Y-81381666D01*
X182916978Y-81381666D01*
X182891836Y-81334708D01*
X183393861Y-81334708D01*
X183401860Y-81345380D01*
X183454783Y-81373785D01*
X183463507Y-81372666D01*
X183491554Y-81334708D01*
X183484098Y-81316033D01*
X183430632Y-81295631D01*
X183402720Y-81301254D01*
X183393861Y-81334708D01*
X182891836Y-81334708D01*
X182801489Y-81165965D01*
X182554393Y-80864057D01*
X182547106Y-80856778D01*
X182481387Y-80803470D01*
X183861243Y-80803470D01*
X183861727Y-80864073D01*
X183871133Y-80877368D01*
X183930686Y-80901479D01*
X184009408Y-80850348D01*
X184063303Y-80820343D01*
X184168507Y-80815826D01*
X184178377Y-80817621D01*
X184252042Y-80816819D01*
X184273092Y-80774023D01*
X184267738Y-80741624D01*
X184218154Y-80680874D01*
X184143140Y-80659995D01*
X184076158Y-80692245D01*
X184075550Y-80692538D01*
X184039305Y-80722625D01*
X183976612Y-80733117D01*
X183967678Y-80730560D01*
X183905966Y-80748244D01*
X183861243Y-80803470D01*
X182481387Y-80803470D01*
X182343166Y-80691353D01*
X183394538Y-80691353D01*
X183435137Y-80724452D01*
X183484403Y-80741826D01*
X183523213Y-80739798D01*
X183530631Y-80692245D01*
X183521721Y-80645125D01*
X183476972Y-80612242D01*
X183416830Y-80646728D01*
X183394538Y-80691353D01*
X182343166Y-80691353D01*
X182284669Y-80643903D01*
X182003027Y-80500871D01*
X181711355Y-80426831D01*
X181418828Y-80420932D01*
X181134621Y-80482324D01*
X180867908Y-80610154D01*
X180627864Y-80803571D01*
X180423665Y-81061725D01*
X180295650Y-81320802D01*
X180203316Y-81639487D01*
X180158926Y-81980918D01*
X178539283Y-81980918D01*
X178568020Y-81905393D01*
X178630261Y-81826774D01*
X178737044Y-81727152D01*
X178892207Y-81583587D01*
X179126780Y-81353809D01*
X179381327Y-81093099D01*
X179640241Y-80818103D01*
X179887912Y-80545469D01*
X180108732Y-80291847D01*
X180162405Y-80226256D01*
X183029543Y-80226256D01*
X183061708Y-80240554D01*
X183082395Y-80237734D01*
X183087759Y-80214503D01*
X183082031Y-80209826D01*
X183035656Y-80214503D01*
X183029543Y-80226256D01*
X180162405Y-80226256D01*
X180287092Y-80073883D01*
X180303077Y-80053694D01*
X180386752Y-79957874D01*
X180449424Y-79902200D01*
X180478567Y-79898169D01*
X180533037Y-79971607D01*
X180629169Y-80005494D01*
X180656119Y-79985769D01*
X180881749Y-79985769D01*
X180886426Y-80032144D01*
X180898179Y-80038257D01*
X180912477Y-80006092D01*
X180909657Y-79985405D01*
X180886426Y-79980041D01*
X180881749Y-79985769D01*
X180656119Y-79985769D01*
X180666656Y-79978057D01*
X180676677Y-79909935D01*
X180658884Y-79833062D01*
X180615249Y-79779466D01*
X180603990Y-79770709D01*
X180596549Y-79740194D01*
X180616370Y-79686002D01*
X180668752Y-79598722D01*
X180709322Y-79540376D01*
X183022631Y-79540376D01*
X183022698Y-79541737D01*
X183052452Y-79547903D01*
X183120021Y-79514235D01*
X183189494Y-79482533D01*
X183266834Y-79473882D01*
X183316226Y-79493909D01*
X183314232Y-79539557D01*
X183298571Y-79555312D01*
X183236458Y-79561695D01*
X183208437Y-79557882D01*
X183145304Y-79589226D01*
X183134319Y-79610549D01*
X183163367Y-79630822D01*
X183259678Y-79636638D01*
X183292266Y-79636507D01*
X183378720Y-79634518D01*
X183413400Y-79630894D01*
X183411122Y-79622836D01*
X183390805Y-79562283D01*
X183356275Y-79463240D01*
X183343398Y-79423148D01*
X183319556Y-79311040D01*
X183320149Y-79233635D01*
X183328099Y-79207325D01*
X183329227Y-79187723D01*
X183297178Y-79234323D01*
X183246124Y-79277837D01*
X183152901Y-79302708D01*
X183126339Y-79303423D01*
X183072588Y-79322667D01*
X183073020Y-79380823D01*
X183078256Y-79430280D01*
X183058039Y-79480821D01*
X183050868Y-79486035D01*
X183022631Y-79540376D01*
X180709322Y-79540376D01*
X180758992Y-79468944D01*
X180892391Y-79287258D01*
X181035166Y-79090091D01*
X181107861Y-79090091D01*
X181108242Y-79095554D01*
X181130862Y-79104159D01*
X181170208Y-79062209D01*
X181179716Y-79040371D01*
X181152976Y-79044976D01*
X181135617Y-79057039D01*
X181107861Y-79090091D01*
X181035166Y-79090091D01*
X181042130Y-79080474D01*
X181200244Y-78853323D01*
X181264169Y-78853323D01*
X181283708Y-78872862D01*
X181303246Y-78853323D01*
X181283708Y-78833785D01*
X181264169Y-78853323D01*
X181200244Y-78853323D01*
X181209246Y-78840391D01*
X181280378Y-78734562D01*
X182702172Y-78734562D01*
X182707573Y-78768819D01*
X182726579Y-78795358D01*
X182742406Y-78853323D01*
X182749092Y-78877815D01*
X182749730Y-78884996D01*
X182789572Y-78947899D01*
X182872327Y-79006769D01*
X182909894Y-79024895D01*
X182950063Y-79040371D01*
X183007247Y-79062403D01*
X183048791Y-79060017D01*
X183029051Y-79017367D01*
X183009367Y-78977643D01*
X183006599Y-78890367D01*
X183012334Y-78859378D01*
X182991679Y-78761908D01*
X182914660Y-78705075D01*
X182795330Y-78701445D01*
X182768075Y-78707415D01*
X182702172Y-78734562D01*
X181280378Y-78734562D01*
X181369291Y-78602280D01*
X181446525Y-78482092D01*
X182377861Y-78482092D01*
X182385882Y-78493787D01*
X182419245Y-78521169D01*
X182423144Y-78520153D01*
X182436477Y-78482092D01*
X182434887Y-78471382D01*
X182395094Y-78443016D01*
X182380960Y-78446084D01*
X182377861Y-78482092D01*
X181446525Y-78482092D01*
X181501836Y-78396019D01*
X181520905Y-78365329D01*
X181620530Y-78205866D01*
X181703799Y-78073996D01*
X181762477Y-77982688D01*
X181788327Y-77944909D01*
X181800737Y-77942929D01*
X181869698Y-77965820D01*
X181984425Y-78020257D01*
X182131281Y-78098551D01*
X182296625Y-78193018D01*
X182466820Y-78295970D01*
X182628226Y-78399721D01*
X182746412Y-78482092D01*
X182767205Y-78496584D01*
G37*
X171457227Y-102540389D02*
X171580057Y-102621357D01*
X171301079Y-102725839D01*
X170962578Y-102739700D01*
X170798066Y-102652777D01*
X170856144Y-102591009D01*
X171244918Y-102527100D01*
X171457227Y-102540389D01*
G36*
X171457227Y-102540389D02*
G01*
X171580057Y-102621357D01*
X171301079Y-102725839D01*
X170962578Y-102739700D01*
X170798066Y-102652777D01*
X170856144Y-102591009D01*
X171244918Y-102527100D01*
X171457227Y-102540389D01*
G37*
X171320834Y-96711774D02*
X171362511Y-96864009D01*
X171360002Y-96925244D01*
X171275775Y-97038421D01*
X170951931Y-97075170D01*
X170228312Y-97063686D01*
X170066872Y-97060331D01*
X169231583Y-97073346D01*
X168676090Y-97130839D01*
X168469943Y-97170941D01*
X168298598Y-97145773D01*
X168258066Y-96988122D01*
X168260813Y-96915454D01*
X168344312Y-96802756D01*
X168665409Y-96770420D01*
X169384255Y-96790314D01*
X170300449Y-96795608D01*
X170936477Y-96733355D01*
X171141238Y-96692403D01*
X171320834Y-96711774D01*
G36*
X171320834Y-96711774D02*
G01*
X171362511Y-96864009D01*
X171360002Y-96925244D01*
X171275775Y-97038421D01*
X170951931Y-97075170D01*
X170228312Y-97063686D01*
X170066872Y-97060331D01*
X169231583Y-97073346D01*
X168676090Y-97130839D01*
X168469943Y-97170941D01*
X168298598Y-97145773D01*
X168258066Y-96988122D01*
X168260813Y-96915454D01*
X168344312Y-96802756D01*
X168665409Y-96770420D01*
X169384255Y-96790314D01*
X170300449Y-96795608D01*
X170936477Y-96733355D01*
X171141238Y-96692403D01*
X171320834Y-96711774D01*
G37*
X171291955Y-104054658D02*
X171389229Y-104079504D01*
X171656381Y-104251949D01*
X171502031Y-104452157D01*
X170989242Y-104639359D01*
X170181079Y-104772787D01*
X169677612Y-104765279D01*
X169026271Y-104665871D01*
X168484441Y-104513357D01*
X168258066Y-104352725D01*
X168963622Y-104352725D01*
X168964160Y-104358741D01*
X169206668Y-104444648D01*
X169927881Y-104471787D01*
X170446681Y-104455328D01*
X170928510Y-104391334D01*
X171043762Y-104305727D01*
X170700949Y-104227427D01*
X170477755Y-104208805D01*
X169782493Y-104202100D01*
X169204821Y-104255335D01*
X168963622Y-104352725D01*
X168258066Y-104352725D01*
X168258911Y-104345532D01*
X168490302Y-104195071D01*
X169007967Y-104039595D01*
X169485751Y-103957255D01*
X169782493Y-103947109D01*
X170380637Y-103926658D01*
X171291955Y-104054658D01*
G36*
X171291955Y-104054658D02*
G01*
X171389229Y-104079504D01*
X171656381Y-104251949D01*
X171502031Y-104452157D01*
X170989242Y-104639359D01*
X170181079Y-104772787D01*
X169677612Y-104765279D01*
X169026271Y-104665871D01*
X168484441Y-104513357D01*
X168258066Y-104352725D01*
X168963622Y-104352725D01*
X168964160Y-104358741D01*
X169206668Y-104444648D01*
X169927881Y-104471787D01*
X170446681Y-104455328D01*
X170928510Y-104391334D01*
X171043762Y-104305727D01*
X170700949Y-104227427D01*
X170477755Y-104208805D01*
X169782493Y-104202100D01*
X169204821Y-104255335D01*
X168963622Y-104352725D01*
X168258066Y-104352725D01*
X168258911Y-104345532D01*
X168490302Y-104195071D01*
X169007967Y-104039595D01*
X169485751Y-103957255D01*
X169782493Y-103947109D01*
X170380637Y-103926658D01*
X171291955Y-104054658D01*
G37*
X170830106Y-102876282D02*
X171347160Y-102983506D01*
X171360877Y-102990303D01*
X171538546Y-103169491D01*
X171572850Y-103399564D01*
X171554130Y-103457067D01*
X171362828Y-103635543D01*
X170939177Y-103706446D01*
X170614803Y-103720131D01*
X170544325Y-103691630D01*
X170875426Y-103579679D01*
X171087635Y-103494495D01*
X171182825Y-103317236D01*
X170863353Y-103175321D01*
X170230852Y-103099972D01*
X169386955Y-103122412D01*
X169109489Y-103172318D01*
X168847507Y-103317803D01*
X168858533Y-103479589D01*
X169175288Y-103586005D01*
X169364749Y-103630087D01*
X169118208Y-103706444D01*
X168876603Y-103741920D01*
X168483208Y-103747490D01*
X168400586Y-103723740D01*
X168264181Y-103575014D01*
X168286333Y-103360738D01*
X168446750Y-103144467D01*
X168725140Y-102989756D01*
X169252026Y-102891465D01*
X170053800Y-102845788D01*
X170830106Y-102876282D01*
G36*
X170830106Y-102876282D02*
G01*
X171347160Y-102983506D01*
X171360877Y-102990303D01*
X171538546Y-103169491D01*
X171572850Y-103399564D01*
X171554130Y-103457067D01*
X171362828Y-103635543D01*
X170939177Y-103706446D01*
X170614803Y-103720131D01*
X170544325Y-103691630D01*
X170875426Y-103579679D01*
X171087635Y-103494495D01*
X171182825Y-103317236D01*
X170863353Y-103175321D01*
X170230852Y-103099972D01*
X169386955Y-103122412D01*
X169109489Y-103172318D01*
X168847507Y-103317803D01*
X168858533Y-103479589D01*
X169175288Y-103586005D01*
X169364749Y-103630087D01*
X169118208Y-103706444D01*
X168876603Y-103741920D01*
X168483208Y-103747490D01*
X168400586Y-103723740D01*
X168264181Y-103575014D01*
X168286333Y-103360738D01*
X168446750Y-103144467D01*
X168725140Y-102989756D01*
X169252026Y-102891465D01*
X170053800Y-102845788D01*
X170830106Y-102876282D01*
G37*
X168995542Y-99512173D02*
X169257651Y-99549221D01*
X169104733Y-99669600D01*
X169055154Y-99696353D01*
X168969102Y-99784412D01*
X169219790Y-99821047D01*
X169920776Y-99828350D01*
X170258013Y-99825845D01*
X170900686Y-99786805D01*
X171167968Y-99689443D01*
X171213407Y-99663548D01*
X171277733Y-99727476D01*
X171307492Y-99907725D01*
X171302771Y-100021301D01*
X171256439Y-100156310D01*
X171175600Y-100165693D01*
X171130164Y-100146992D01*
X170660715Y-100089042D01*
X169871437Y-100066475D01*
X169276844Y-100072123D01*
X168950230Y-100100770D01*
X169048288Y-100161725D01*
X169296991Y-100247546D01*
X169313855Y-100348437D01*
X168822511Y-100383975D01*
X168624488Y-100379318D01*
X168388492Y-100331129D01*
X168282566Y-100199701D01*
X168258066Y-99947412D01*
X168264559Y-99787959D01*
X168328169Y-99608818D01*
X168500891Y-99529044D01*
X168832440Y-99510850D01*
X168995542Y-99512173D01*
G36*
X168995542Y-99512173D02*
G01*
X169257651Y-99549221D01*
X169104733Y-99669600D01*
X169055154Y-99696353D01*
X168969102Y-99784412D01*
X169219790Y-99821047D01*
X169920776Y-99828350D01*
X170258013Y-99825845D01*
X170900686Y-99786805D01*
X171167968Y-99689443D01*
X171213407Y-99663548D01*
X171277733Y-99727476D01*
X171307492Y-99907725D01*
X171302771Y-100021301D01*
X171256439Y-100156310D01*
X171175600Y-100165693D01*
X171130164Y-100146992D01*
X170660715Y-100089042D01*
X169871437Y-100066475D01*
X169276844Y-100072123D01*
X168950230Y-100100770D01*
X169048288Y-100161725D01*
X169296991Y-100247546D01*
X169313855Y-100348437D01*
X168822511Y-100383975D01*
X168624488Y-100379318D01*
X168388492Y-100331129D01*
X168282566Y-100199701D01*
X168258066Y-99947412D01*
X168264559Y-99787959D01*
X168328169Y-99608818D01*
X168500891Y-99529044D01*
X168832440Y-99510850D01*
X168995542Y-99512173D01*
G37*
X171622330Y-92177023D02*
X171644733Y-92386333D01*
X171630727Y-92495831D01*
X171369794Y-92811845D01*
X170804946Y-93011731D01*
X169969953Y-93081475D01*
X169945527Y-93081446D01*
X169154942Y-93030884D01*
X168646062Y-92869536D01*
X168366691Y-92592073D01*
X168880820Y-92592073D01*
X168886812Y-92599812D01*
X169196069Y-92694874D01*
X169951400Y-92724287D01*
X170073834Y-92723396D01*
X170731287Y-92678803D01*
X171055594Y-92592192D01*
X170985347Y-92498724D01*
X170459136Y-92433563D01*
X169612040Y-92417993D01*
X169027195Y-92472247D01*
X168880820Y-92592073D01*
X168366691Y-92592073D01*
X168350595Y-92576087D01*
X168296618Y-92453218D01*
X168320161Y-92225073D01*
X168528283Y-92099286D01*
X168891073Y-92102090D01*
X169220254Y-92146845D01*
X169612040Y-92163846D01*
X170184777Y-92188699D01*
X171080699Y-92128913D01*
X171233976Y-92107044D01*
X171508648Y-92094532D01*
X171622330Y-92177023D01*
G36*
X171622330Y-92177023D02*
G01*
X171644733Y-92386333D01*
X171630727Y-92495831D01*
X171369794Y-92811845D01*
X170804946Y-93011731D01*
X169969953Y-93081475D01*
X169945527Y-93081446D01*
X169154942Y-93030884D01*
X168646062Y-92869536D01*
X168366691Y-92592073D01*
X168880820Y-92592073D01*
X168886812Y-92599812D01*
X169196069Y-92694874D01*
X169951400Y-92724287D01*
X170073834Y-92723396D01*
X170731287Y-92678803D01*
X171055594Y-92592192D01*
X170985347Y-92498724D01*
X170459136Y-92433563D01*
X169612040Y-92417993D01*
X169027195Y-92472247D01*
X168880820Y-92592073D01*
X168366691Y-92592073D01*
X168350595Y-92576087D01*
X168296618Y-92453218D01*
X168320161Y-92225073D01*
X168528283Y-92099286D01*
X168891073Y-92102090D01*
X169220254Y-92146845D01*
X169612040Y-92163846D01*
X170184777Y-92188699D01*
X171080699Y-92128913D01*
X171233976Y-92107044D01*
X171508648Y-92094532D01*
X171622330Y-92177023D01*
G37*
X171485745Y-90940602D02*
X171658089Y-90996501D01*
X171495598Y-91086030D01*
X171080288Y-91153476D01*
X170753154Y-91204394D01*
X170515844Y-91339133D01*
X170621764Y-91432396D01*
X171080288Y-91533662D01*
X171412095Y-91576616D01*
X171644733Y-91653389D01*
X171632021Y-91689459D01*
X171366495Y-91760406D01*
X170725509Y-91739817D01*
X169667604Y-91627142D01*
X168896883Y-91527553D01*
X168487000Y-91453528D01*
X168441130Y-91389187D01*
X168480818Y-91375547D01*
X169502957Y-91375547D01*
X169793632Y-91414600D01*
X169936123Y-91413047D01*
X170221148Y-91375552D01*
X169970901Y-91298927D01*
X169869139Y-91288141D01*
X169530911Y-91333930D01*
X169502957Y-91375547D01*
X168480818Y-91375547D01*
X168677147Y-91308072D01*
X168677797Y-91307890D01*
X169230550Y-91194448D01*
X169869139Y-91097399D01*
X170025693Y-91073608D01*
X170826683Y-90977523D01*
X171396977Y-90938350D01*
X171485745Y-90940602D01*
G36*
X171485745Y-90940602D02*
G01*
X171658089Y-90996501D01*
X171495598Y-91086030D01*
X171080288Y-91153476D01*
X170753154Y-91204394D01*
X170515844Y-91339133D01*
X170621764Y-91432396D01*
X171080288Y-91533662D01*
X171412095Y-91576616D01*
X171644733Y-91653389D01*
X171632021Y-91689459D01*
X171366495Y-91760406D01*
X170725509Y-91739817D01*
X169667604Y-91627142D01*
X168896883Y-91527553D01*
X168487000Y-91453528D01*
X168441130Y-91389187D01*
X168480818Y-91375547D01*
X169502957Y-91375547D01*
X169793632Y-91414600D01*
X169936123Y-91413047D01*
X170221148Y-91375552D01*
X169970901Y-91298927D01*
X169869139Y-91288141D01*
X169530911Y-91333930D01*
X169502957Y-91375547D01*
X168480818Y-91375547D01*
X168677147Y-91308072D01*
X168677797Y-91307890D01*
X169230550Y-91194448D01*
X169869139Y-91097399D01*
X170025693Y-91073608D01*
X170826683Y-90977523D01*
X171396977Y-90938350D01*
X171485745Y-90940602D01*
G37*
X170969062Y-93278120D02*
X171302961Y-93354679D01*
X171573747Y-93504151D01*
X171644733Y-93748739D01*
X171643838Y-93800111D01*
X171586827Y-93995977D01*
X171375052Y-94091106D01*
X170916933Y-94133973D01*
X170302512Y-94125266D01*
X169984339Y-94013385D01*
X170105992Y-93815693D01*
X170180898Y-93768372D01*
X170324680Y-93718375D01*
X170439103Y-93815693D01*
X170566864Y-93903437D01*
X170877329Y-93949303D01*
X171159745Y-93855381D01*
X171160805Y-93854545D01*
X171141354Y-93672248D01*
X170688506Y-93533499D01*
X169932612Y-93478350D01*
X169834539Y-93478974D01*
X169122095Y-93542070D01*
X168851730Y-93689370D01*
X169079747Y-93893468D01*
X169282324Y-94015613D01*
X169189337Y-94103175D01*
X168693571Y-94085959D01*
X168449659Y-94018052D01*
X168275642Y-93837854D01*
X168298572Y-93612408D01*
X168532844Y-93402887D01*
X168628021Y-93361070D01*
X169278567Y-93230009D01*
X170132825Y-93198574D01*
X170969062Y-93278120D01*
G36*
X170969062Y-93278120D02*
G01*
X171302961Y-93354679D01*
X171573747Y-93504151D01*
X171644733Y-93748739D01*
X171643838Y-93800111D01*
X171586827Y-93995977D01*
X171375052Y-94091106D01*
X170916933Y-94133973D01*
X170302512Y-94125266D01*
X169984339Y-94013385D01*
X170105992Y-93815693D01*
X170180898Y-93768372D01*
X170324680Y-93718375D01*
X170439103Y-93815693D01*
X170566864Y-93903437D01*
X170877329Y-93949303D01*
X171159745Y-93855381D01*
X171160805Y-93854545D01*
X171141354Y-93672248D01*
X170688506Y-93533499D01*
X169932612Y-93478350D01*
X169834539Y-93478974D01*
X169122095Y-93542070D01*
X168851730Y-93689370D01*
X169079747Y-93893468D01*
X169282324Y-94015613D01*
X169189337Y-94103175D01*
X168693571Y-94085959D01*
X168449659Y-94018052D01*
X168275642Y-93837854D01*
X168298572Y-93612408D01*
X168532844Y-93402887D01*
X168628021Y-93361070D01*
X169278567Y-93230009D01*
X170132825Y-93198574D01*
X170969062Y-93278120D01*
G37*
X171232099Y-94459714D02*
X171362511Y-94629287D01*
X171409370Y-94701602D01*
X171534974Y-94881622D01*
X171604684Y-94960139D01*
X171622394Y-94967775D01*
X171551850Y-95064780D01*
X171230280Y-95173226D01*
X170852538Y-95224600D01*
X170569985Y-95206697D01*
X170741622Y-95129350D01*
X170835848Y-95099141D01*
X171061745Y-94945786D01*
X170984733Y-94808091D01*
X170624039Y-94748350D01*
X170334212Y-94777034D01*
X170315395Y-94907100D01*
X170343411Y-95007507D01*
X170066089Y-95065850D01*
X169834503Y-95035824D01*
X169669177Y-94907100D01*
X169590605Y-94814524D01*
X169245844Y-94748350D01*
X169135747Y-94752560D01*
X168865015Y-94837742D01*
X168874489Y-94986327D01*
X169175288Y-95137054D01*
X169231455Y-95153867D01*
X169339448Y-95216380D01*
X168963622Y-95211746D01*
X168637955Y-95172390D01*
X168419847Y-95053966D01*
X168314796Y-94818445D01*
X168230415Y-94453406D01*
X169655352Y-94491914D01*
X170412015Y-94505059D01*
X170944883Y-94485481D01*
X171120337Y-94421105D01*
X171139533Y-94403263D01*
X171232099Y-94459714D01*
G36*
X171232099Y-94459714D02*
G01*
X171362511Y-94629287D01*
X171409370Y-94701602D01*
X171534974Y-94881622D01*
X171604684Y-94960139D01*
X171622394Y-94967775D01*
X171551850Y-95064780D01*
X171230280Y-95173226D01*
X170852538Y-95224600D01*
X170569985Y-95206697D01*
X170741622Y-95129350D01*
X170835848Y-95099141D01*
X171061745Y-94945786D01*
X170984733Y-94808091D01*
X170624039Y-94748350D01*
X170334212Y-94777034D01*
X170315395Y-94907100D01*
X170343411Y-95007507D01*
X170066089Y-95065850D01*
X169834503Y-95035824D01*
X169669177Y-94907100D01*
X169590605Y-94814524D01*
X169245844Y-94748350D01*
X169135747Y-94752560D01*
X168865015Y-94837742D01*
X168874489Y-94986327D01*
X169175288Y-95137054D01*
X169231455Y-95153867D01*
X169339448Y-95216380D01*
X168963622Y-95211746D01*
X168637955Y-95172390D01*
X168419847Y-95053966D01*
X168314796Y-94818445D01*
X168230415Y-94453406D01*
X169655352Y-94491914D01*
X170412015Y-94505059D01*
X170944883Y-94485481D01*
X171120337Y-94421105D01*
X171139533Y-94403263D01*
X171232099Y-94459714D01*
G37*
X171522091Y-104948743D02*
X171544283Y-105086943D01*
X171425775Y-105194950D01*
X171193276Y-105244744D01*
X170988817Y-105227464D01*
X170424020Y-105177965D01*
X170048235Y-105153329D01*
X169762534Y-105170455D01*
X169906756Y-105234103D01*
X170470079Y-105312631D01*
X170804530Y-105348031D01*
X171280488Y-105430104D01*
X171205784Y-105511063D01*
X170586400Y-105605996D01*
X169810288Y-105699289D01*
X170727511Y-105662991D01*
X171234206Y-105649953D01*
X171569623Y-105684773D01*
X171644790Y-105803303D01*
X171623392Y-105878893D01*
X171450524Y-105945412D01*
X170987181Y-105973887D01*
X170096643Y-105979912D01*
X169366352Y-105968889D01*
X168602366Y-105912309D01*
X168334712Y-105819037D01*
X168586080Y-105701915D01*
X169379163Y-105573789D01*
X170076927Y-105489558D01*
X169241503Y-105376943D01*
X169215547Y-105373388D01*
X168616116Y-105257034D01*
X168317745Y-105135322D01*
X168314726Y-105130732D01*
X168358356Y-105055358D01*
X168703792Y-105030308D01*
X169476960Y-105045865D01*
X169692735Y-105051673D01*
X170509405Y-105047886D01*
X170919055Y-104996882D01*
X171002019Y-104966469D01*
X171377396Y-104908350D01*
X171522091Y-104948743D01*
G36*
X171522091Y-104948743D02*
G01*
X171544283Y-105086943D01*
X171425775Y-105194950D01*
X171193276Y-105244744D01*
X170988817Y-105227464D01*
X170424020Y-105177965D01*
X170048235Y-105153329D01*
X169762534Y-105170455D01*
X169906756Y-105234103D01*
X170470079Y-105312631D01*
X170804530Y-105348031D01*
X171280488Y-105430104D01*
X171205784Y-105511063D01*
X170586400Y-105605996D01*
X169810288Y-105699289D01*
X170727511Y-105662991D01*
X171234206Y-105649953D01*
X171569623Y-105684773D01*
X171644790Y-105803303D01*
X171623392Y-105878893D01*
X171450524Y-105945412D01*
X170987181Y-105973887D01*
X170096643Y-105979912D01*
X169366352Y-105968889D01*
X168602366Y-105912309D01*
X168334712Y-105819037D01*
X168586080Y-105701915D01*
X169379163Y-105573789D01*
X170076927Y-105489558D01*
X169241503Y-105376943D01*
X169215547Y-105373388D01*
X168616116Y-105257034D01*
X168317745Y-105135322D01*
X168314726Y-105130732D01*
X168358356Y-105055358D01*
X168703792Y-105030308D01*
X169476960Y-105045865D01*
X169692735Y-105051673D01*
X170509405Y-105047886D01*
X170919055Y-104996882D01*
X171002019Y-104966469D01*
X171377396Y-104908350D01*
X171522091Y-104948743D01*
G37*
X171503874Y-95338888D02*
X171608775Y-95480398D01*
X171643021Y-95673215D01*
X171599231Y-95854559D01*
X171470024Y-95961653D01*
X171285567Y-95968043D01*
X170882827Y-95894778D01*
X170449182Y-95815924D01*
X170096218Y-95870651D01*
X169818864Y-96076687D01*
X169662289Y-96210824D01*
X169202593Y-96412721D01*
X168649992Y-96500426D01*
X168109626Y-96463374D01*
X167686636Y-96290995D01*
X167638833Y-96251074D01*
X167491805Y-96040455D01*
X167484553Y-96013789D01*
X168040961Y-96013789D01*
X168276245Y-96128633D01*
X168751102Y-96162311D01*
X168754262Y-96162139D01*
X169124909Y-96088741D01*
X169331651Y-95958966D01*
X169324584Y-95835602D01*
X169053806Y-95781440D01*
X168858317Y-95788626D01*
X168287497Y-95852804D01*
X168149121Y-95887125D01*
X168040961Y-96013789D01*
X167484553Y-96013789D01*
X167424116Y-95791560D01*
X167435420Y-95553263D01*
X167525370Y-95374443D01*
X167693622Y-95303975D01*
X167823452Y-95317407D01*
X167975844Y-95423037D01*
X168068759Y-95485844D01*
X168505314Y-95529502D01*
X169053806Y-95537262D01*
X169395813Y-95542100D01*
X169868611Y-95538880D01*
X170642783Y-95503119D01*
X170978229Y-95423037D01*
X171084184Y-95367142D01*
X171392705Y-95303975D01*
X171503874Y-95338888D01*
G36*
X171503874Y-95338888D02*
G01*
X171608775Y-95480398D01*
X171643021Y-95673215D01*
X171599231Y-95854559D01*
X171470024Y-95961653D01*
X171285567Y-95968043D01*
X170882827Y-95894778D01*
X170449182Y-95815924D01*
X170096218Y-95870651D01*
X169818864Y-96076687D01*
X169662289Y-96210824D01*
X169202593Y-96412721D01*
X168649992Y-96500426D01*
X168109626Y-96463374D01*
X167686636Y-96290995D01*
X167638833Y-96251074D01*
X167491805Y-96040455D01*
X167484553Y-96013789D01*
X168040961Y-96013789D01*
X168276245Y-96128633D01*
X168751102Y-96162311D01*
X168754262Y-96162139D01*
X169124909Y-96088741D01*
X169331651Y-95958966D01*
X169324584Y-95835602D01*
X169053806Y-95781440D01*
X168858317Y-95788626D01*
X168287497Y-95852804D01*
X168149121Y-95887125D01*
X168040961Y-96013789D01*
X167484553Y-96013789D01*
X167424116Y-95791560D01*
X167435420Y-95553263D01*
X167525370Y-95374443D01*
X167693622Y-95303975D01*
X167823452Y-95317407D01*
X167975844Y-95423037D01*
X168068759Y-95485844D01*
X168505314Y-95529502D01*
X169053806Y-95537262D01*
X169395813Y-95542100D01*
X169868611Y-95538880D01*
X170642783Y-95503119D01*
X170978229Y-95423037D01*
X171084184Y-95367142D01*
X171392705Y-95303975D01*
X171503874Y-95338888D01*
G37*
X167975844Y-89623978D02*
X167976415Y-89630765D01*
X168121524Y-89701773D01*
X168540288Y-89733195D01*
X168600919Y-89737744D01*
X169528066Y-89747725D01*
X170166873Y-89740649D01*
X170231024Y-89737839D01*
X170825115Y-89711818D01*
X171080288Y-89668350D01*
X171087849Y-89649527D01*
X171344703Y-89588975D01*
X171355861Y-89589484D01*
X171461090Y-89670953D01*
X171508837Y-89858037D01*
X171504215Y-90102488D01*
X171452335Y-90356058D01*
X171358309Y-90570499D01*
X171227248Y-90697563D01*
X171105913Y-90730027D01*
X170571855Y-90774101D01*
X169948083Y-90767271D01*
X169544441Y-90707676D01*
X169376048Y-90674738D01*
X168873070Y-90673507D01*
X168539967Y-90674915D01*
X168008305Y-90592163D01*
X167918018Y-90553255D01*
X167689804Y-90369380D01*
X167564224Y-90174568D01*
X167975844Y-90174568D01*
X167983858Y-90200529D01*
X168207837Y-90326821D01*
X168587931Y-90413099D01*
X168919033Y-90408494D01*
X168925777Y-90406572D01*
X169129244Y-90265466D01*
X169112336Y-90250433D01*
X169669177Y-90250433D01*
X169727099Y-90410202D01*
X170005305Y-90499064D01*
X170552951Y-90456514D01*
X170860249Y-90398566D01*
X171058008Y-90320401D01*
X171000900Y-90245073D01*
X170675802Y-90106742D01*
X170231024Y-90055759D01*
X169838254Y-90100773D01*
X169669177Y-90250433D01*
X169112336Y-90250433D01*
X168973975Y-90127418D01*
X168540288Y-90065225D01*
X168211055Y-90085891D01*
X167975844Y-90174568D01*
X167564224Y-90174568D01*
X167531530Y-90123850D01*
X167461373Y-89870478D01*
X167497511Y-89663076D01*
X167658122Y-89555458D01*
X167828618Y-89543498D01*
X167975844Y-89623978D01*
G36*
X167975844Y-89623978D02*
G01*
X167976415Y-89630765D01*
X168121524Y-89701773D01*
X168540288Y-89733195D01*
X168600919Y-89737744D01*
X169528066Y-89747725D01*
X170166873Y-89740649D01*
X170231024Y-89737839D01*
X170825115Y-89711818D01*
X171080288Y-89668350D01*
X171087849Y-89649527D01*
X171344703Y-89588975D01*
X171355861Y-89589484D01*
X171461090Y-89670953D01*
X171508837Y-89858037D01*
X171504215Y-90102488D01*
X171452335Y-90356058D01*
X171358309Y-90570499D01*
X171227248Y-90697563D01*
X171105913Y-90730027D01*
X170571855Y-90774101D01*
X169948083Y-90767271D01*
X169544441Y-90707676D01*
X169376048Y-90674738D01*
X168873070Y-90673507D01*
X168539967Y-90674915D01*
X168008305Y-90592163D01*
X167918018Y-90553255D01*
X167689804Y-90369380D01*
X167564224Y-90174568D01*
X167975844Y-90174568D01*
X167983858Y-90200529D01*
X168207837Y-90326821D01*
X168587931Y-90413099D01*
X168919033Y-90408494D01*
X168925777Y-90406572D01*
X169129244Y-90265466D01*
X169112336Y-90250433D01*
X169669177Y-90250433D01*
X169727099Y-90410202D01*
X170005305Y-90499064D01*
X170552951Y-90456514D01*
X170860249Y-90398566D01*
X171058008Y-90320401D01*
X171000900Y-90245073D01*
X170675802Y-90106742D01*
X170231024Y-90055759D01*
X169838254Y-90100773D01*
X169669177Y-90250433D01*
X169112336Y-90250433D01*
X168973975Y-90127418D01*
X168540288Y-90065225D01*
X168211055Y-90085891D01*
X167975844Y-90174568D01*
X167564224Y-90174568D01*
X167531530Y-90123850D01*
X167461373Y-89870478D01*
X167497511Y-89663076D01*
X167658122Y-89555458D01*
X167828618Y-89543498D01*
X167975844Y-89623978D01*
G37*
X171309455Y-100601129D02*
X171358189Y-100761293D01*
X171366288Y-100806363D01*
X171563142Y-101060940D01*
X171939664Y-101316918D01*
X172327682Y-101618426D01*
X172284597Y-101944990D01*
X171727508Y-102227729D01*
X171628372Y-102256035D01*
X170947758Y-102348009D01*
X170268420Y-102296786D01*
X169726977Y-102110381D01*
X169447294Y-101980260D01*
X169113720Y-101899186D01*
X168917708Y-101923294D01*
X168974219Y-102060241D01*
X169035357Y-102179950D01*
X168781571Y-102193026D01*
X168556068Y-102146696D01*
X168340197Y-101991883D01*
X168362612Y-101806022D01*
X168642679Y-101663012D01*
X168726345Y-101643790D01*
X168965826Y-101606824D01*
X169211385Y-101632330D01*
X169574248Y-101741740D01*
X170165637Y-101956488D01*
X170594810Y-102071785D01*
X171155751Y-102086639D01*
X171205545Y-102080523D01*
X171651737Y-101947018D01*
X171888705Y-101740128D01*
X171825138Y-101535089D01*
X171628063Y-101470561D01*
X171089172Y-101421026D01*
X170507443Y-101434762D01*
X170157712Y-101515068D01*
X170109750Y-101529160D01*
X169974288Y-101457447D01*
X169827165Y-101276943D01*
X169790514Y-101223084D01*
X169601266Y-101065277D01*
X170233622Y-101065277D01*
X170280872Y-101124988D01*
X170568761Y-101159534D01*
X170940253Y-101081072D01*
X170989535Y-100985868D01*
X170680474Y-100939600D01*
X170460854Y-100955934D01*
X170233622Y-101065277D01*
X169601266Y-101065277D01*
X169540595Y-101014686D01*
X169221037Y-100939600D01*
X169111083Y-100944252D01*
X168859285Y-101030830D01*
X168878246Y-101179580D01*
X169175288Y-101328304D01*
X169231455Y-101345117D01*
X169339448Y-101407630D01*
X168963622Y-101402996D01*
X168635083Y-101362913D01*
X168418983Y-101243898D01*
X168314509Y-101007720D01*
X168229841Y-100640705D01*
X169543136Y-100682338D01*
X169957207Y-100692843D01*
X170680474Y-100683135D01*
X170723492Y-100682558D01*
X171105149Y-100613504D01*
X171163434Y-100591071D01*
X171309455Y-100601129D01*
G36*
X171309455Y-100601129D02*
G01*
X171358189Y-100761293D01*
X171366288Y-100806363D01*
X171563142Y-101060940D01*
X171939664Y-101316918D01*
X172327682Y-101618426D01*
X172284597Y-101944990D01*
X171727508Y-102227729D01*
X171628372Y-102256035D01*
X170947758Y-102348009D01*
X170268420Y-102296786D01*
X169726977Y-102110381D01*
X169447294Y-101980260D01*
X169113720Y-101899186D01*
X168917708Y-101923294D01*
X168974219Y-102060241D01*
X169035357Y-102179950D01*
X168781571Y-102193026D01*
X168556068Y-102146696D01*
X168340197Y-101991883D01*
X168362612Y-101806022D01*
X168642679Y-101663012D01*
X168726345Y-101643790D01*
X168965826Y-101606824D01*
X169211385Y-101632330D01*
X169574248Y-101741740D01*
X170165637Y-101956488D01*
X170594810Y-102071785D01*
X171155751Y-102086639D01*
X171205545Y-102080523D01*
X171651737Y-101947018D01*
X171888705Y-101740128D01*
X171825138Y-101535089D01*
X171628063Y-101470561D01*
X171089172Y-101421026D01*
X170507443Y-101434762D01*
X170157712Y-101515068D01*
X170109750Y-101529160D01*
X169974288Y-101457447D01*
X169827165Y-101276943D01*
X169790514Y-101223084D01*
X169601266Y-101065277D01*
X170233622Y-101065277D01*
X170280872Y-101124988D01*
X170568761Y-101159534D01*
X170940253Y-101081072D01*
X170989535Y-100985868D01*
X170680474Y-100939600D01*
X170460854Y-100955934D01*
X170233622Y-101065277D01*
X169601266Y-101065277D01*
X169540595Y-101014686D01*
X169221037Y-100939600D01*
X169111083Y-100944252D01*
X168859285Y-101030830D01*
X168878246Y-101179580D01*
X169175288Y-101328304D01*
X169231455Y-101345117D01*
X169339448Y-101407630D01*
X168963622Y-101402996D01*
X168635083Y-101362913D01*
X168418983Y-101243898D01*
X168314509Y-101007720D01*
X168229841Y-100640705D01*
X169543136Y-100682338D01*
X169957207Y-100692843D01*
X170680474Y-100683135D01*
X170723492Y-100682558D01*
X171105149Y-100613504D01*
X171163434Y-100591071D01*
X171309455Y-100601129D01*
G37*
X168822511Y-97442415D02*
X169007402Y-97493783D01*
X169410474Y-97515088D01*
X169549835Y-97522453D01*
X170237025Y-97519988D01*
X170851453Y-97487789D01*
X171175600Y-97427256D01*
X171275119Y-97406472D01*
X171340230Y-97506631D01*
X171335119Y-97663840D01*
X171201562Y-97771453D01*
X170868622Y-97780425D01*
X170840767Y-97778687D01*
X170548401Y-97783819D01*
X170670369Y-97865777D01*
X171221400Y-98035196D01*
X171671271Y-98203191D01*
X171926955Y-98504714D01*
X171901336Y-98649181D01*
X171726167Y-98748823D01*
X171291955Y-98766291D01*
X171198333Y-98765464D01*
X170769406Y-98805506D01*
X170656955Y-98955225D01*
X170739811Y-99084661D01*
X171080288Y-99153662D01*
X171089834Y-99153689D01*
X171427436Y-99205351D01*
X171489447Y-99301535D01*
X171221400Y-99361873D01*
X171118389Y-99362340D01*
X170551283Y-99326826D01*
X169813395Y-99250078D01*
X169081755Y-99154553D01*
X168533397Y-99062711D01*
X168345350Y-98997011D01*
X168503671Y-98945321D01*
X168688964Y-98907045D01*
X169386955Y-98907045D01*
X169438950Y-98927589D01*
X169810288Y-98983929D01*
X170026751Y-98996407D01*
X170233622Y-98952733D01*
X170185931Y-98917389D01*
X169810288Y-98875850D01*
X169617413Y-98879297D01*
X169386955Y-98907045D01*
X168688964Y-98907045D01*
X169048683Y-98832738D01*
X169810288Y-98704734D01*
X169829504Y-98701505D01*
X170403420Y-98605307D01*
X170980874Y-98484562D01*
X171193177Y-98403849D01*
X171154424Y-98311739D01*
X171002540Y-98192392D01*
X170645798Y-98131566D01*
X170263288Y-98123370D01*
X169640832Y-98182605D01*
X169494604Y-98206331D01*
X169054992Y-98230874D01*
X168664211Y-98126460D01*
X168391466Y-97951988D01*
X168357391Y-97889482D01*
X168822511Y-97889482D01*
X168890223Y-97954508D01*
X169293013Y-97988701D01*
X169471467Y-97974710D01*
X169834895Y-97894931D01*
X169824247Y-97806420D01*
X169410474Y-97764600D01*
X169059911Y-97786435D01*
X168822511Y-97889482D01*
X168357391Y-97889482D01*
X168270280Y-97729689D01*
X168316139Y-97526412D01*
X168540288Y-97407412D01*
X168649611Y-97395009D01*
X168822511Y-97442415D01*
G36*
X168822511Y-97442415D02*
G01*
X169007402Y-97493783D01*
X169410474Y-97515088D01*
X169549835Y-97522453D01*
X170237025Y-97519988D01*
X170851453Y-97487789D01*
X171175600Y-97427256D01*
X171275119Y-97406472D01*
X171340230Y-97506631D01*
X171335119Y-97663840D01*
X171201562Y-97771453D01*
X170868622Y-97780425D01*
X170840767Y-97778687D01*
X170548401Y-97783819D01*
X170670369Y-97865777D01*
X171221400Y-98035196D01*
X171671271Y-98203191D01*
X171926955Y-98504714D01*
X171901336Y-98649181D01*
X171726167Y-98748823D01*
X171291955Y-98766291D01*
X171198333Y-98765464D01*
X170769406Y-98805506D01*
X170656955Y-98955225D01*
X170739811Y-99084661D01*
X171080288Y-99153662D01*
X171089834Y-99153689D01*
X171427436Y-99205351D01*
X171489447Y-99301535D01*
X171221400Y-99361873D01*
X171118389Y-99362340D01*
X170551283Y-99326826D01*
X169813395Y-99250078D01*
X169081755Y-99154553D01*
X168533397Y-99062711D01*
X168345350Y-98997011D01*
X168503671Y-98945321D01*
X168688964Y-98907045D01*
X169386955Y-98907045D01*
X169438950Y-98927589D01*
X169810288Y-98983929D01*
X170026751Y-98996407D01*
X170233622Y-98952733D01*
X170185931Y-98917389D01*
X169810288Y-98875850D01*
X169617413Y-98879297D01*
X169386955Y-98907045D01*
X168688964Y-98907045D01*
X169048683Y-98832738D01*
X169810288Y-98704734D01*
X169829504Y-98701505D01*
X170403420Y-98605307D01*
X170980874Y-98484562D01*
X171193177Y-98403849D01*
X171154424Y-98311739D01*
X171002540Y-98192392D01*
X170645798Y-98131566D01*
X170263288Y-98123370D01*
X169640832Y-98182605D01*
X169494604Y-98206331D01*
X169054992Y-98230874D01*
X168664211Y-98126460D01*
X168391466Y-97951988D01*
X168357391Y-97889482D01*
X168822511Y-97889482D01*
X168890223Y-97954508D01*
X169293013Y-97988701D01*
X169471467Y-97974710D01*
X169834895Y-97894931D01*
X169824247Y-97806420D01*
X169410474Y-97764600D01*
X169059911Y-97786435D01*
X168822511Y-97889482D01*
X168357391Y-97889482D01*
X168270280Y-97729689D01*
X168316139Y-97526412D01*
X168540288Y-97407412D01*
X168649611Y-97395009D01*
X168822511Y-97442415D01*
G37*
X182586012Y-116225050D02*
X182654565Y-116274638D01*
X182764893Y-116407594D01*
X182830593Y-116577739D01*
X182847649Y-116773450D01*
X182844029Y-116823219D01*
X182803800Y-116992400D01*
X182726721Y-117130337D01*
X182621717Y-117229939D01*
X182497714Y-117284117D01*
X182363634Y-117285781D01*
X182290884Y-117262658D01*
X182174365Y-117178685D01*
X182085381Y-117050360D01*
X182029998Y-116893095D01*
X182014285Y-116722298D01*
X182030511Y-116601381D01*
X182096489Y-116429281D01*
X182198229Y-116301952D01*
X182329985Y-116225335D01*
X182411874Y-116207107D01*
X182513002Y-116202948D01*
X182586012Y-116225050D01*
G36*
X182586012Y-116225050D02*
G01*
X182654565Y-116274638D01*
X182764893Y-116407594D01*
X182830593Y-116577739D01*
X182847649Y-116773450D01*
X182844029Y-116823219D01*
X182803800Y-116992400D01*
X182726721Y-117130337D01*
X182621717Y-117229939D01*
X182497714Y-117284117D01*
X182363634Y-117285781D01*
X182290884Y-117262658D01*
X182174365Y-117178685D01*
X182085381Y-117050360D01*
X182029998Y-116893095D01*
X182014285Y-116722298D01*
X182030511Y-116601381D01*
X182096489Y-116429281D01*
X182198229Y-116301952D01*
X182329985Y-116225335D01*
X182411874Y-116207107D01*
X182513002Y-116202948D01*
X182586012Y-116225050D01*
G37*
X184695833Y-116226556D02*
X184802073Y-116300169D01*
X184896778Y-116404329D01*
X184965132Y-116523878D01*
X184988549Y-116603462D01*
X184996689Y-116787460D01*
X184962800Y-116961330D01*
X184892122Y-117109661D01*
X184789895Y-117217043D01*
X184776967Y-117225683D01*
X184651181Y-117280240D01*
X184524404Y-117293073D01*
X184435448Y-117269871D01*
X184371072Y-117220315D01*
X184296758Y-117140122D01*
X184263528Y-117096415D01*
X184186240Y-116943358D01*
X184154612Y-116780309D01*
X184164583Y-116618331D01*
X184212097Y-116468486D01*
X184293094Y-116341836D01*
X184403517Y-116249443D01*
X184539307Y-116202371D01*
X184592876Y-116198650D01*
X184695833Y-116226556D01*
G36*
X184695833Y-116226556D02*
G01*
X184802073Y-116300169D01*
X184896778Y-116404329D01*
X184965132Y-116523878D01*
X184988549Y-116603462D01*
X184996689Y-116787460D01*
X184962800Y-116961330D01*
X184892122Y-117109661D01*
X184789895Y-117217043D01*
X184776967Y-117225683D01*
X184651181Y-117280240D01*
X184524404Y-117293073D01*
X184435448Y-117269871D01*
X184371072Y-117220315D01*
X184296758Y-117140122D01*
X184263528Y-117096415D01*
X184186240Y-116943358D01*
X184154612Y-116780309D01*
X184164583Y-116618331D01*
X184212097Y-116468486D01*
X184293094Y-116341836D01*
X184403517Y-116249443D01*
X184539307Y-116202371D01*
X184592876Y-116198650D01*
X184695833Y-116226556D01*
G37*
X185874929Y-116694613D02*
X185930529Y-116869110D01*
X185947556Y-117087650D01*
X185942099Y-117263834D01*
X185918996Y-117442493D01*
X185873828Y-117614956D01*
X185867604Y-117638847D01*
X185874848Y-117669160D01*
X185918401Y-117686997D01*
X186011784Y-117700770D01*
X186061914Y-117707885D01*
X186253576Y-117764364D01*
X186404291Y-117865485D01*
X186489295Y-117976650D01*
X186519185Y-118015740D01*
X186603380Y-118219624D01*
X186622288Y-118303389D01*
X186639896Y-118448377D01*
X186648273Y-118611933D01*
X186647121Y-118773756D01*
X186636141Y-118913544D01*
X186615033Y-119010996D01*
X186586999Y-119070974D01*
X186479176Y-119208777D01*
X186325895Y-119325024D01*
X186139716Y-119409192D01*
X186108807Y-119415445D01*
X186015303Y-119423167D01*
X185887154Y-119426253D01*
X185742635Y-119424021D01*
X185582326Y-119415450D01*
X185450552Y-119398850D01*
X185337151Y-119370281D01*
X185218845Y-119325359D01*
X185192040Y-119314279D01*
X185038376Y-119263046D01*
X184874703Y-119231444D01*
X184690876Y-119219252D01*
X184476749Y-119226247D01*
X184222176Y-119252209D01*
X183917010Y-119296914D01*
X183902997Y-119299179D01*
X183745917Y-119323978D01*
X183609340Y-119343627D01*
X183482768Y-119358734D01*
X183355699Y-119369910D01*
X183217632Y-119377765D01*
X183058068Y-119382908D01*
X182866506Y-119385948D01*
X182632445Y-119387495D01*
X182345385Y-119388160D01*
X182198994Y-119388284D01*
X181939173Y-119387883D01*
X181731315Y-119386289D01*
X181567642Y-119383134D01*
X181440377Y-119378049D01*
X181341742Y-119370667D01*
X181263959Y-119360617D01*
X181199252Y-119347533D01*
X181139841Y-119331045D01*
X180955260Y-119265750D01*
X180726326Y-119150269D01*
X180554875Y-119012311D01*
X180439010Y-118849695D01*
X180376835Y-118660240D01*
X180366452Y-118441764D01*
X180380161Y-118317027D01*
X180412137Y-118207697D01*
X180470117Y-118106562D01*
X180484389Y-118087185D01*
X180561833Y-118007954D01*
X182426441Y-118007954D01*
X182427374Y-118041829D01*
X182470170Y-118103185D01*
X182558754Y-118198036D01*
X182771683Y-118386307D01*
X183006357Y-118536590D01*
X183239547Y-118627535D01*
X183314136Y-118645629D01*
X183467025Y-118668601D01*
X183607817Y-118662574D01*
X183767867Y-118627549D01*
X183796399Y-118619192D01*
X184015201Y-118524025D01*
X184240465Y-118374569D01*
X184462850Y-118176880D01*
X184661301Y-117976650D01*
X183566843Y-117977136D01*
X183360262Y-117977688D01*
X183116452Y-117979594D01*
X182898129Y-117982687D01*
X182712895Y-117986791D01*
X182568353Y-117991729D01*
X182472105Y-117997326D01*
X182431754Y-118003406D01*
X182426441Y-118007954D01*
X180561833Y-118007954D01*
X180592585Y-117976492D01*
X180735942Y-117868243D01*
X180892139Y-117777616D01*
X181038858Y-117719788D01*
X181113739Y-117694894D01*
X181145379Y-117664823D01*
X181141258Y-117617387D01*
X181140337Y-117614160D01*
X181080895Y-117393776D01*
X181043800Y-117220101D01*
X181028607Y-117080741D01*
X181034872Y-116963299D01*
X181062151Y-116855378D01*
X181105815Y-116754275D01*
X181743598Y-116754275D01*
X181748445Y-116925154D01*
X181767338Y-117080295D01*
X181805908Y-117205047D01*
X181869843Y-117316867D01*
X181964831Y-117433212D01*
X182086844Y-117540190D01*
X182243554Y-117611343D01*
X182305864Y-117629202D01*
X182384378Y-117649395D01*
X182422586Y-117655900D01*
X182487024Y-117642246D01*
X182607655Y-117607522D01*
X182699772Y-117569795D01*
X182702723Y-117568183D01*
X182803061Y-117488605D01*
X182904198Y-117368887D01*
X182991110Y-117229622D01*
X183048775Y-117091403D01*
X183052931Y-117076392D01*
X183079078Y-116924210D01*
X183083945Y-116823993D01*
X183870837Y-116823993D01*
X183905349Y-117038673D01*
X183976909Y-117236745D01*
X184080689Y-117403958D01*
X184211861Y-117526065D01*
X184247837Y-117548534D01*
X184428402Y-117622684D01*
X184607688Y-117635065D01*
X184780433Y-117586954D01*
X184941375Y-117479627D01*
X185085253Y-117314358D01*
X185124117Y-117257110D01*
X185162444Y-117192246D01*
X185186587Y-117129028D01*
X185200500Y-117051174D01*
X185208138Y-116942403D01*
X185213453Y-116786434D01*
X185214733Y-116741479D01*
X185217151Y-116594889D01*
X185213517Y-116491098D01*
X185201606Y-116413590D01*
X185179194Y-116345851D01*
X185144055Y-116271364D01*
X185088220Y-116174312D01*
X184956111Y-116016671D01*
X184806418Y-115913211D01*
X184646514Y-115862225D01*
X184483770Y-115862009D01*
X184325558Y-115910854D01*
X184179249Y-116007054D01*
X184052215Y-116148904D01*
X183951828Y-116334696D01*
X183885459Y-116562724D01*
X183878200Y-116606953D01*
X183873370Y-116749321D01*
X183870837Y-116823993D01*
X183083945Y-116823993D01*
X183087572Y-116749321D01*
X183079293Y-116572878D01*
X183055117Y-116416033D01*
X183015923Y-116299940D01*
X183013592Y-116295531D01*
X182933463Y-116172999D01*
X182830313Y-116052909D01*
X182721459Y-115953291D01*
X182624218Y-115892171D01*
X182597876Y-115881972D01*
X182427425Y-115852671D01*
X182256729Y-115881389D01*
X182094211Y-115964077D01*
X181948297Y-116096685D01*
X181827409Y-116275166D01*
X181796959Y-116335955D01*
X181768028Y-116411533D01*
X181751695Y-116493844D01*
X181744654Y-116601789D01*
X181743598Y-116754275D01*
X181105815Y-116754275D01*
X181110000Y-116744584D01*
X181221069Y-116575111D01*
X181378776Y-116433467D01*
X181588170Y-116319285D01*
X181756927Y-116246275D01*
X181757469Y-116015067D01*
X181765943Y-115847698D01*
X181799083Y-115698050D01*
X181862939Y-115579805D01*
X181963457Y-115477439D01*
X181972246Y-115470484D01*
X182065402Y-115412849D01*
X182189899Y-115352926D01*
X182324248Y-115299387D01*
X182446962Y-115260904D01*
X182536552Y-115246150D01*
X182539327Y-115246138D01*
X182570266Y-115240679D01*
X182579633Y-115216053D01*
X182567140Y-115158848D01*
X182532505Y-115055650D01*
X182500963Y-114913704D01*
X182512307Y-114715176D01*
X182584980Y-114513020D01*
X182610432Y-114469414D01*
X182702378Y-114348551D01*
X182829412Y-114211213D01*
X182978688Y-114069887D01*
X183137358Y-113937061D01*
X183292576Y-113825221D01*
X183309697Y-113814244D01*
X183409132Y-113754261D01*
X183535737Y-113682063D01*
X183677746Y-113603879D01*
X183823390Y-113525938D01*
X183960904Y-113454468D01*
X184078519Y-113395699D01*
X184164468Y-113355860D01*
X184206984Y-113341179D01*
X184210870Y-113347602D01*
X184204105Y-113395930D01*
X184180226Y-113476087D01*
X184179945Y-113476900D01*
X184150473Y-113616136D01*
X184147573Y-113762290D01*
X184151174Y-113795668D01*
X184166451Y-113867760D01*
X184198469Y-113930535D01*
X184257714Y-114000875D01*
X184354677Y-114095665D01*
X184390064Y-114129852D01*
X184501500Y-114256933D01*
X184562600Y-114373349D01*
X184578640Y-114493193D01*
X184554895Y-114630560D01*
X184539809Y-114687449D01*
X184526448Y-114775434D01*
X184545106Y-114835588D01*
X184604665Y-114885291D01*
X184714005Y-114941921D01*
X184924707Y-115071623D01*
X185111631Y-115248687D01*
X185250510Y-115455261D01*
X185280107Y-115517666D01*
X185306161Y-115592987D01*
X185321487Y-115679274D01*
X185328913Y-115794026D01*
X185331268Y-115954741D01*
X185332651Y-116298207D01*
X185473240Y-116361150D01*
X185621639Y-116437353D01*
X185774164Y-116554060D01*
X185803436Y-116594889D01*
X185874929Y-116694613D01*
G36*
X185874929Y-116694613D02*
G01*
X185930529Y-116869110D01*
X185947556Y-117087650D01*
X185942099Y-117263834D01*
X185918996Y-117442493D01*
X185873828Y-117614956D01*
X185867604Y-117638847D01*
X185874848Y-117669160D01*
X185918401Y-117686997D01*
X186011784Y-117700770D01*
X186061914Y-117707885D01*
X186253576Y-117764364D01*
X186404291Y-117865485D01*
X186489295Y-117976650D01*
X186519185Y-118015740D01*
X186603380Y-118219624D01*
X186622288Y-118303389D01*
X186639896Y-118448377D01*
X186648273Y-118611933D01*
X186647121Y-118773756D01*
X186636141Y-118913544D01*
X186615033Y-119010996D01*
X186586999Y-119070974D01*
X186479176Y-119208777D01*
X186325895Y-119325024D01*
X186139716Y-119409192D01*
X186108807Y-119415445D01*
X186015303Y-119423167D01*
X185887154Y-119426253D01*
X185742635Y-119424021D01*
X185582326Y-119415450D01*
X185450552Y-119398850D01*
X185337151Y-119370281D01*
X185218845Y-119325359D01*
X185192040Y-119314279D01*
X185038376Y-119263046D01*
X184874703Y-119231444D01*
X184690876Y-119219252D01*
X184476749Y-119226247D01*
X184222176Y-119252209D01*
X183917010Y-119296914D01*
X183902997Y-119299179D01*
X183745917Y-119323978D01*
X183609340Y-119343627D01*
X183482768Y-119358734D01*
X183355699Y-119369910D01*
X183217632Y-119377765D01*
X183058068Y-119382908D01*
X182866506Y-119385948D01*
X182632445Y-119387495D01*
X182345385Y-119388160D01*
X182198994Y-119388284D01*
X181939173Y-119387883D01*
X181731315Y-119386289D01*
X181567642Y-119383134D01*
X181440377Y-119378049D01*
X181341742Y-119370667D01*
X181263959Y-119360617D01*
X181199252Y-119347533D01*
X181139841Y-119331045D01*
X180955260Y-119265750D01*
X180726326Y-119150269D01*
X180554875Y-119012311D01*
X180439010Y-118849695D01*
X180376835Y-118660240D01*
X180366452Y-118441764D01*
X180380161Y-118317027D01*
X180412137Y-118207697D01*
X180470117Y-118106562D01*
X180484389Y-118087185D01*
X180561833Y-118007954D01*
X182426441Y-118007954D01*
X182427374Y-118041829D01*
X182470170Y-118103185D01*
X182558754Y-118198036D01*
X182771683Y-118386307D01*
X183006357Y-118536590D01*
X183239547Y-118627535D01*
X183314136Y-118645629D01*
X183467025Y-118668601D01*
X183607817Y-118662574D01*
X183767867Y-118627549D01*
X183796399Y-118619192D01*
X184015201Y-118524025D01*
X184240465Y-118374569D01*
X184462850Y-118176880D01*
X184661301Y-117976650D01*
X183566843Y-117977136D01*
X183360262Y-117977688D01*
X183116452Y-117979594D01*
X182898129Y-117982687D01*
X182712895Y-117986791D01*
X182568353Y-117991729D01*
X182472105Y-117997326D01*
X182431754Y-118003406D01*
X182426441Y-118007954D01*
X180561833Y-118007954D01*
X180592585Y-117976492D01*
X180735942Y-117868243D01*
X180892139Y-117777616D01*
X181038858Y-117719788D01*
X181113739Y-117694894D01*
X181145379Y-117664823D01*
X181141258Y-117617387D01*
X181140337Y-117614160D01*
X181080895Y-117393776D01*
X181043800Y-117220101D01*
X181028607Y-117080741D01*
X181034872Y-116963299D01*
X181062151Y-116855378D01*
X181105815Y-116754275D01*
X181743598Y-116754275D01*
X181748445Y-116925154D01*
X181767338Y-117080295D01*
X181805908Y-117205047D01*
X181869843Y-117316867D01*
X181964831Y-117433212D01*
X182086844Y-117540190D01*
X182243554Y-117611343D01*
X182305864Y-117629202D01*
X182384378Y-117649395D01*
X182422586Y-117655900D01*
X182487024Y-117642246D01*
X182607655Y-117607522D01*
X182699772Y-117569795D01*
X182702723Y-117568183D01*
X182803061Y-117488605D01*
X182904198Y-117368887D01*
X182991110Y-117229622D01*
X183048775Y-117091403D01*
X183052931Y-117076392D01*
X183079078Y-116924210D01*
X183083945Y-116823993D01*
X183870837Y-116823993D01*
X183905349Y-117038673D01*
X183976909Y-117236745D01*
X184080689Y-117403958D01*
X184211861Y-117526065D01*
X184247837Y-117548534D01*
X184428402Y-117622684D01*
X184607688Y-117635065D01*
X184780433Y-117586954D01*
X184941375Y-117479627D01*
X185085253Y-117314358D01*
X185124117Y-117257110D01*
X185162444Y-117192246D01*
X185186587Y-117129028D01*
X185200500Y-117051174D01*
X185208138Y-116942403D01*
X185213453Y-116786434D01*
X185214733Y-116741479D01*
X185217151Y-116594889D01*
X185213517Y-116491098D01*
X185201606Y-116413590D01*
X185179194Y-116345851D01*
X185144055Y-116271364D01*
X185088220Y-116174312D01*
X184956111Y-116016671D01*
X184806418Y-115913211D01*
X184646514Y-115862225D01*
X184483770Y-115862009D01*
X184325558Y-115910854D01*
X184179249Y-116007054D01*
X184052215Y-116148904D01*
X183951828Y-116334696D01*
X183885459Y-116562724D01*
X183878200Y-116606953D01*
X183873370Y-116749321D01*
X183870837Y-116823993D01*
X183083945Y-116823993D01*
X183087572Y-116749321D01*
X183079293Y-116572878D01*
X183055117Y-116416033D01*
X183015923Y-116299940D01*
X183013592Y-116295531D01*
X182933463Y-116172999D01*
X182830313Y-116052909D01*
X182721459Y-115953291D01*
X182624218Y-115892171D01*
X182597876Y-115881972D01*
X182427425Y-115852671D01*
X182256729Y-115881389D01*
X182094211Y-115964077D01*
X181948297Y-116096685D01*
X181827409Y-116275166D01*
X181796959Y-116335955D01*
X181768028Y-116411533D01*
X181751695Y-116493844D01*
X181744654Y-116601789D01*
X181743598Y-116754275D01*
X181105815Y-116754275D01*
X181110000Y-116744584D01*
X181221069Y-116575111D01*
X181378776Y-116433467D01*
X181588170Y-116319285D01*
X181756927Y-116246275D01*
X181757469Y-116015067D01*
X181765943Y-115847698D01*
X181799083Y-115698050D01*
X181862939Y-115579805D01*
X181963457Y-115477439D01*
X181972246Y-115470484D01*
X182065402Y-115412849D01*
X182189899Y-115352926D01*
X182324248Y-115299387D01*
X182446962Y-115260904D01*
X182536552Y-115246150D01*
X182539327Y-115246138D01*
X182570266Y-115240679D01*
X182579633Y-115216053D01*
X182567140Y-115158848D01*
X182532505Y-115055650D01*
X182500963Y-114913704D01*
X182512307Y-114715176D01*
X182584980Y-114513020D01*
X182610432Y-114469414D01*
X182702378Y-114348551D01*
X182829412Y-114211213D01*
X182978688Y-114069887D01*
X183137358Y-113937061D01*
X183292576Y-113825221D01*
X183309697Y-113814244D01*
X183409132Y-113754261D01*
X183535737Y-113682063D01*
X183677746Y-113603879D01*
X183823390Y-113525938D01*
X183960904Y-113454468D01*
X184078519Y-113395699D01*
X184164468Y-113355860D01*
X184206984Y-113341179D01*
X184210870Y-113347602D01*
X184204105Y-113395930D01*
X184180226Y-113476087D01*
X184179945Y-113476900D01*
X184150473Y-113616136D01*
X184147573Y-113762290D01*
X184151174Y-113795668D01*
X184166451Y-113867760D01*
X184198469Y-113930535D01*
X184257714Y-114000875D01*
X184354677Y-114095665D01*
X184390064Y-114129852D01*
X184501500Y-114256933D01*
X184562600Y-114373349D01*
X184578640Y-114493193D01*
X184554895Y-114630560D01*
X184539809Y-114687449D01*
X184526448Y-114775434D01*
X184545106Y-114835588D01*
X184604665Y-114885291D01*
X184714005Y-114941921D01*
X184924707Y-115071623D01*
X185111631Y-115248687D01*
X185250510Y-115455261D01*
X185280107Y-115517666D01*
X185306161Y-115592987D01*
X185321487Y-115679274D01*
X185328913Y-115794026D01*
X185331268Y-115954741D01*
X185332651Y-116298207D01*
X185473240Y-116361150D01*
X185621639Y-116437353D01*
X185774164Y-116554060D01*
X185803436Y-116594889D01*
X185874929Y-116694613D01*
G37*
G36*
X174094180Y-118291918D02*
G01*
X174144781Y-118351895D01*
X174175142Y-118451858D01*
X174185262Y-118591806D01*
X174175241Y-118731754D01*
X174145178Y-118831717D01*
X174095073Y-118891695D01*
X174024925Y-118911688D01*
X173953388Y-118892241D01*
X173902291Y-118833900D01*
X173871632Y-118736666D01*
X173861412Y-118600538D01*
X173861412Y-118591012D01*
X173871533Y-118451412D01*
X173901894Y-118351697D01*
X173952495Y-118291868D01*
X174023337Y-118271925D01*
X174094180Y-118291918D01*
G37*
G36*
X176837975Y-117478307D02*
G01*
X177350605Y-117478307D01*
X177459825Y-117483673D01*
X177567993Y-117499718D01*
X177674067Y-117526288D01*
X177777027Y-117563128D01*
X177875879Y-117609882D01*
X177969673Y-117666099D01*
X178057505Y-117731240D01*
X178138529Y-117804676D01*
X178211965Y-117885700D01*
X178277106Y-117973532D01*
X178333324Y-118067326D01*
X178380077Y-118166179D01*
X178416917Y-118269138D01*
X178443487Y-118375212D01*
X178459532Y-118483380D01*
X178464898Y-118592600D01*
X178459532Y-118701820D01*
X178443487Y-118809988D01*
X178416917Y-118916062D01*
X178380077Y-119019021D01*
X178333324Y-119117874D01*
X178277106Y-119211668D01*
X178211965Y-119299500D01*
X178138529Y-119380524D01*
X178057505Y-119453960D01*
X177969673Y-119519101D01*
X177875879Y-119575318D01*
X177777027Y-119622072D01*
X177674067Y-119658912D01*
X177567993Y-119685482D01*
X177459825Y-119701527D01*
X177350605Y-119706893D01*
X176837975Y-119706893D01*
X173580425Y-119706893D01*
X173067795Y-119706893D01*
X172958575Y-119701527D01*
X172850407Y-119685482D01*
X172744333Y-119658912D01*
X172641373Y-119622072D01*
X172542521Y-119575318D01*
X172448727Y-119519101D01*
X172360895Y-119453960D01*
X172279871Y-119380524D01*
X172206435Y-119299500D01*
X172141294Y-119211668D01*
X172085076Y-119117874D01*
X172038323Y-119019021D01*
X172001483Y-118916062D01*
X171974913Y-118809988D01*
X171958868Y-118701820D01*
X171953502Y-118592600D01*
X173580425Y-118592600D01*
X173588164Y-118728827D01*
X173611381Y-118850172D01*
X173650077Y-118956634D01*
X173704250Y-119048213D01*
X173759217Y-119106156D01*
X173832044Y-119152988D01*
X173920348Y-119183944D01*
X174021750Y-119194263D01*
X174123548Y-119183745D01*
X174213044Y-119152194D01*
X174287259Y-119105164D01*
X174343219Y-119048213D01*
X174356193Y-119027575D01*
X174545625Y-119027575D01*
X174548006Y-119083931D01*
X174564675Y-119127588D01*
X174606545Y-119162116D01*
X174684531Y-119173625D01*
X174764303Y-119166084D01*
X174811531Y-119143463D01*
X174840982Y-119034719D01*
X174905987Y-119034719D01*
X174916306Y-119114888D01*
X174950437Y-119156163D01*
X175048862Y-119175213D01*
X175669575Y-119175213D01*
X175768000Y-119132350D01*
X175809275Y-119032338D01*
X175794392Y-118949986D01*
X175749744Y-118874381D01*
X175684061Y-118807309D01*
X175606075Y-118750556D01*
X175521938Y-118699359D01*
X175437800Y-118648956D01*
X175359814Y-118595577D01*
X175294131Y-118535450D01*
X175249483Y-118469966D01*
X175234600Y-118400512D01*
X175245713Y-118360031D01*
X175270319Y-118317169D01*
X175312388Y-118286212D01*
X175391763Y-118271925D01*
X175479869Y-118309231D01*
X175521938Y-118383050D01*
X175528288Y-118419562D01*
X175528288Y-118429087D01*
X175530669Y-118481475D01*
X175545750Y-118521162D01*
X175588613Y-118549737D01*
X175669575Y-118559262D01*
X175758078Y-118544181D01*
X175801338Y-118498937D01*
X175805229Y-118459250D01*
X175872775Y-118459250D01*
X175904525Y-118546562D01*
X176233138Y-119110125D01*
X176283938Y-119158544D01*
X176352994Y-119179975D01*
X176418081Y-119163306D01*
X176461738Y-119129175D01*
X176476025Y-119111713D01*
X176806225Y-118546562D01*
X176837975Y-118460837D01*
X176817338Y-118405672D01*
X176755425Y-118354475D01*
X176660175Y-118319550D01*
X176605406Y-118340981D01*
X176563338Y-118405275D01*
X176355375Y-118805325D01*
X176147413Y-118405275D01*
X176121219Y-118361619D01*
X176093438Y-118334631D01*
X176042638Y-118321137D01*
X175955325Y-118354475D01*
X175893413Y-118405275D01*
X175872775Y-118459250D01*
X175805229Y-118459250D01*
X175809275Y-118417975D01*
X175796134Y-118311701D01*
X175756711Y-118213011D01*
X175691006Y-118121906D01*
X175604047Y-118049146D01*
X175500859Y-118005490D01*
X175381444Y-117990937D01*
X175261940Y-118005666D01*
X175158488Y-118049851D01*
X175071087Y-118123494D01*
X175004942Y-118216010D01*
X174965254Y-118316816D01*
X174952025Y-118425912D01*
X174961947Y-118514019D01*
X174991712Y-118597363D01*
X175035369Y-118670388D01*
X175086962Y-118727538D01*
X175198087Y-118815247D01*
X175296513Y-118868825D01*
X175336200Y-118884700D01*
X175336200Y-118892638D01*
X175045687Y-118892638D01*
X174952819Y-118907719D01*
X174915512Y-118953756D01*
X174905987Y-119034719D01*
X174840982Y-119034719D01*
X174842487Y-119029163D01*
X174842487Y-119022813D01*
X174840106Y-118967250D01*
X174825025Y-118924388D01*
X174783155Y-118888669D01*
X174705169Y-118876763D01*
X174624008Y-118885097D01*
X174572612Y-118910100D01*
X174545625Y-119021225D01*
X174545625Y-119027575D01*
X174356193Y-119027575D01*
X174385883Y-118980347D01*
X174420212Y-118900575D01*
X174445789Y-118805501D01*
X174461135Y-118702314D01*
X174466250Y-118591012D01*
X174462105Y-118490294D01*
X174449669Y-118399807D01*
X174428944Y-118319550D01*
X174389455Y-118218942D01*
X174345600Y-118142544D01*
X174290236Y-118083409D01*
X174216219Y-118034594D01*
X174126327Y-118001852D01*
X174023337Y-117990937D01*
X173920745Y-118001653D01*
X173832044Y-118033800D01*
X173759019Y-118081822D01*
X173703456Y-118140162D01*
X173661189Y-118209219D01*
X173628050Y-118289387D01*
X173601592Y-118386578D01*
X173585717Y-118487649D01*
X173580425Y-118592600D01*
X171953502Y-118592600D01*
X171958868Y-118483380D01*
X171974913Y-118375212D01*
X172001483Y-118269138D01*
X172038323Y-118166179D01*
X172085076Y-118067326D01*
X172141294Y-117973532D01*
X172206435Y-117885700D01*
X172279871Y-117804676D01*
X172360895Y-117731240D01*
X172448727Y-117666099D01*
X172542521Y-117609882D01*
X172641373Y-117563128D01*
X172744333Y-117526288D01*
X172850407Y-117499718D01*
X172958575Y-117483673D01*
X173067795Y-117478307D01*
X173580425Y-117478307D01*
X176837975Y-117478307D01*
G37*
D11*
X180567064Y-94715000D02*
X180112936Y-94715000D01*
X180567064Y-93245000D02*
X180112936Y-93245000D01*
X184020000Y-90440000D02*
X184020000Y-92440000D01*
X184020000Y-92440000D02*
X186820000Y-92440000D01*
X186820000Y-90440000D02*
X184020000Y-90440000D01*
X186820000Y-92440000D02*
X186820000Y-90440000D01*
X184807775Y-93245000D02*
X185261903Y-93245000D01*
X184807775Y-94715000D02*
X185261903Y-94715000D01*
X181740000Y-92440000D02*
X181740000Y-90440000D01*
X181740000Y-90440000D02*
X178940000Y-90440000D01*
X178940000Y-92440000D02*
X181740000Y-92440000D01*
X178940000Y-90440000D02*
X178940000Y-92440000D01*
%LPC*%
D14*
X189425247Y-96697800D02*
G75*
G03*
X189425247Y-96697800I-576247J0D01*
G01*
D15*
X190093600Y-99999800D02*
X187604400Y-99999800D01*
X187604400Y-98018600D01*
X190093600Y-98018600D01*
X190093600Y-99999800D01*
G36*
X190093600Y-99999800D02*
G01*
X187604400Y-99999800D01*
X187604400Y-98018600D01*
X190093600Y-98018600D01*
X190093600Y-99999800D01*
G37*
X190068200Y-95377000D02*
X187629800Y-95377000D01*
X187629800Y-93446600D01*
X190068200Y-93446600D01*
X190068200Y-95377000D01*
G36*
X190068200Y-95377000D02*
G01*
X187629800Y-95377000D01*
X187629800Y-93446600D01*
X190068200Y-93446600D01*
X190068200Y-95377000D01*
G37*
D14*
X177030047Y-96774000D02*
G75*
G03*
X177030047Y-96774000I-576247J0D01*
G01*
D15*
X177698400Y-100076000D02*
X175209200Y-100076000D01*
X175209200Y-98094800D01*
X177698400Y-98094800D01*
X177698400Y-100076000D01*
G36*
X177698400Y-100076000D02*
G01*
X175209200Y-100076000D01*
X175209200Y-98094800D01*
X177698400Y-98094800D01*
X177698400Y-100076000D01*
G37*
X177673000Y-95453200D02*
X175234600Y-95453200D01*
X175234600Y-93522800D01*
X177673000Y-93522800D01*
X177673000Y-95453200D01*
G36*
X177673000Y-95453200D02*
G01*
X175234600Y-95453200D01*
X175234600Y-93522800D01*
X177673000Y-93522800D01*
X177673000Y-95453200D01*
G37*
D16*
X188849000Y-98983800D03*
D17*
X188849000Y-94411800D03*
D18*
X172068800Y-109468600D03*
D19*
X172068800Y-112008600D03*
D18*
X174608800Y-109468600D03*
X174608800Y-112008600D03*
D20*
X177148800Y-109468600D03*
X177148800Y-112008600D03*
D16*
X176453800Y-99060000D03*
D17*
X176453800Y-94488000D03*
D21*
X181340000Y-93980000D03*
X179340000Y-93980000D03*
D22*
X184695000Y-91440000D03*
D23*
X186145000Y-91440000D03*
D24*
X184034839Y-93980000D03*
X186034839Y-93980000D03*
D25*
X181065000Y-91440000D03*
D26*
X179615000Y-91440000D03*
%LPD*%
M02*
