G04 #@! TF.GenerationSoftware,KiCad,Pcbnew,7.0.2*
G04 #@! TF.CreationDate,2023-06-19T20:00:18-05:00*
G04 #@! TF.ProjectId,HankPropane2.0,48616e6b-5072-46f7-9061-6e65322e302e,rev?*
G04 #@! TF.SameCoordinates,Original*
G04 #@! TF.FileFunction,Soldermask,Bot*
G04 #@! TF.FilePolarity,Negative*
%FSLAX46Y46*%
G04 Gerber Fmt 4.6, Leading zero omitted, Abs format (unit mm)*
G04 Created by KiCad (PCBNEW 7.0.2) date 2023-06-19 20:00:18*
%MOMM*%
%LPD*%
G01*
G04 APERTURE LIST*
G04 Aperture macros list*
%AMRoundRect*
0 Rectangle with rounded corners*
0 $1 Rounding radius*
0 $2 $3 $4 $5 $6 $7 $8 $9 X,Y pos of 4 corners*
0 Add a 4 corners polygon primitive as box body*
4,1,4,$2,$3,$4,$5,$6,$7,$8,$9,$2,$3,0*
0 Add four circle primitives for the rounded corners*
1,1,$1+$1,$2,$3*
1,1,$1+$1,$4,$5*
1,1,$1+$1,$6,$7*
1,1,$1+$1,$8,$9*
0 Add four rect primitives between the rounded corners*
20,1,$1+$1,$2,$3,$4,$5,0*
20,1,$1+$1,$4,$5,$6,$7,0*
20,1,$1+$1,$6,$7,$8,$9,0*
20,1,$1+$1,$8,$9,$2,$3,0*%
%AMFreePoly0*
4,1,6,1.000000,0.000000,0.500000,-0.750000,-0.500000,-0.750000,-0.500000,0.750000,0.500000,0.750000,1.000000,0.000000,1.000000,0.000000,$1*%
%AMFreePoly1*
4,1,6,0.500000,-0.750000,-0.650000,-0.750000,-0.150000,0.000000,-0.650000,0.750000,0.500000,0.750000,0.500000,-0.750000,0.500000,-0.750000,$1*%
G04 Aperture macros list end*
%ADD10C,1.152495*%
%ADD11C,0.100000*%
%ADD12RoundRect,0.250000X-0.625000X0.400000X-0.625000X-0.400000X0.625000X-0.400000X0.625000X0.400000X0*%
%ADD13R,2.032000X1.524000*%
%ADD14R,2.095500X1.397000*%
%ADD15O,1.727200X1.727200*%
%ADD16R,1.727200X1.727200*%
%ADD17C,1.727200*%
%ADD18FreePoly0,270.000000*%
%ADD19FreePoly1,270.000000*%
G04 APERTURE END LIST*
D10*
X189425247Y-96697800D02*
G75*
G03*
X189425247Y-96697800I-576247J0D01*
G01*
D11*
X190093600Y-99999800D02*
X187604400Y-99999800D01*
X187604400Y-98018600D01*
X190093600Y-98018600D01*
X190093600Y-99999800D01*
G36*
X190093600Y-99999800D02*
G01*
X187604400Y-99999800D01*
X187604400Y-98018600D01*
X190093600Y-98018600D01*
X190093600Y-99999800D01*
G37*
X190068200Y-95377000D02*
X187629800Y-95377000D01*
X187629800Y-93446600D01*
X190068200Y-93446600D01*
X190068200Y-95377000D01*
G36*
X190068200Y-95377000D02*
G01*
X187629800Y-95377000D01*
X187629800Y-93446600D01*
X190068200Y-93446600D01*
X190068200Y-95377000D01*
G37*
D10*
X177030047Y-96774000D02*
G75*
G03*
X177030047Y-96774000I-576247J0D01*
G01*
D11*
X177698400Y-100076000D02*
X175209200Y-100076000D01*
X175209200Y-98094800D01*
X177698400Y-98094800D01*
X177698400Y-100076000D01*
G36*
X177698400Y-100076000D02*
G01*
X175209200Y-100076000D01*
X175209200Y-98094800D01*
X177698400Y-98094800D01*
X177698400Y-100076000D01*
G37*
X177673000Y-95453200D02*
X175234600Y-95453200D01*
X175234600Y-93522800D01*
X177673000Y-93522800D01*
X177673000Y-95453200D01*
G36*
X177673000Y-95453200D02*
G01*
X175234600Y-95453200D01*
X175234600Y-93522800D01*
X177673000Y-93522800D01*
X177673000Y-95453200D01*
G37*
D12*
X176453800Y-88620000D03*
X176453800Y-91720000D03*
X188849000Y-88620000D03*
X188849000Y-91720000D03*
D13*
X188849000Y-98983800D03*
D14*
X188849000Y-94411800D03*
D15*
X172068800Y-109468600D03*
D16*
X172068800Y-112008600D03*
D15*
X174608800Y-109468600D03*
X174608800Y-112008600D03*
D17*
X177148800Y-109468600D03*
X177148800Y-112008600D03*
D13*
X176453800Y-99060000D03*
D14*
X176453800Y-94488000D03*
D18*
X184825476Y-89430298D03*
D19*
X184825476Y-90880298D03*
D18*
X180340000Y-89445000D03*
D19*
X180340000Y-90895000D03*
M02*
