%TF.GenerationSoftware,KiCad,Pcbnew,(6.0.1)*%
%TF.CreationDate,2022-06-11T13:52:41-05:00*%
%TF.ProjectId,HankPropane2.0,48616e6b-5072-46f7-9061-6e65322e302e,rev?*%
%TF.SameCoordinates,Original*%
%TF.FileFunction,Copper,L1,Top*%
%TF.FilePolarity,Positive*%
%FSLAX46Y46*%
G04 Gerber Fmt 4.6, Leading zero omitted, Abs format (unit mm)*
G04 Created by KiCad (PCBNEW (6.0.1)) date 2022-06-11 13:52:41*
%MOMM*%
%LPD*%
G01*
G04 APERTURE LIST*
%TA.AperFunction,ComponentPad*%
%ADD10O,1.727200X1.727200*%
%TD*%
%TA.AperFunction,ComponentPad*%
%ADD11R,1.727200X1.727200*%
%TD*%
%TA.AperFunction,ComponentPad*%
%ADD12C,1.727200*%
%TD*%
G04 APERTURE END LIST*
D10*
%TO.P,X1,1,VCC*%
%TO.N,+3V3*%
X172068800Y-109468600D03*
D11*
%TO.P,X1,2,GND*%
%TO.N,GND*%
X172068800Y-112008600D03*
D10*
%TO.P,X1,3,SDA*%
%TO.N,unconnected-(X1-Pad3)*%
X174608800Y-109468600D03*
%TO.P,X1,4,SCL*%
%TO.N,unconnected-(X1-Pad4)*%
X174608800Y-112008600D03*
D12*
%TO.P,X1,5,GPIO1*%
%TO.N,unconnected-(X1-Pad5)*%
X177148800Y-109468600D03*
%TO.P,X1,6,GPIO2*%
%TO.N,unconnected-(X1-Pad6)*%
X177148800Y-112008600D03*
%TD*%
%TA.AperFunction,Conductor*%
%TO.N,GND*%
G36*
X181877601Y-75920839D02*
G01*
X183892502Y-76045215D01*
X183901610Y-76046111D01*
X185709979Y-76290484D01*
X185728896Y-76294540D01*
X186825107Y-76619343D01*
X186847524Y-76625985D01*
X186907156Y-76664516D01*
X186913628Y-76672681D01*
X186982582Y-76767493D01*
X187297535Y-77200554D01*
X187320891Y-77261000D01*
X187447269Y-78419452D01*
X187452492Y-78467333D01*
X187453154Y-78476485D01*
X187729465Y-86188111D01*
X187727897Y-86212940D01*
X187726277Y-86222854D01*
X187731865Y-86268256D01*
X187732727Y-86279124D01*
X187733032Y-86287644D01*
X187733823Y-86292042D01*
X187733825Y-86292056D01*
X187736271Y-86305647D01*
X187737319Y-86312569D01*
X187744053Y-86367278D01*
X187747606Y-86375521D01*
X187748999Y-86380659D01*
X187750689Y-86385753D01*
X187752279Y-86394591D01*
X187756285Y-86402626D01*
X187756286Y-86402628D01*
X187776878Y-86443926D01*
X187779827Y-86450276D01*
X187801651Y-86500908D01*
X187807376Y-86507824D01*
X187810169Y-86512387D01*
X187813203Y-86516777D01*
X187817211Y-86524815D01*
X187823313Y-86531404D01*
X187823315Y-86531407D01*
X187854673Y-86565268D01*
X187859284Y-86570533D01*
X187894439Y-86613002D01*
X187901869Y-86618030D01*
X187905836Y-86621631D01*
X187909992Y-86625002D01*
X187916084Y-86631580D01*
X187923780Y-86636185D01*
X187923783Y-86636188D01*
X187963389Y-86659889D01*
X187969299Y-86663653D01*
X187987040Y-86675657D01*
X187994109Y-86678989D01*
X188005069Y-86684832D01*
X188040948Y-86706303D01*
X188054470Y-86709825D01*
X188076418Y-86717778D01*
X189180287Y-87237992D01*
X190207140Y-87721910D01*
X190217030Y-87727119D01*
X190899344Y-88126208D01*
X191502211Y-88478828D01*
X191516167Y-88488299D01*
X191615005Y-88565516D01*
X192260787Y-89070034D01*
X192269282Y-89076671D01*
X192279226Y-89085313D01*
X192369132Y-89172119D01*
X192944449Y-89727598D01*
X192961248Y-89747576D01*
X193436784Y-90449556D01*
X193444322Y-90462222D01*
X193536803Y-90640578D01*
X193742460Y-91037202D01*
X193754003Y-91069739D01*
X194064634Y-92575109D01*
X194065317Y-92578675D01*
X194284069Y-93818273D01*
X194285947Y-93837021D01*
X194309422Y-94776051D01*
X194309183Y-94787565D01*
X194308487Y-94798026D01*
X194308916Y-94802883D01*
X194310209Y-94817540D01*
X194310658Y-94825469D01*
X194311070Y-94841961D01*
X194312950Y-94853096D01*
X194314219Y-94862992D01*
X194387429Y-95692703D01*
X194387624Y-95695197D01*
X194391681Y-95754627D01*
X194391682Y-95754632D01*
X194392293Y-95763584D01*
X194395392Y-95772004D01*
X194404006Y-95795412D01*
X194408433Y-95810169D01*
X194416172Y-95843183D01*
X194420591Y-95850996D01*
X194453409Y-95909019D01*
X194453880Y-95909859D01*
X194910064Y-96730992D01*
X194923473Y-96767472D01*
X195098861Y-97644405D01*
X195101063Y-97661256D01*
X195143154Y-98334699D01*
X195143271Y-98336578D01*
X195140061Y-98373740D01*
X195122665Y-98446491D01*
X194886257Y-99435105D01*
X194884721Y-99440913D01*
X194663021Y-100204544D01*
X194661899Y-100208199D01*
X194397547Y-101025287D01*
X194391908Y-101039649D01*
X194377487Y-101070641D01*
X194376137Y-101079516D01*
X194367478Y-101136419D01*
X194367081Y-101138864D01*
X194355783Y-101204420D01*
X194356803Y-101213341D01*
X194356803Y-101213342D01*
X194360111Y-101242276D01*
X194360926Y-101256154D01*
X194385238Y-108306665D01*
X194386157Y-108573316D01*
X194386062Y-108578646D01*
X194312098Y-110477058D01*
X194310714Y-110512582D01*
X194310540Y-110515917D01*
X194212880Y-112005246D01*
X194211466Y-112026804D01*
X194210111Y-112038726D01*
X194130052Y-112532425D01*
X194072120Y-112889674D01*
X194066159Y-112912565D01*
X194028141Y-113017115D01*
X193700179Y-113919010D01*
X193690302Y-113939946D01*
X193333499Y-114544958D01*
X193197248Y-114775992D01*
X193166072Y-114811444D01*
X192601860Y-115250275D01*
X192591218Y-115257706D01*
X192589647Y-115258686D01*
X192589641Y-115258691D01*
X192585514Y-115261266D01*
X192581825Y-115264452D01*
X192567885Y-115276491D01*
X192562897Y-115280581D01*
X192546925Y-115293004D01*
X192543818Y-115296224D01*
X192543816Y-115296226D01*
X192541715Y-115298404D01*
X192533397Y-115306276D01*
X192457122Y-115372150D01*
X191483090Y-116213358D01*
X191463865Y-116227042D01*
X190593011Y-116731221D01*
X190575364Y-116739681D01*
X189881585Y-117008240D01*
X189862312Y-117013979D01*
X189849345Y-117016736D01*
X189849340Y-117016738D01*
X189840565Y-117018604D01*
X189832664Y-117022859D01*
X189807078Y-117036638D01*
X189803296Y-117038546D01*
X189799998Y-117039823D01*
X189796087Y-117042019D01*
X189796076Y-117042024D01*
X189773489Y-117054705D01*
X189771555Y-117055769D01*
X189712448Y-117087600D01*
X189709208Y-117090795D01*
X189705244Y-117093021D01*
X189698972Y-117099429D01*
X189698966Y-117099433D01*
X189658251Y-117141027D01*
X189656689Y-117142595D01*
X189615240Y-117183476D01*
X189615235Y-117183482D01*
X189608847Y-117189783D01*
X189606636Y-117193757D01*
X189603454Y-117197007D01*
X189571794Y-117256327D01*
X189570796Y-117258160D01*
X189538088Y-117316936D01*
X189537080Y-117321372D01*
X189534940Y-117325383D01*
X189533106Y-117334170D01*
X189533105Y-117334173D01*
X189521216Y-117391139D01*
X189520760Y-117393233D01*
X189513327Y-117425965D01*
X189513083Y-117429507D01*
X189512363Y-117433559D01*
X189507045Y-117459038D01*
X189507045Y-117459042D01*
X189505211Y-117467828D01*
X189505917Y-117476775D01*
X189507269Y-117493909D01*
X189507360Y-117512486D01*
X189413668Y-118871020D01*
X189385595Y-119278072D01*
X189360954Y-119344655D01*
X189306689Y-119386391D01*
X188807361Y-119586122D01*
X188799302Y-119589032D01*
X188441654Y-119704580D01*
X187187023Y-120109923D01*
X187179750Y-120112032D01*
X185999453Y-120416048D01*
X185549344Y-120531985D01*
X185538328Y-120534303D01*
X183884248Y-120805869D01*
X183876372Y-120806909D01*
X181376577Y-121056889D01*
X181368484Y-121057436D01*
X180310829Y-121094765D01*
X179232822Y-121132812D01*
X179231666Y-121132848D01*
X177307683Y-121182821D01*
X177296211Y-121182596D01*
X176204750Y-121111413D01*
X176185838Y-121108728D01*
X174746840Y-120791661D01*
X174741886Y-120790464D01*
X173782463Y-120537984D01*
X173329577Y-120418803D01*
X173320514Y-120416050D01*
X172078939Y-119987142D01*
X172032459Y-119958593D01*
X172024468Y-119950859D01*
X171394957Y-119341656D01*
X171377744Y-119321006D01*
X171349122Y-119278072D01*
X171077753Y-118871020D01*
X171059161Y-118826447D01*
X170890530Y-118004371D01*
X170888126Y-117985512D01*
X170887301Y-117969446D01*
X170886841Y-117960481D01*
X170874394Y-117924819D01*
X170873869Y-117923150D01*
X170873508Y-117921387D01*
X170871995Y-117917171D01*
X170871993Y-117917164D01*
X170862345Y-117890280D01*
X170861977Y-117889241D01*
X170850917Y-117857555D01*
X170838890Y-117823095D01*
X170837569Y-117821245D01*
X170836802Y-117819109D01*
X170795587Y-117762469D01*
X170794941Y-117761572D01*
X170759139Y-117711453D01*
X170754306Y-117704687D01*
X170752522Y-117703285D01*
X170751185Y-117701448D01*
X170695745Y-117658664D01*
X170694889Y-117657998D01*
X170670079Y-117638503D01*
X170666394Y-117635607D01*
X170664816Y-117634722D01*
X170663403Y-117633706D01*
X170661728Y-117632413D01*
X170635985Y-117612547D01*
X170608989Y-117601990D01*
X170593200Y-117594515D01*
X169217819Y-116822371D01*
X169212427Y-116819150D01*
X169208682Y-116816345D01*
X169199204Y-116811310D01*
X169180250Y-116801240D01*
X169177686Y-116799839D01*
X169156196Y-116787775D01*
X169156188Y-116787771D01*
X169152276Y-116785575D01*
X169148092Y-116783956D01*
X169147477Y-116783666D01*
X169142077Y-116780961D01*
X168441497Y-116408779D01*
X168412525Y-116387600D01*
X167840879Y-115828657D01*
X167383730Y-115381666D01*
X167366520Y-115360772D01*
X167321987Y-115293004D01*
X166837680Y-114556017D01*
X166831195Y-114544958D01*
X166212980Y-113356083D01*
X166204160Y-113334416D01*
X166077925Y-112916869D01*
X170697201Y-112916869D01*
X170697571Y-112923690D01*
X170703095Y-112974552D01*
X170706721Y-112989804D01*
X170751876Y-113110254D01*
X170760414Y-113125849D01*
X170836915Y-113227924D01*
X170849476Y-113240485D01*
X170951551Y-113316986D01*
X170967146Y-113325524D01*
X171087594Y-113370678D01*
X171102849Y-113374305D01*
X171153714Y-113379831D01*
X171160528Y-113380200D01*
X171796685Y-113380200D01*
X171811924Y-113375725D01*
X171813129Y-113374335D01*
X171814800Y-113366652D01*
X171814800Y-112280715D01*
X171810325Y-112265476D01*
X171808935Y-112264271D01*
X171801252Y-112262600D01*
X170715316Y-112262600D01*
X170700077Y-112267075D01*
X170698872Y-112268465D01*
X170697201Y-112276148D01*
X170697201Y-112916869D01*
X166077925Y-112916869D01*
X165895900Y-112314787D01*
X165894146Y-112308378D01*
X165555748Y-110930614D01*
X165552390Y-110908941D01*
X165480612Y-109832280D01*
X165480396Y-109827872D01*
X165468000Y-109434962D01*
X170692409Y-109434962D01*
X170692706Y-109440114D01*
X170692706Y-109440118D01*
X170698418Y-109539178D01*
X170705397Y-109660214D01*
X170706534Y-109665260D01*
X170706535Y-109665266D01*
X170727784Y-109759552D01*
X170755000Y-109880320D01*
X170756942Y-109885102D01*
X170756943Y-109885106D01*
X170793622Y-109975435D01*
X170839886Y-110089369D01*
X170957775Y-110281747D01*
X170961155Y-110285649D01*
X171029534Y-110364587D01*
X171103213Y-110449645D01*
X171103214Y-110449646D01*
X171105502Y-110452287D01*
X171104957Y-110452759D01*
X171137650Y-110511176D01*
X171133325Y-110582040D01*
X171091373Y-110639317D01*
X171059046Y-110657224D01*
X170967146Y-110691676D01*
X170951551Y-110700214D01*
X170849476Y-110776715D01*
X170836915Y-110789276D01*
X170760414Y-110891351D01*
X170751876Y-110906946D01*
X170706722Y-111027394D01*
X170703095Y-111042649D01*
X170697569Y-111093514D01*
X170697200Y-111100328D01*
X170697200Y-111736485D01*
X170701675Y-111751724D01*
X170703065Y-111752929D01*
X170710748Y-111754600D01*
X172196800Y-111754600D01*
X172264921Y-111774602D01*
X172311414Y-111828258D01*
X172322800Y-111880600D01*
X172322800Y-113362084D01*
X172327275Y-113377323D01*
X172328665Y-113378528D01*
X172336348Y-113380199D01*
X172977069Y-113380199D01*
X172983890Y-113379829D01*
X173034752Y-113374305D01*
X173050004Y-113370679D01*
X173170454Y-113325524D01*
X173186049Y-113316986D01*
X173288124Y-113240485D01*
X173300685Y-113227924D01*
X173377186Y-113125849D01*
X173385724Y-113110254D01*
X173420641Y-113017115D01*
X173463283Y-112960350D01*
X173529845Y-112935651D01*
X173599194Y-112950859D01*
X173633860Y-112978847D01*
X173645502Y-112992287D01*
X173819099Y-113136410D01*
X173823551Y-113139012D01*
X173823556Y-113139015D01*
X173912891Y-113191218D01*
X174013903Y-113250245D01*
X174224684Y-113330734D01*
X174229752Y-113331765D01*
X174229755Y-113331766D01*
X174298032Y-113345657D01*
X174445781Y-113375717D01*
X174450956Y-113375907D01*
X174450958Y-113375907D01*
X174666092Y-113383796D01*
X174666096Y-113383796D01*
X174671256Y-113383985D01*
X174676376Y-113383329D01*
X174676378Y-113383329D01*
X174746820Y-113374305D01*
X174895053Y-113355316D01*
X174900002Y-113353831D01*
X174900008Y-113353830D01*
X175106213Y-113291965D01*
X175106212Y-113291965D01*
X175111163Y-113290480D01*
X175238856Y-113227924D01*
X175309131Y-113193497D01*
X175309136Y-113193494D01*
X175313782Y-113191218D01*
X175317992Y-113188215D01*
X175317997Y-113188212D01*
X175493255Y-113063201D01*
X175493259Y-113063197D01*
X175497467Y-113060196D01*
X175657287Y-112900933D01*
X175778170Y-112732707D01*
X175834164Y-112689059D01*
X175904868Y-112682613D01*
X175967832Y-112715416D01*
X175987925Y-112740399D01*
X176035075Y-112817343D01*
X176035083Y-112817353D01*
X176037775Y-112821747D01*
X176185502Y-112992287D01*
X176359099Y-113136410D01*
X176363551Y-113139012D01*
X176363556Y-113139015D01*
X176452891Y-113191218D01*
X176553903Y-113250245D01*
X176764684Y-113330734D01*
X176769752Y-113331765D01*
X176769755Y-113331766D01*
X176838032Y-113345657D01*
X176985781Y-113375717D01*
X176990956Y-113375907D01*
X176990958Y-113375907D01*
X177206092Y-113383796D01*
X177206096Y-113383796D01*
X177211256Y-113383985D01*
X177216376Y-113383329D01*
X177216378Y-113383329D01*
X177286820Y-113374305D01*
X177435053Y-113355316D01*
X177440002Y-113353831D01*
X177440008Y-113353830D01*
X177646213Y-113291965D01*
X177646212Y-113291965D01*
X177651163Y-113290480D01*
X177778856Y-113227924D01*
X177849131Y-113193497D01*
X177849136Y-113193494D01*
X177853782Y-113191218D01*
X177857992Y-113188215D01*
X177857997Y-113188212D01*
X178033255Y-113063201D01*
X178033259Y-113063197D01*
X178037467Y-113060196D01*
X178197287Y-112900933D01*
X178328950Y-112717705D01*
X178428918Y-112515435D01*
X178490843Y-112311616D01*
X178493006Y-112304496D01*
X178493006Y-112304495D01*
X178494508Y-112299552D01*
X178509321Y-112187038D01*
X178523521Y-112079178D01*
X178523522Y-112079172D01*
X178523958Y-112075856D01*
X178525602Y-112008600D01*
X178507115Y-111783732D01*
X178452149Y-111564904D01*
X178362180Y-111357991D01*
X178314082Y-111283643D01*
X178242434Y-111172891D01*
X178242432Y-111172888D01*
X178239626Y-111168551D01*
X178087777Y-111001671D01*
X178083726Y-110998472D01*
X178083722Y-110998468D01*
X177914766Y-110865034D01*
X177914762Y-110865032D01*
X177910711Y-110861832D01*
X177887335Y-110848928D01*
X177837364Y-110798496D01*
X177822592Y-110729053D01*
X177847708Y-110662647D01*
X177875059Y-110636041D01*
X178033255Y-110523201D01*
X178033259Y-110523197D01*
X178037467Y-110520196D01*
X178197287Y-110360933D01*
X178328950Y-110177705D01*
X178428918Y-109975435D01*
X178494508Y-109759552D01*
X178523958Y-109535856D01*
X178525602Y-109468600D01*
X178507115Y-109243732D01*
X178452149Y-109024904D01*
X178362180Y-108817991D01*
X178314082Y-108743643D01*
X178242434Y-108632891D01*
X178242432Y-108632888D01*
X178239626Y-108628551D01*
X178087777Y-108461671D01*
X178083726Y-108458472D01*
X178083722Y-108458468D01*
X177914766Y-108325034D01*
X177914762Y-108325032D01*
X177910711Y-108321832D01*
X177713183Y-108212791D01*
X177500498Y-108137476D01*
X177450097Y-108128498D01*
X177283457Y-108098814D01*
X177283453Y-108098814D01*
X177278369Y-108097908D01*
X177206374Y-108097029D01*
X177057929Y-108095215D01*
X177057927Y-108095215D01*
X177052759Y-108095152D01*
X176829729Y-108129280D01*
X176615268Y-108199377D01*
X176415135Y-108303560D01*
X176411002Y-108306663D01*
X176410999Y-108306665D01*
X176386534Y-108325034D01*
X176234705Y-108439030D01*
X176231133Y-108442768D01*
X176086586Y-108594028D01*
X176078824Y-108602150D01*
X176075912Y-108606419D01*
X176075906Y-108606427D01*
X175982303Y-108743643D01*
X175927392Y-108788646D01*
X175856867Y-108796817D01*
X175793120Y-108765563D01*
X175772423Y-108741079D01*
X175702434Y-108632891D01*
X175702432Y-108632888D01*
X175699626Y-108628551D01*
X175547777Y-108461671D01*
X175543726Y-108458472D01*
X175543722Y-108458468D01*
X175374766Y-108325034D01*
X175374762Y-108325032D01*
X175370711Y-108321832D01*
X175173183Y-108212791D01*
X174960498Y-108137476D01*
X174910097Y-108128498D01*
X174743457Y-108098814D01*
X174743453Y-108098814D01*
X174738369Y-108097908D01*
X174666374Y-108097029D01*
X174517929Y-108095215D01*
X174517927Y-108095215D01*
X174512759Y-108095152D01*
X174289729Y-108129280D01*
X174075268Y-108199377D01*
X173875135Y-108303560D01*
X173871002Y-108306663D01*
X173870999Y-108306665D01*
X173846534Y-108325034D01*
X173694705Y-108439030D01*
X173691133Y-108442768D01*
X173546586Y-108594028D01*
X173538824Y-108602150D01*
X173535912Y-108606419D01*
X173535906Y-108606427D01*
X173442303Y-108743643D01*
X173387392Y-108788646D01*
X173316867Y-108796817D01*
X173253120Y-108765563D01*
X173232423Y-108741079D01*
X173162434Y-108632891D01*
X173162432Y-108632888D01*
X173159626Y-108628551D01*
X173007777Y-108461671D01*
X173003726Y-108458472D01*
X173003722Y-108458468D01*
X172834766Y-108325034D01*
X172834762Y-108325032D01*
X172830711Y-108321832D01*
X172633183Y-108212791D01*
X172420498Y-108137476D01*
X172370097Y-108128498D01*
X172203457Y-108098814D01*
X172203453Y-108098814D01*
X172198369Y-108097908D01*
X172126374Y-108097029D01*
X171977929Y-108095215D01*
X171977927Y-108095215D01*
X171972759Y-108095152D01*
X171749729Y-108129280D01*
X171535268Y-108199377D01*
X171335135Y-108303560D01*
X171331002Y-108306663D01*
X171330999Y-108306665D01*
X171306534Y-108325034D01*
X171154705Y-108439030D01*
X171151133Y-108442768D01*
X171006586Y-108594028D01*
X170998824Y-108602150D01*
X170871678Y-108788540D01*
X170869504Y-108793224D01*
X170869502Y-108793227D01*
X170798202Y-108946831D01*
X170776681Y-108993193D01*
X170716385Y-109210613D01*
X170692409Y-109434962D01*
X165468000Y-109434962D01*
X165075758Y-97002600D01*
X174726600Y-97002600D01*
X174731474Y-97017222D01*
X174731474Y-97017223D01*
X174888266Y-97487599D01*
X174904400Y-97536000D01*
X174915694Y-97543308D01*
X175324120Y-97807584D01*
X175324122Y-97807585D01*
X175336200Y-97815400D01*
X175350486Y-97817114D01*
X175350488Y-97817115D01*
X175670618Y-97855530D01*
X175971200Y-97891600D01*
X175980656Y-97889827D01*
X175980657Y-97889827D01*
X176368453Y-97817115D01*
X176784000Y-97739200D01*
X176789707Y-97736917D01*
X176789711Y-97736916D01*
X177163135Y-97587546D01*
X177166870Y-97586120D01*
X177437803Y-97487599D01*
X177437804Y-97487599D01*
X177444400Y-97485200D01*
X178155600Y-97028000D01*
X178334894Y-96774000D01*
X186639200Y-96774000D01*
X186677907Y-96828190D01*
X186711771Y-96875600D01*
X186890178Y-97125370D01*
X186890182Y-97125374D01*
X186893200Y-97129600D01*
X186969400Y-97205800D01*
X187234751Y-97369093D01*
X187597588Y-97592377D01*
X187629800Y-97612200D01*
X187636991Y-97614520D01*
X187636994Y-97614521D01*
X188408795Y-97863489D01*
X188408797Y-97863489D01*
X188417200Y-97866200D01*
X188426026Y-97866485D01*
X188426028Y-97866485D01*
X188670791Y-97874380D01*
X189204600Y-97891600D01*
X189213595Y-97889178D01*
X189213597Y-97889178D01*
X189851816Y-97717350D01*
X189851818Y-97717349D01*
X189865000Y-97713800D01*
X190017400Y-97586800D01*
X190281650Y-97200588D01*
X190337370Y-97119152D01*
X190337370Y-97119151D01*
X190347600Y-97104200D01*
X190310911Y-96774000D01*
X190298801Y-96665007D01*
X190298801Y-96665006D01*
X190296800Y-96647000D01*
X190248989Y-96596200D01*
X189898019Y-96223295D01*
X189898018Y-96223295D01*
X189890400Y-96215200D01*
X189554034Y-96047017D01*
X189133053Y-95836526D01*
X189133048Y-95836524D01*
X189128400Y-95834200D01*
X188563312Y-95660327D01*
X188469960Y-95631603D01*
X188469958Y-95631602D01*
X188468000Y-95631000D01*
X187934600Y-95504000D01*
X187706139Y-95487681D01*
X187594458Y-95479704D01*
X187594457Y-95479704D01*
X187579000Y-95478600D01*
X187564839Y-95484894D01*
X187564838Y-95484894D01*
X187519186Y-95505184D01*
X187350400Y-95580200D01*
X187278917Y-95658182D01*
X187111112Y-95841242D01*
X187071000Y-95885000D01*
X187068623Y-95888396D01*
X187068622Y-95888397D01*
X187001919Y-95983687D01*
X186715400Y-96393000D01*
X186639200Y-96774000D01*
X178334894Y-96774000D01*
X178339502Y-96767472D01*
X178449954Y-96610999D01*
X178449954Y-96610998D01*
X178460400Y-96596200D01*
X178415779Y-96417714D01*
X178363194Y-96207376D01*
X178358800Y-96189800D01*
X178154824Y-96047017D01*
X177860861Y-95841242D01*
X177860858Y-95841241D01*
X177850800Y-95834200D01*
X177063400Y-95656400D01*
X176830586Y-95664428D01*
X176336185Y-95681476D01*
X176336182Y-95681476D01*
X176326800Y-95681800D01*
X176317923Y-95684861D01*
X175598142Y-95933061D01*
X175598140Y-95933062D01*
X175590200Y-95935800D01*
X175307629Y-96128462D01*
X175104703Y-96266821D01*
X175031400Y-96316800D01*
X174752000Y-96850200D01*
X174750354Y-96860078D01*
X174750353Y-96860080D01*
X174740146Y-96921322D01*
X174726600Y-97002600D01*
X165075758Y-97002600D01*
X164903443Y-91540951D01*
X164921287Y-91472236D01*
X164927773Y-91462468D01*
X165042742Y-91305693D01*
X165333781Y-90908821D01*
X165337571Y-90904281D01*
X165337392Y-90904136D01*
X165340457Y-90900342D01*
X165343792Y-90896810D01*
X165346544Y-90892806D01*
X165346548Y-90892802D01*
X165360759Y-90872131D01*
X165362983Y-90868999D01*
X165378825Y-90847397D01*
X165380936Y-90843445D01*
X165383327Y-90839645D01*
X165383444Y-90839719D01*
X165386515Y-90834667D01*
X165418265Y-90788486D01*
X165892038Y-90099361D01*
X165906772Y-90081648D01*
X166613853Y-89374568D01*
X166642613Y-89353049D01*
X166998106Y-89159144D01*
X167647057Y-88805171D01*
X167653556Y-88802107D01*
X167653525Y-88802044D01*
X167657886Y-88799888D01*
X167662408Y-88798071D01*
X167686319Y-88783853D01*
X167690366Y-88781548D01*
X167708143Y-88771852D01*
X167708149Y-88771848D01*
X167712080Y-88769704D01*
X167715668Y-88767023D01*
X167719380Y-88764642D01*
X167725436Y-88760596D01*
X168614106Y-88232197D01*
X168623090Y-88227337D01*
X170988420Y-87069311D01*
X171008878Y-87061420D01*
X171025781Y-87056542D01*
X171033361Y-87051732D01*
X171033363Y-87051731D01*
X171057997Y-87036099D01*
X171063289Y-87033136D01*
X171063233Y-87033039D01*
X171067113Y-87030784D01*
X171071136Y-87028815D01*
X171092436Y-87014320D01*
X171095787Y-87012117D01*
X171148645Y-86978575D01*
X171154119Y-86972344D01*
X171160973Y-86967680D01*
X171200778Y-86919331D01*
X171203358Y-86916298D01*
X171238765Y-86875997D01*
X171238766Y-86875995D01*
X171244686Y-86869257D01*
X171248190Y-86861744D01*
X171253462Y-86855340D01*
X171278093Y-86797772D01*
X171279738Y-86794093D01*
X171302392Y-86745515D01*
X171302392Y-86745514D01*
X171306187Y-86737377D01*
X171307442Y-86729180D01*
X171310703Y-86721557D01*
X171312116Y-86709823D01*
X171318182Y-86659424D01*
X171318730Y-86655417D01*
X171322365Y-86631670D01*
X171322366Y-86631662D01*
X171323101Y-86626857D01*
X171323088Y-86621996D01*
X171323452Y-86617134D01*
X171323646Y-86617149D01*
X171324003Y-86611077D01*
X171327022Y-86585995D01*
X171328095Y-86577085D01*
X171324567Y-86555859D01*
X171322863Y-86535535D01*
X171322853Y-86531407D01*
X171304210Y-79353890D01*
X171298846Y-77288492D01*
X171318671Y-77220320D01*
X171372206Y-77173688D01*
X171390400Y-77166965D01*
X172164890Y-76946847D01*
X173317224Y-76619342D01*
X173326950Y-76616991D01*
X174065419Y-76469297D01*
X175181552Y-76246070D01*
X175191820Y-76244453D01*
X177125856Y-76021296D01*
X177134306Y-76020609D01*
X179231486Y-75920743D01*
X179237479Y-75920600D01*
X181869838Y-75920600D01*
X181877601Y-75920839D01*
G37*
%TD.AperFunction*%
%TD*%
M02*
